<svg width="24" height="24" viewBox="0 0 24 24" fill="none" xmlns="http://www.w3.org/2000/svg">
<path d="M2.3577 6.43301L12 0.866025L21.6423 6.43301V17.567L12 23.134L2.3577 17.567V6.43301Z" stroke="#A2A199" stroke-width="1.5"/>
<path d="M15.5742 16H13.8457L9.65039 9.16211H9.59766C9.61328 9.39258 9.62695 9.63672 9.63867 9.89453C9.6543 10.1523 9.66602 10.418 9.67383 10.6914C9.68555 10.9648 9.69531 11.2422 9.70312 11.5234V16H8.42578V7.43359H10.1426L14.332 14.2246H14.373C14.3652 14.0254 14.3555 13.7969 14.3438 13.5391C14.332 13.2812 14.3203 13.0156 14.3086 12.7422C14.3008 12.4648 14.2949 12.1973 14.291 11.9395V7.43359H15.5742V16Z" fill="#A2A199"/>
</svg>
