<svg width="808" height="270" viewBox="0 0 808 270" fill="none" xmlns="http://www.w3.org/2000/svg">
<g clip-path="url(#clip0_203_734)">
<path d="M775.961 112.845C779.313 115.19 782.353 119.019 786.718 120.269C790.928 121.441 794.748 121.129 797.866 121.988C804.258 123.239 808.078 125.505 808.078 125.505C808.078 125.505 804.492 122.926 798.178 121.051C795.06 119.957 791.006 119.8 787.498 118.394C783.99 116.987 781.573 113.392 778.143 110.423C774.713 106.906 769.88 105.734 765.749 104.796C761.539 104.014 757.641 103.858 754.367 103.624C751.171 103.467 748.599 103.233 746.806 102.999C741.193 89.5572 734.411 76.741 727.707 67.6758C725.68 64.7844 723.653 62.2055 721.782 59.9392C723.809 60.33 725.758 60.7207 727.785 61.2677C732.462 62.2837 736.905 63.8466 741.115 65.2533C758.031 71.2706 770.816 79.5543 778.377 86.5094C780.248 88.3068 782.119 89.7135 783.366 91.2764C784.614 92.8394 785.627 94.1679 786.484 95.2619C788.2 97.3719 801.5 107.375 801.5 107.375C801.5 107.375 793.111 94.1679 791.396 91.6672C790.538 90.4168 789.447 88.8538 788.122 87.0564C786.796 85.2591 784.925 83.618 782.977 81.5861C775.103 73.5369 762.007 63.9248 744.389 56.5789C739.946 54.7815 735.346 52.8278 730.357 51.4993C725.524 49.78 720.145 48.7641 714.61 47.5919C703.385 45.7945 691.925 46.4197 681.012 45.4819C678.283 45.3256 675.633 44.7786 672.983 44.3878C670.41 43.6845 667.682 43.2938 665.187 42.356C660.276 41.1056 655.287 37.9016 650.22 35.3227C644.997 32.4313 639.93 29.1491 634.317 26.1795L625.82 21.5687C623.014 20.0058 619.739 18.9117 616.699 17.5832C604.382 12.4255 592.066 9.61216 579.125 7.58032C566.263 5.47033 553.166 5.93922 540.849 7.42402C528.455 8.90883 517.073 12.2692 506.549 15.5514C495.87 19.068 486.125 23.288 477.784 26.8828C469.677 30.4776 462.427 33.2909 456.035 35.4009C454.32 24.3039 452.605 12.191 451.124 -0.0781479C429.218 7.26773 407.547 14.5355 392.346 21.8813C390.943 37.589 388.916 52.7496 386.187 66.8944C384.94 67.5195 383.537 68.0666 381.978 68.6136C373.091 72.521 359.527 76.4284 342.455 78.8509C325.383 81.3517 304.803 81.508 282.43 80.0232C260.057 78.6946 235.969 75.4906 211.491 73.1462C205.333 72.5991 199.33 72.0521 193.405 71.4269C187.403 70.7236 181.167 70.0984 174.852 69.7858C168.616 69.4732 161.834 69.6295 155.286 71.1925C152.012 71.8177 148.815 73.2243 145.697 74.2402C142.813 75.725 139.851 77.1317 137.356 78.7728C127.066 85.259 118.725 92.2923 110.15 96.9812C102.121 101.826 92.2203 103.155 83.6453 105.577C74.8364 107.297 66.6512 108.547 59.4014 109.641C52.0737 110.344 45.6814 110.97 40.4584 111.517C29.8566 112.064 23.8541 112.376 23.8541 112.376V118.159C23.8541 118.159 30.0125 118.159 40.7703 118.237C46.1491 118.003 52.6973 117.768 60.181 117.456C62.2078 117.3 64.5464 117.065 66.7292 116.831C65.7158 117.456 64.7023 118.081 63.6889 118.706C62.7535 119.331 61.7401 119.722 60.8046 120.269C60.5707 120.504 59.4014 120.816 58.6219 121.52L57.4526 123.473C56.3612 125.349 55.1919 127.224 53.7887 129.022C51.1382 132.617 48.0201 135.899 44.9019 139.259C41.7837 142.541 38.5875 145.98 35.7032 149.653C35.0016 150.512 34.2221 151.685 33.7543 152.388L33.1307 153.326L32.8189 153.795L32.3512 153.482C32.3512 153.482 31.6496 153.013 31.4157 152.935L29.7007 152.153C28.5314 151.841 27.3621 151.528 26.1148 151.45C16.3705 151.294 8.96476 157.311 0.701569 160.515L0.233841 160.359C0.233841 160.359 0.233841 160.593 0.233841 160.672C0.233841 160.672 0.233841 160.672 0.155887 160.672L-0.233887 160.828H0.38975L0.54566 160.906C0.623614 161.297 0.701569 161.609 0.779524 161.844C1.24725 161.609 1.71498 161.375 2.18271 161.14L4.44339 161.531L2.57248 160.984C10.29 157.311 17.9295 152.388 26.1148 153.169C27.2062 153.247 28.2196 153.56 29.233 153.951L30.6362 154.654C31.4157 155.045 31.8834 155.514 32.585 155.983L33.5205 156.686L34.2221 155.826L35.6253 153.951C36.5607 152.779 37.0284 152.075 37.808 151.216C40.7703 147.855 44.0444 144.729 47.3964 141.525C50.6705 138.399 54.1005 135.195 57.1407 131.522C58.6998 129.725 60.103 127.85 61.4282 125.818C62.5196 124.333 61.5062 125.271 62.9094 124.489C64.0007 124.02 65.1701 123.551 66.1835 122.926C71.7962 119.957 77.1751 116.674 82.476 115.033C83.4894 114.877 84.5028 114.799 85.5162 114.643C86.3737 114.408 87.3092 114.252 88.2446 114.096C88.7903 114.096 89.414 114.096 89.9596 114.096V113.705C97.911 112.22 106.564 111.126 115.373 106.593C117.867 105.343 120.284 104.014 122.701 102.686C122.857 104.327 123.324 105.89 124.26 107.219C126.053 109.954 127.69 111.517 128.625 113.548V113.861L132.211 118.941C132.991 120.191 133.38 122.145 133.77 124.02L133.536 124.333C133.536 124.333 133.224 125.818 132.523 127.068C131.821 128.397 130.73 129.803 130.418 132.148C130.184 133.398 130.574 134.727 131.276 135.742C131.899 136.68 132.757 137.384 133.692 137.852C135.485 138.868 137.356 139.025 138.915 139.181C140.474 139.337 141.955 139.493 142.891 139.962C143.67 140.275 144.06 141.447 143.904 142.463C143.592 144.417 140.63 146.605 138.214 148.168C127.534 154.967 117.478 162.391 107.032 169.502C117.789 163.094 128.547 156.217 139.461 150.2C140.864 149.418 142.267 148.559 143.592 147.543C144.84 146.37 146.399 145.355 146.867 142.932C147.256 140.978 146.711 138.478 144.606 137.227C142.735 136.133 140.942 135.977 139.461 135.742C137.98 135.508 136.577 135.195 135.641 134.57C135.173 134.258 134.784 133.945 134.628 133.554C134.472 133.32 134.394 133.007 134.55 132.773C134.706 132.069 135.485 130.741 136.421 129.412C137.122 128.006 138.681 126.521 138.214 123.317C138.214 123.395 138.214 123.473 138.369 123.63C137.902 121.441 137.746 119.253 136.654 116.753L133.536 111.36C133.536 111.36 133.692 111.517 133.77 111.595C132.445 108.703 130.34 106.281 129.405 104.483C128.469 102.764 128.703 101.357 129.405 99.2475L129.015 99.0912C134.082 95.9653 138.993 92.6831 144.06 89.9479C153.337 84.4776 162.691 83.3835 174.151 84.6339C179.763 85.1809 185.532 86.1187 191.535 87.1346C197.615 88.1505 203.773 89.0883 209.698 89.9479C213.44 90.4949 217.182 91.1201 220.923 91.7453C220.768 92.4486 220.534 93.0738 220.3 93.8553C218.897 99.013 217.338 106.359 215.311 114.799C214.843 116.674 214.375 118.628 213.752 120.504C212.348 120.191 211.023 119.957 209.776 119.8C202.916 118.784 192.47 118.628 183.973 123.317C182.882 123.786 181.868 124.411 180.855 125.114L179.997 125.661C179.997 125.661 179.374 126.208 179.218 125.74C178.984 125.505 178.828 125.271 178.516 125.036C178.048 124.645 177.581 124.177 177.035 123.942C176.022 123.239 174.852 122.848 173.761 122.535C169.317 121.285 165.264 121.52 161.756 121.676C158.326 121.832 155.442 122.067 153.415 122.145C151.388 122.145 150.219 122.145 150.219 122.145C150.219 122.145 151.388 122.301 153.337 122.379C155.364 122.379 158.248 122.535 161.678 122.614C165.108 122.77 169.162 122.926 172.981 124.411C173.917 124.802 174.852 125.271 175.632 125.818C176.1 126.052 176.411 126.443 176.723 126.755C177.269 127.302 177.737 128.006 178.204 128.631C178.516 128.787 178.594 129.647 178.984 129.256L179.997 128.709L182.102 127.615C183.115 127.068 184.051 126.599 185.142 126.208C193.328 122.614 202.292 123.551 208.763 125.114C210.01 125.427 211.023 125.661 211.803 125.896C209.932 130.975 207.593 136.055 204.163 140.822C201.435 145.198 197.381 148.793 193.483 152.7C189.196 156.061 184.519 159.421 179.53 162.391C159.651 174.191 137.434 183.412 122.779 194.119C115.373 199.355 109.838 204.59 106.408 208.654C104.615 210.608 103.524 212.405 102.588 213.499C101.731 214.672 101.263 215.219 101.263 215.219L104.381 217.407C104.381 217.407 104.849 216.86 105.706 215.766C106.642 214.75 107.655 213.109 109.448 211.311C112.8 207.638 118.257 202.871 125.585 198.182C129.95 195.291 135.017 192.478 140.474 189.742C140.24 194.822 141.176 199.511 141.799 203.965C142.345 207.169 142.969 210.373 143.125 213.421C143.281 214.984 143.125 216.469 143.125 218.032C143.125 219.595 142.969 221.158 142.657 222.643C141.877 228.816 139.149 234.834 135.017 239.366C132.757 241.476 129.794 242.961 127.144 244.836C124.494 246.634 122.155 249.447 121.921 252.808C120.908 252.729 119.816 252.651 118.959 252.182C119.816 252.886 120.908 253.276 121.999 253.511H122.077V253.042C122.545 249.76 124.883 247.337 127.612 245.852C130.34 244.211 133.38 242.961 136.109 240.851C141.098 236.162 144.45 230.067 145.853 223.424C149.673 210.608 143.826 196.619 147.178 186.46C158.404 181.068 170.955 175.598 183.271 168.955C188.572 166.142 193.717 162.782 198.628 159.109C203.15 154.967 207.827 151.059 211.257 146.136C218.585 136.68 222.405 125.974 224.899 117.3C227.316 108.625 229.109 101.514 230.668 96.7467C231.058 95.4182 231.447 94.3242 231.759 93.3864C248.208 96.1216 264.5 98.8567 280.481 100.81C303.555 103.702 325.772 104.796 345.105 103.155C361.71 101.826 375.975 98.8567 386.577 95.5745C384.083 99.1693 380.808 103.077 376.287 106.828C368.648 113.314 357.344 119.175 343.936 124.177C330.606 129.256 315.093 133.476 299.658 139.728C283.911 145.667 270.113 156.061 258.186 164.735C253.431 168.252 248.831 171.612 244.466 174.973C242.049 174.738 239.555 174.191 236.826 173.644C234.955 173.253 232.928 172.863 230.824 172.784C229.732 172.784 228.485 172.784 227.394 173.097C226.302 173.488 225.211 173.957 224.198 174.425C220.612 176.692 218.039 179.818 215.467 181.224C212.504 182.709 208.529 183.334 204.943 185.601C204.943 185.601 205.099 185.757 205.255 185.835C200.577 188.101 199.642 192.634 196.524 193.103C194.809 193.337 192.704 193.103 190.599 193.259C188.494 193.259 186.078 194.197 184.519 195.369C177.503 199.355 171.5 204.747 164.172 207.873H164.095C164.095 207.873 164.017 207.873 163.939 207.951H163.783L163.939 208.107H164.172C164.172 208.107 164.172 208.576 164.172 208.654C164.328 208.576 164.562 208.498 164.718 208.342L166.043 208.81L164.952 208.185C172.124 204.981 178.516 200.214 185.454 196.854C188.806 194.509 192.236 195.838 196.913 195.682C197.459 195.682 198.161 195.447 198.784 195.291C199.33 194.978 199.876 194.666 200.343 194.275C201.513 193.572 202.058 192.712 202.76 191.931L204.709 189.821C205.411 189.274 206.034 188.961 206.658 188.414V188.179C209.542 186.617 213.284 186.304 217.104 184.741C221.235 182.787 223.652 179.974 226.536 178.567C228.953 177.161 232.071 178.02 235.579 178.958C236.436 179.192 237.294 179.427 238.151 179.661C233.786 183.022 229.576 186.226 225.679 189.195C216.168 196.463 208.373 202.637 202.916 207.013C197.459 211.311 194.341 213.812 194.341 213.812L197.771 218.501C197.771 218.501 201.045 216.313 206.892 212.483C212.66 208.654 220.923 203.184 231.058 196.854C240.1 190.993 250.546 184.428 261.85 177.551C261.694 177.864 261.538 178.098 261.46 178.411C258.03 186.617 255.691 195.682 253.664 204.512C249.689 222.33 246.649 240.148 240.412 251.635C237.372 257.34 233.552 261.091 230.512 263.123C227.472 265.233 225.367 265.624 225.445 265.78L226.614 269.375C226.614 269.375 229.031 268.828 232.695 266.64C236.358 264.53 241.036 260.31 244.7 254.136C251.794 242.414 255.691 225.3 260.291 208.81C260.836 209.279 261.382 209.748 262.006 210.061C264.578 211.702 266.761 212.796 268.008 215.219C269.411 217.407 268.71 221.236 269.801 225.3C270.113 226.237 270.581 227.253 271.048 228.113C271.672 228.894 272.374 229.832 273.075 230.535C274.556 231.786 275.959 232.724 276.739 233.896C277.051 234.521 277.596 235.146 277.752 235.771C277.752 236.553 277.908 237.334 277.986 238.038C278.142 239.522 278.142 241.007 278.22 242.414C278.064 245.227 279.078 247.415 279.234 248.978C279.311 249.603 279.545 250.776 279.078 250.307C278.766 249.994 278.688 249.76 278.688 249.76C278.688 249.76 278.766 249.994 279 250.307C279 250.307 279.156 250.541 279.312 250.463C279.467 250.307 279.389 250.151 279.467 249.994C279.467 249.682 279.467 249.291 279.467 248.9C279.467 247.259 278.766 245.071 279.234 242.336C279.389 241.007 279.545 239.522 279.545 237.881C279.545 237.1 279.545 236.24 279.545 235.302C279.389 234.365 278.844 233.505 278.532 232.645C277.596 231.004 276.115 229.676 275.024 228.504C274.478 227.878 274.166 227.253 273.777 226.628C273.465 225.925 273.231 225.143 273.075 224.362C272.451 221.314 273.777 217.485 272.218 213.343C270.814 209.279 267.151 206.935 265.358 205.528C263.409 203.887 263.097 202.871 263.097 202.168C263.175 201.23 263.253 200.683 263.253 200.683H262.863C264.89 194.041 267.073 187.554 269.801 181.928C272.685 175.91 276.037 170.753 279.623 166.923C287.886 162.234 296.384 157.936 305.66 155.357C307.921 154.654 310.337 154.029 312.676 153.404C312.208 154.42 311.741 155.514 311.273 156.53C311.273 156.764 310.805 157.155 311.117 157.389L311.897 157.936L313.378 159.109C315.872 161.219 316.73 163.797 317.977 166.923C318.99 169.971 320.394 173.41 321.953 176.067C323.434 178.645 323.746 181.459 323.668 183.881C323.278 188.883 324.135 192.243 324.135 192.243C324.135 192.243 323.746 188.961 324.681 183.959C325.071 181.537 325.149 178.255 323.824 175.207C322.498 172.237 321.797 169.424 321.017 165.986C320.627 164.344 320.16 162.625 319.536 160.984C319.146 160.124 318.912 159.343 318.367 158.483L317.587 157.311C317.275 156.842 317.042 156.53 317.042 156.53C316.418 156.061 316.808 155.67 317.042 155.436C317.743 154.342 318.445 153.326 319.224 152.544C319.614 152.075 320.004 151.763 320.394 151.372C328.189 149.418 336.062 147.621 343.936 145.667C345.885 147.855 348.769 150.981 352.277 154.576C355.473 157.858 359.293 161.531 363.347 165.36C363.347 165.517 363.503 165.673 363.58 165.907L363.736 166.376C363.736 166.376 363.736 166.376 363.736 166.533V167.47C363.97 168.799 364.438 170.362 364.36 172.081C364.204 175.441 363.269 179.349 361.32 183.803C359.605 188.258 358.747 193.493 357.344 198.495C356.019 203.34 354.85 208.263 353.446 212.718C351.965 217.094 349.237 220.767 347.912 224.44C347.132 226.237 346.976 228.113 346.82 229.676C347.054 231.239 347.132 232.645 347.522 233.661C348.301 235.771 348.769 236.944 348.769 236.944C348.769 236.944 348.379 235.693 347.756 233.583C347.444 232.567 347.522 231.161 347.366 229.676C347.6 228.191 347.912 226.472 348.769 224.831C350.328 221.47 353.29 218.032 355.239 213.499C357.032 209.045 358.591 204.122 360.384 199.276C362.099 194.588 363.191 189.742 365.295 185.444C367.478 181.302 369.115 176.614 369.661 172.394C369.661 172.159 369.661 171.925 369.661 171.69C372.233 174.347 374.728 177.004 377.145 179.896C381.042 184.741 384.316 189.977 386.343 195.369C388.214 200.761 388.76 206.153 388.604 210.842C388.292 215.453 387.746 219.439 386.967 222.096C386.265 224.831 384 234.5 384 234.5C384 234.5 390.007 226.003 390.865 223.19C391.878 220.454 392.891 216.313 393.515 211.155C394.061 205.997 393.905 199.823 392.19 193.494C390.397 187.164 387.123 180.912 383.147 175.285C375.196 164.11 365.841 154.967 359.683 147.543C358.046 145.667 356.643 143.948 355.395 142.385C368.57 138.478 381.12 133.242 391.176 126.208C402.636 118.315 410.041 108.703 414.563 101.904C416.2 99.013 417.447 96.7467 418.461 94.9494C419.318 94.8712 420.176 94.7931 420.955 94.7149C421.657 96.8249 422.28 99.4038 422.982 102.295C423.917 105.812 424.853 109.954 425.788 114.643C427.815 123.786 429.92 135.039 433.35 147.152C434.285 150.122 435.143 153.091 436.078 156.139C435.143 157.467 433.974 158.874 432.492 160.359C428.517 164.657 422.748 169.268 417.447 175.91C414.797 179.192 412.302 183.256 411.211 188.179C410.275 192.868 410.275 197.245 410.509 201.543C411.523 218.579 414.797 234.599 413.004 246.478C412.224 252.339 410.587 257.028 409.028 259.997C407.391 262.967 402 269.5 402 269.5C402 269.5 410.587 265.311 412.692 262.029C414.719 258.747 416.824 253.589 418.071 247.259C420.721 234.443 418.227 217.407 418.227 201.386C418.227 197.401 418.539 193.415 419.474 190.133C419.474 190.133 419.474 190.133 419.474 190.055C419.708 190.289 419.942 190.524 420.176 190.836C420.176 190.68 420.331 190.368 420.487 190.055C420.487 192.712 422.202 193.884 423.528 194.588C424.853 195.291 426.1 195.76 427.269 196.307C428.361 196.698 429.452 197.401 429.608 197.557C429.998 198.417 430.544 199.433 431.011 200.449C431.791 202.715 432.103 205.45 433.428 208.029C433.974 209.357 434.753 210.608 435.533 211.624C436.312 212.718 437.014 213.89 437.949 214.828C441.379 218.891 445.355 222.252 447.927 226.628C450.656 230.926 450.812 236.318 449.253 241.32C451.202 236.553 451.669 230.848 449.175 226.003C446.836 221.158 443.016 217.329 440.132 213.187C439.352 212.171 438.807 211.077 438.105 209.983C437.404 208.889 436.858 207.795 436.546 206.779C435.611 204.669 435.533 202.09 434.909 199.355C434.519 197.948 433.896 196.541 433.272 195.135C431.869 193.259 430.466 192.712 429.296 192.009C426.88 190.915 424.697 189.274 424.853 189.039L424.463 188.336C423.917 187.476 423.372 186.538 422.748 185.835C422.124 185.054 422.202 185.132 422.202 184.975L423.684 183.256L423.372 183.022C423.684 182.631 423.995 182.162 424.307 181.771C428.984 176.535 434.753 172.315 439.586 167.783C439.898 167.549 440.132 167.236 440.444 167.001C441.613 169.815 443.328 172.55 444.887 175.207C446.68 178.255 448.473 181.224 450.344 183.803C465.701 205.059 482.851 224.127 496.649 237.725C503.743 244.368 509.512 249.916 514.033 253.355C518.398 256.949 530.5 260.5 530.5 260.5C530.5 260.5 522.452 252.339 518.632 248.431C514.735 244.602 509.668 238.585 503.587 231.473C491.738 216.938 476.927 196.229 464.844 174.738C464.064 173.331 463.44 171.925 462.739 170.44C472.093 176.692 483.865 181.771 496.493 186.226C497.039 187.007 497.662 187.867 498.208 189.039C499.845 192.243 501.248 196.619 503.197 201.308C504.211 203.653 505.224 206.075 507.017 208.42C508.732 210.92 511.928 212.405 514.579 212.874C517.307 213.421 519.724 213.656 521.906 214.515C522.998 214.828 524.089 215.609 524.713 216.156C525.414 216.86 525.882 217.954 526.272 218.97C527.129 221.158 527.675 223.58 528.766 225.69C530.014 227.8 531.417 229.285 532.742 230.77C535.393 233.661 537.731 235.928 538.823 237.959C539.914 239.991 539.524 241.398 539.68 241.398C539.602 241.398 540.07 240.069 539.056 237.881C538.121 235.771 535.938 233.271 533.522 230.223C532.352 228.738 530.949 227.019 530.092 225.143C529.234 223.19 528.844 220.845 528.143 218.423C527.753 217.172 527.363 215.922 526.35 214.672C525.18 213.499 524.167 212.796 522.842 212.171C520.347 210.842 517.541 210.452 515.202 209.748C512.786 209.045 511.071 208.107 509.901 206.153C508.654 204.278 507.875 202.012 507.095 199.745C505.848 195.916 504.834 192.165 503.587 188.726C512.162 191.618 520.971 194.275 529.702 197.01C536.016 199.198 541.941 200.918 547.398 203.809C552.854 206.7 557.999 210.295 562.833 213.89C572.499 221.236 581.074 228.894 588.947 234.99C596.743 241.164 603.915 245.696 609.371 248.119C612.1 249.369 614.361 250.151 615.92 250.463C617.479 250.854 635 252 635 252C635 252 618.336 247.103 617.011 246.634C615.608 246.243 613.581 245.462 611.086 244.289C606.097 241.867 599.471 237.334 592.066 231.082C584.582 224.831 576.319 216.86 566.652 208.889C561.741 204.981 556.596 201.074 550.75 197.635C544.903 194.197 538.199 192.009 532.196 189.664C507.329 180.99 482.539 172.55 467.572 161.375C461.881 157.233 457.75 153.013 455.099 149.262C454.632 146.996 454.164 144.729 453.852 142.385C451.981 131.288 451.124 120.425 450.11 110.735C449.642 106.124 449.175 101.904 448.629 97.919C456.502 100.263 467.416 102.139 479.733 101.592C489.711 101.201 500.313 99.3256 511.071 96.8249C514.033 106.359 517.151 116.049 521.517 125.427C521.517 125.349 521.672 125.114 521.906 124.958C525.025 135.586 531.183 144.886 538.121 152.857C545.059 160.906 552.309 168.252 558.467 176.535L561.585 174.347C555.895 165.438 548.957 157.311 542.954 149.028C536.874 140.822 531.963 131.991 529.234 122.535L528.922 122.223C528.922 122.223 528.688 121.598 528.61 121.285C528.844 121.285 529.078 121.285 529.234 121.285C531.807 120.738 533.911 120.191 535.86 120.113C538.043 120.113 540.46 120.113 542.642 120.269C543.11 120.347 543.266 120.191 543.734 121.051C544.279 122.067 545.215 123.239 546.072 124.177C549.58 127.85 554.18 130.585 558.935 131.757C563.612 133.007 568.133 133.867 572.343 135.977V136.133C578.423 138.556 583.101 144.261 589.649 146.37C583.335 143.635 579.593 137.696 573.201 134.336C573.201 134.336 573.434 134.179 573.512 133.945C568.991 132.069 564.158 130.663 559.87 129.178C555.583 127.693 551.919 125.036 549.19 121.598C548.567 120.738 548.021 120.035 547.553 118.941C547.32 118.628 546.852 117.221 545.994 116.831C545.215 116.127 544.201 116.127 543.266 115.815C540.693 115.502 538.433 115.19 535.938 115.033C533.132 114.955 530.637 115.502 528.455 115.737C527.753 115.737 527.285 115.737 526.74 115.737C524.557 108.938 522.842 101.826 521.205 94.6368C521.906 94.4805 522.608 94.3242 523.31 94.0897C529.468 92.5268 535.704 90.8075 541.941 89.2446C547.32 88.5413 553.322 87.8379 559.948 87.2909C563.456 86.9783 567.12 86.822 570.862 86.9001C571.33 89.6353 573.045 91.5109 574.37 92.8394C577.644 95.6527 580.996 97.4501 583.802 99.5601C585.05 100.576 586.453 101.904 586.453 102.686C586.999 103.624 586.297 105.812 587.154 108.391C589.337 113.392 593.936 114.486 596.743 116.362C602.745 119.644 602.745 129.178 608.982 134.726C609.683 135.274 610.307 135.508 610.931 135.977C611.164 136.524 610.619 136.993 610.385 137.852L608.982 140.9L608.358 142.385L608.046 143.088H608.904C613.425 143.479 617.401 141.76 620.597 143.87C621.844 145.589 622.312 148.09 623.559 149.965C622.702 147.699 623.091 145.667 621.61 142.854C619.35 142.151 617.167 142.151 615.296 142.151C613.347 142.151 611.944 142.229 610.463 142.072H609.917L610.229 141.447L610.775 140.431L611.866 138.478C612.178 137.696 613.425 136.133 613.113 135.352C612.256 134.726 611.087 134.023 610.385 133.398C607.89 130.975 606.721 127.381 605.396 123.786C604.071 120.347 602.667 115.971 598.77 113.627C595.418 111.438 591.91 109.641 591.286 107.375C590.974 106.906 591.286 106.046 591.208 105.265C591.208 104.249 591.364 103.233 591.052 101.826C590.429 98.7786 588.558 97.4501 587.076 95.9653C583.958 93.3083 580.684 91.1983 578.346 88.932C577.878 88.385 577.566 87.9161 577.332 87.5253C583.958 88.3068 590.74 90.1042 597.133 93.8553C609.449 100.498 620.675 112.923 634.785 121.598C646.868 128.944 659.418 134.805 671.423 140.431C674.152 153.013 681.557 162.703 684.442 173.722C685.299 176.535 685.377 179.427 685.845 182.631C686.079 184.272 686.547 185.757 687.092 187.32C687.872 188.961 688.729 190.211 689.665 191.462C691.536 193.728 692.783 196.463 692.861 199.433C693.095 200.918 692.705 202.402 693.017 204.043C693.017 205.685 693.874 207.091 694.342 208.498C695.278 210.608 696.915 212.014 698.474 213.499C697.148 211.858 695.355 210.061 694.81 208.185C694.498 206.857 693.719 205.45 693.874 203.965C693.719 202.559 694.264 200.996 694.108 199.433C694.264 196.229 693.017 193.025 691.302 190.446C687.404 185.757 689.041 179.583 687.794 173.175C685.845 162.625 680.544 153.247 678.361 143.87C691.536 149.965 703.697 155.826 713.597 161.844C723.809 167.939 731.682 173.957 736.594 178.724C739.244 180.99 740.881 183.1 742.206 184.35C743.453 185.679 754.5 198 754.5 198C754.5 198 746.338 183.178 745.091 181.771C743.765 180.365 742.05 178.098 739.4 175.676C734.411 170.518 726.381 164.11 716.169 157.546C705.879 150.903 693.329 144.417 679.843 137.696C666.434 130.975 651.935 123.942 638.838 115.346C627.613 108.078 618.258 97.919 606.955 89.9479C608.592 90.4949 610.229 91.042 611.866 91.6672C625.898 97.0593 639.852 102.999 653.65 103.389C657.859 103.155 661.601 102.608 665.109 102.061C665.109 102.061 674.464 99.3256 677.036 100.029C679.609 100.732 682.259 100.42 684.52 100.498C686.858 100.498 688.34 101.123 689.977 102.842C692.861 106.359 696.759 111.36 701.436 113.861C706.035 116.518 710.791 118.628 715.312 121.129C719.755 123.708 723.809 127.068 726.459 131.601C724.199 126.834 720.379 123.004 716.013 120.035C711.648 117.143 707.049 114.564 702.917 111.595C698.63 108.625 696.291 104.874 693.017 100.107C692.159 98.9349 690.912 97.8408 689.431 97.0593C689.431 97.0593 692.468 96.6124 694.342 96.0434C697.744 95.0104 702.5 92 702.5 92C702.5 92 697.161 90.4596 693.641 90.2605C689.203 90.0095 689.509 90.7294 682.337 91.589C675.321 92.5268 665.109 94.3242 653.884 94.0116C643.048 92.8394 630.575 86.5876 616.777 79.7887C609.917 76.3502 602.2 73.068 593.703 70.6454C584.894 68.6918 576.319 67.5195 567.51 67.6758C549.97 67.6758 533.444 71.2706 518.554 73.7713C503.665 76.3502 490.335 77.9913 479.577 77.4443C472.717 77.1317 467.104 76.0376 462.505 74.631C461.803 70.958 461.024 66.5818 460.166 61.6585C468.819 58.4544 478.174 54.3126 487.918 49.3111C496.337 45.0912 504.834 40.8712 514.033 37.1983C523.543 33.6035 533.522 30.0087 543.968 28.2113C553.088 26.5702 562.599 25.6324 572.421 26.2576C572.499 26.4139 572.577 26.5702 572.655 26.7265C573.98 29.3835 577.254 32.0405 580.996 33.6035C583.023 34.4631 584.582 35.1664 587.232 35.8698C589.571 36.3386 591.832 36.5731 594.014 37.042C596.119 37.4327 598.224 38.5268 599.549 39.4646C600.797 40.6368 601.108 43.1375 602.122 45.8727C602.667 47.2012 603.525 48.686 604.772 49.5456L606.565 50.796C607.189 51.1085 607.968 51.2648 608.67 51.4993C611.476 52.1245 614.127 51.4993 616.387 51.1867C618.648 50.9522 620.831 50.9522 622.546 51.9682C624.261 52.9841 625.586 54.4689 626.599 56.11C628.626 59.314 629.952 62.2055 631.277 64.081C632.446 65.9566 633.537 66.7381 633.46 66.8162C633.46 66.8162 632.524 65.8784 631.511 63.9248C630.341 62.0492 629.328 59.0796 627.457 55.6411C626.599 53.9219 625.274 52.1245 623.325 50.796C621.299 49.3893 618.648 49.1549 616.232 49.3111C613.815 49.4674 611.398 49.7019 609.371 49.0767C608.904 48.8423 608.358 48.7641 607.968 48.4515L606.721 47.4356C605.864 46.8104 605.552 45.9508 605.162 44.9349C604.46 42.903 604.616 39.9334 602.511 37.1983C600.095 34.8538 597.756 33.7598 595.184 32.9783C592.767 32.275 590.429 31.8061 588.558 31.259C587.076 30.7902 584.816 29.6961 583.413 28.9146C582.321 28.3676 581.464 27.7424 580.762 27.1954C590.74 28.3676 601.264 30.3994 610.697 33.7598C621.454 37.042 631.978 43.2938 643.126 48.686C649.05 51.343 654.429 54.4689 661.211 55.8755C664.408 56.8133 667.604 57.1259 670.722 57.7511C673.84 57.9855 677.036 58.4544 680.076 58.4544C688.807 58.6889 696.915 58.22 704.476 58.22C705.178 58.9233 706.425 60.0174 708.296 61.7366C711.102 64.4718 715 68.5355 719.21 73.9277C727.941 84.6339 736.827 100.42 744.077 118.081L747.195 124.724C748.443 126.834 749.768 128.865 751.015 130.897C753.354 135.117 756.628 138.634 759.356 142.229C765.515 149.028 771.751 154.576 776.974 159.265C782.119 164.032 786.407 168.017 789.135 171.065C791.941 174.035 803 184 803 184C803 184 794.904 171.456 792.175 168.252C789.525 164.97 785.393 160.75 780.404 155.67C775.337 150.669 769.568 144.886 764.111 138.243C761.695 134.726 758.811 131.366 756.862 127.302C755.77 125.349 754.679 123.395 753.666 121.363L751.093 115.033C750.391 113.08 749.69 111.204 748.988 109.25C750.469 109.25 752.107 109.25 753.977 109.172C760.292 109.172 769.334 108.156 775.805 113.001L775.961 112.845Z" fill="#301B0D"/>
</g>
<defs>
<clipPath id="clip0_203_734">
<rect width="808" height="270" fill="white"/>
</clipPath>
</defs>
</svg>
