<svg width="23" height="27" viewBox="0 0 23 27" fill="none" xmlns="http://www.w3.org/2000/svg">
<g clip-path="url(#clip0_206_1178)">
<path d="M8.18973 26.4535L8.2893 26.4663C9.6431 26.6406 11.5028 26.1298 13.4735 25.0156C15.4289 23.91 17.4287 22.2462 19.0482 20.2156C22.2891 16.1518 23.9467 10.7167 20.8678 5.35002C19.4765 2.92538 17.2894 1.07162 14.6198 0.58743L8.18973 26.4535ZM8.18973 26.4535C7.0319 26.288 5.93142 25.8423 5.00423 25.1382C3.61358 24.0822 1.82383 22.2834 0.981139 19.6181C0.143423 16.9685 0.217527 13.3863 2.68729 8.70342C6.2648 1.92141 11.6487 0.0491234 14.6197 0.587417L8.18973 26.4535Z" fill="#C95A97" stroke="#EFB0A9"/>
</g>
<defs>
<clipPath id="clip0_206_1178">
<rect width="23" height="27" fill="white"/>
</clipPath>
</defs>
</svg>
