<svg width="1920" height="1228" viewBox="0 0 1920 1228" fill="none" xmlns="http://www.w3.org/2000/svg">
<g clip-path="url(#clip0_200_167)">
<path d="M1960.4 -105H-2.60425V889H1960.4V-105Z" fill="url(#paint0_linear_200_167)"/>
<path d="M-35.5989 1115.09L-61 1239.92L1924.41 1231.9L1976.07 1057L-31.3438 1070.62L-35.5989 1115.09Z" fill="url(#paint1_linear_200_167)"/>
<g style="mix-blend-mode:multiply" opacity="0.5">
<path d="M585.08 1103.65L592.786 1099.81L461.603 1086.97C461.603 1086.97 351.359 1089.69 350.347 1089.74C351.151 1089.74 346.248 1093.84 339.502 1101.42L55.0044 1124.77L301.958 1075.27L1576.79 1091.25L379.017 1117.64L585.08 1103.65Z" fill="#EBCE75"/>
</g>
<path d="M1509.56 1139.53L1202.7 1126.25L1146.08 1118.91L2237.08 1142.6L1509.56 1139.53Z" fill="url(#paint2_linear_200_167)"/>
<path d="M1861.96 1110.81L1196.47 1112.24L1194.99 1108.61L1967.51 1104.3L1861.96 1110.81Z" fill="url(#paint3_linear_200_167)"/>
<path d="M1497.88 1123.68L1579.77 1119.87L2121.55 1123.06L1863.8 1127.47L1497.88 1123.68Z" fill="url(#paint4_linear_200_167)"/>
<path d="M1295.92 1155.49L1108.15 1126.48L934.935 1129.29L987.995 1142.96L1295.92 1155.49Z" fill="url(#paint5_linear_200_167)"/>
<path d="M421.257 1197.78L151.134 1153.62L165.43 1149.89L73.1406 1139.69L106.429 1136.19L677.058 1173.37L421.257 1197.78Z" fill="url(#paint6_linear_200_167)"/>
<path d="M325.569 1179.91L167.169 1157.54L154.066 1158.84L257.331 1184.39L325.569 1179.91Z" fill="url(#paint7_linear_200_167)"/>
<path d="M602.153 1155.18L325.024 1144.07L325.154 1142.49L695.636 1155.54L602.153 1155.18Z" fill="url(#paint8_linear_200_167)"/>
<path d="M187.796 1133.15C191.61 1133.57 740.315 1154.48 740.315 1154.48L1149.07 1147.71L669.223 1131.52L496.345 1137.82L228.998 1131.7L187.77 1133.13L187.796 1133.15Z" fill="url(#paint9_linear_200_167)"/>
<path d="M552.258 1184.86C555.346 1183.72 767.039 1170.62 767.039 1170.62L1047.26 1179.72L751.238 1164.91L766.624 1159.49L885.56 1157.49L900.193 1169.74L940.617 1173.16L903.281 1168.02L890.204 1157.77C890.204 1157.77 1013.37 1154.63 1013.37 1155.78C1013.37 1156.92 1061.11 1184.26 1061.11 1184.26L761.123 1196.23L552.232 1184.84L552.258 1184.86Z" fill="url(#paint10_linear_200_167)"/>
<path d="M647.065 1159.02H682.481L707.389 1165.48L669.923 1166.23L647.065 1159.02Z" fill="url(#paint11_linear_200_167)"/>
<path d="M574.442 1162.06L658.118 1167.37L653.24 1163.2L642.447 1158.84L570.083 1159.02L574.442 1162.06Z" fill="url(#paint12_linear_200_167)"/>
<path d="M592.293 1244.38L531.683 1231.02L532.773 1223.24L595.562 1218.51L592.293 1244.38Z" fill="url(#paint13_linear_200_167)"/>
<path d="M679.705 1229.38L610.663 1211.02L598.416 1221.86L601.763 1241.03L683.649 1234.31L679.705 1229.38Z" fill="url(#paint14_linear_200_167)"/>
<path d="M1001.12 1191.53L804.816 1196.46L773.084 1199.88L811.458 1214.47L936.051 1211.02L1001.12 1191.53Z" fill="url(#paint15_linear_200_167)"/>
<path d="M666.784 1197.58L749.707 1198.77L807.67 1214.73L719.921 1215.24L666.784 1197.58Z" fill="url(#paint16_linear_200_167)"/>
<path d="M676.799 1220.93L985.426 1214.52L1043.42 1230.47L701.318 1249.93L676.799 1220.93Z" fill="url(#paint17_linear_200_167)"/>
<path d="M435.865 1201.13L511.653 1224.92L662.14 1199.08L556.384 1188.34L486.511 1194.98L435.865 1201.13Z" fill="url(#paint18_linear_200_167)"/>
<path d="M737.279 1168.7L743.428 1170.98L764.47 1168.7L761.902 1167.56L736.241 1167.01L737.279 1168.7Z" fill="url(#paint19_linear_200_167)"/>
<path d="M810.888 1129.8L966.823 1139.53L947.389 1135.28L920.431 1128.87L810.888 1129.8Z" fill="url(#paint20_linear_200_167)"/>
<path d="M-44.5762 1139.74C-41.2551 1139.2 76.4876 1144.7 76.4876 1144.7L151.99 1151.31L90.4725 1160.68L-6.9805 1164.55L-5.99456 1167.58C-5.99456 1167.58 95.1168 1163.72 97.1146 1163.46C99.1125 1163.17 164.289 1164.83 164.289 1164.83L203.208 1173.91L73.9968 1179.7L-19.3048 1176.66L-44.5762 1139.77V1139.74Z" fill="url(#paint21_linear_200_167)"/>
<path d="M12.7126 1184.11C14.0359 1183.56 67.251 1184.39 67.251 1184.39L172.618 1185.3L6.38184 1194.88L12.7126 1184.14V1184.11Z" fill="url(#paint22_linear_200_167)"/>
<path d="M7.96446 1211.79C18.9396 1209.93 48.8812 1203.44 48.8812 1203.44L119.714 1238.26L125.37 1237.79L62.5029 1204.81L222.148 1181.59L246.096 1187.17L254.088 1194.12L221.5 1242.88L238.806 1246.59L259.095 1191.79L311.636 1183.9L394.455 1236.83L405.768 1240.54C405.768 1240.54 318.641 1183.43 319.964 1183.43C321.288 1183.43 350.892 1182.03 350.892 1182.03L546.447 1240.07C546.447 1240.07 -21.3026 1241.03 -17.3069 1241.03C-13.3112 1241.03 7.96446 1211.79 7.96446 1211.79Z" fill="url(#paint23_linear_200_167)"/>
<path d="M623.999 1208.21L625.478 1212.86L654.797 1218.23L665.72 1210.63L663.696 1204.53L623.999 1208.21Z" fill="url(#paint24_linear_200_167)"/>
<path d="M664.994 1201.36L708.738 1214.15L708.375 1217.86L675.917 1217.11L664.994 1201.36Z" fill="url(#paint25_linear_200_167)"/>
<path d="M661.828 1220.46L664.423 1215.63L672.959 1219.34L673.893 1223.81L661.828 1220.46Z" fill="url(#paint26_linear_200_167)"/>
<g style="mix-blend-mode:multiply" opacity="0.5">
<path d="M754.585 1126.77L774.278 1126.61L774.2 1121.22L771.761 1118.39C771.761 1118.39 751.653 1123.66 751.809 1123.6C751.938 1123.58 754.559 1126.77 754.559 1126.77H754.585Z" fill="#E4C783"/>
</g>
<g style="mix-blend-mode:multiply" opacity="0.5">
<path d="M809.538 1118.78L897.677 1116.39L902.944 1114.63L895.03 1113.98C895.03 1113.98 799.887 1118.1 800.561 1118.08C801.236 1118.05 809.538 1118.8 809.538 1118.8V1118.78Z" fill="#E4C783"/>
</g>
<g style="mix-blend-mode:multiply" opacity="0.5">
<path d="M378.991 1117.66L323.078 1121.48C323.078 1121.48 323.96 1120.49 325.413 1118.86L379.017 1117.66H378.991Z" fill="#E3C683"/>
</g>
<g opacity="0.47">
<path d="M849.044 867.38L828.417 849.374L790.562 828.955L786.359 834.663L765.161 820.704L764.642 827.06L739.63 811.389L728.37 827.476L715.89 817.746L682.705 847.817L660.781 862.269L634.342 864.5L621.498 845.56L571.111 879.809L856.646 875.969L849.044 867.38Z" fill="url(#paint27_linear_200_167)"/>
<path d="M781.3 875.476L770.247 830.382L765.161 820.704L743.47 878.044L781.3 875.476Z" fill="#C9D1BB"/>
<path d="M792.716 872.933L772.919 832.276L790.562 828.955L831.505 872.673L792.716 872.933Z" fill="#C9D1BB"/>
<path d="M736.205 871.973L745.883 833.158L737.918 830.148L739.63 811.389L728.681 810.896L698.506 875.086L736.205 871.973Z" fill="#C9D1BB"/>
<path d="M571.111 879.809L593.995 849.089L621.498 845.56L615.219 876.513L571.111 879.809Z" fill="#C9D1BB"/>
<path d="M691.552 859.986L710.493 837.698L708.677 836.219L683.587 863.255L691.552 859.986Z" fill="#C9D1BB"/>
<path d="M695.496 863.826L625.468 878.797L693.55 874.334L695.496 863.826Z" fill="#C9D1BB"/>
<path d="M715.89 817.746C715.89 818.446 679.072 863.722 679.072 863.722L649.312 868.859L665.84 844.003L685.299 841.253L708.443 819.614L715.89 817.72V817.746Z" fill="#C9D1BB"/>
<path d="M1977.49 844.185L1784.89 825.841L1746.44 810.792L1669.22 820.937L1661.85 789.076L1619.2 802.412L1596.83 793.201L1414.22 830.433L1420.87 840.708C1420.87 840.708 1385.4 852.799 1385.45 851.528C1385.5 850.256 1330.39 790.814 1330.39 790.814L1297.44 789.932L1318.85 743.748L1235.17 775.739L1189.66 765.517L946.835 852.384L893.542 860.557L892.867 868.107L833.607 872.077L2098.76 878.667L1977.51 844.185H1977.49Z" fill="url(#paint28_linear_200_167)"/>
<path d="M1492.24 868.029L1630.15 815.774L1661.85 789.076L1356.57 869.742L1492.24 868.029Z" fill="#A29A91"/>
<path d="M1456.52 836.92L1597.84 803.19L1596.83 793.227L1414.25 830.459L1456.52 836.92Z" fill="#A29A91"/>
<path d="M1452.37 843.406L1420.87 840.734L1282.03 871.298L1344.35 868.6L1452.37 843.406Z" fill="#A29A91"/>
<path d="M1543.75 864.76L1632.85 820.496L1746.44 810.792L1701.42 866.343L1543.75 864.76Z" fill="#A29A91"/>
<path d="M1108.69 867.873L1250.84 800.336L1231.33 794.005L1318.85 743.748L1271.26 744.163L1003.79 870.26L1108.69 867.873Z" fill="#A29A91"/>
<path d="M1153.99 868.055L1241.24 812.038L1255.75 813.05L1204.32 873.037L1153.99 868.055Z" fill="#A29A91"/>
<path d="M1008.79 849.53L1110.22 811.519L1107.88 808.639L982.951 854.018L1008.79 849.53Z" fill="#A29A91"/>
<path d="M1013.18 855.134L835.085 871.558L992.603 869.093L1013.18 855.134Z" fill="#A29A91"/>
<path d="M1189.64 765.543C1187.04 767.411 970.757 854.589 970.757 854.589L893.516 860.557L962.688 824.155L1023.14 818.965L1154.25 771.277L1189.64 765.517V765.543Z" fill="#A29A91"/>
<path d="M1823.42 829.915L1750.54 869.768L1722.18 875.32L1784.89 825.841L1823.42 829.915Z" fill="#C9D1BB"/>
<path d="M1854.55 813.024L1764.44 869.223L1935.76 849.737L1936.13 840.475L1854.55 813.024Z" fill="#C9D1BB"/>
<path d="M1902.4 854.745L1843.42 875.32L1924.09 873.659L1902.4 854.745Z" fill="#C9D1BB"/>
</g>
<path style="mix-blend-mode:screen" opacity="0.46" d="M1986.82 869.508L-90.6227 879.29L-91.3232 765.439L1986.09 755.657L1986.82 869.508Z" fill="url(#paint29_linear_200_167)"/>
<path d="M1971.72 990.053L1392.53 983.229L922.8 992.414L912.759 977.391L978.272 971.969L637.576 986.031L634.515 986.161L513.114 973.655L334.035 971.787L310.787 971.553L371.423 977.78L371.708 977.806L371.682 977.832L371.475 978.17L370.852 979.182L365.014 988.678L-63.4054 1003.26L-75.0811 944.855L-29.027 944.829L-10.5794 944.803L74.8346 944.751L162.688 944.673L516.902 944.44L625.823 944.362L1085.48 944.025L1253.09 950.589L1254.75 950.667L1263.65 951.004L1963.36 972.539L1965.54 977.106L1971.72 990.053Z" fill="#A07525"/>
<path style="mix-blend-mode:multiply" opacity="0.2" fill-rule="evenodd" clip-rule="evenodd" d="M637.576 986.031L634.515 986.161L513.114 973.655L334.009 971.813L310.787 971.579L371.423 977.806H371.682V977.858L371.475 978.196L370.852 979.208C362.082 978.896 353.287 978.559 344.439 978.222C176.88 971.969 -0.460484 964.963 -2.22481 963.225C-4.92319 960.526 -9.07454 949.084 -10.5794 944.803C-10.9426 943.791 -11.1243 943.195 -11.1243 943.195L74.8347 944.751L236.011 947.683L348.513 949.733L632.984 954.896L635.527 972.15L637.576 986.057V986.031Z" fill="url(#paint30_linear_200_167)"/>
<path d="M2080.27 976.924L2038.45 977.002L1965.54 977.106L912.759 977.391L1248.47 951.134L1254.75 950.667L1257.63 950.433L1253.09 950.589L1226.45 951.549L649.667 972.098L635.526 972.124H634.67L235.284 955.986L334.035 971.787L371.423 977.78L371.682 977.832L373.784 978.17H371.475L357.1 978.196H344.439L-41.7146 978.766L-29.027 944.829L-20.906 923.138L-17.5849 914.291L-16.2616 910.762L-14.6789 901.759L-13.8487 897.037L-12.0065 886.529L225.321 887.307L609.373 888.552L626.731 888.604L676.91 888.76L700.677 888.838L811.518 889.201L829.81 889.279H832.067L837.36 889.305L880.664 889.435L884.737 889.461H885.308H887.539L906.169 889.512H908.53L910.138 889.538L969.944 889.72L1036.31 889.953L1078.81 890.083H1081.62L1090.38 890.109L1099.28 890.135L1406.25 891.147L1564.21 891.666L1621.97 891.848H1622.38H1623.81L1627.36 891.873L1641.17 891.899L1987.41 893.456L2022.99 893.56L2035.7 912.059L2038.45 916.081L2080.27 976.924Z" fill="url(#paint31_linear_200_167)"/>
<path d="M1991.8 872.596L1991.67 873.192L1987.41 893.456L1983.57 911.722L1974.03 957.231L1959.44 956.816L1537.46 948.669L1510.84 947.891L1119.63 936.578L1113.68 936.397H1113.55L988.521 932.764H988.495L685.836 923.995L616.586 916.911L-14.6789 901.759L-113.429 899.398L-73.8357 888.085L-57.2043 883.311L-21.7362 873.166L-21.5027 873.115H-21.4768L-16.2876 871.61L1991.8 872.596Z" fill="url(#paint32_linear_200_167)"/>
<g style="mix-blend-mode:screen" opacity="0.5">
<path d="M2070.93 913.957L2039.14 913.749L2036.39 913.723L1984.27 913.386L1116.5 907.678L1089.47 907.496L1086.1 907.47H1085.99L1076.6 907.392L1045.28 907.185L1040.64 907.159L1032.18 907.107L1025.77 907.055L1022.5 907.029L1025.59 906.977L1028.7 906.925L1033.01 906.848L1040.51 906.692L1077.04 906.017L1085.78 905.862H1086.1L1088.74 905.81L1116.4 905.317L1462.39 898.96L1525.07 897.792L1565.39 897.066L1622.42 896.028L1623.36 896.002L1624.27 895.976L1628.37 895.898L1638.56 895.717L1628.31 895.587L1624.29 895.535H1623.31H1622.48L1565.06 894.809L1406.94 892.811L1080.85 888.711L1079.61 888.685L1036.49 888.141L903.981 886.48L888.154 886.272L886.727 886.247H885.274L882.238 886.195L837.092 885.65L832.915 885.572L827.051 885.52L817.191 885.39L678.977 883.652L667.976 883.496L633.261 883.081L616.032 882.848L-21.0443 874.83L-26 874.778H-20.7849L623.297 874.467L663.358 874.441L816.984 874.363H818.592H833.563H836.158L883.509 874.337H884.34L1567.47 874H1604.39L1992.36 874.856L2039.14 874.83H2059.43L2070.93 913.957Z" fill="#C09E6E"/>
</g>
<path d="M2051.89 1016.54L2051.06 1017.06L2050.2 1017.58L2041.46 1023L2038.45 1022.98L1506.3 1017.35L1493.46 1006.58L2038.45 1016.23L2046.42 1016.41L2051.89 1016.54Z" fill="url(#paint33_linear_200_167)"/>
<path d="M2055.7 1017.74L2050.2 1017.61L2038.45 1017.3L1493.43 1006.61L1591.79 998.849L1632.4 995.657C1658.03 995.45 1687.14 996.773 1716.18 998.849C1775.95 1003.13 2010.01 1011.56 2038.45 1015.38C2041.46 1015.79 2044.13 1016.15 2046.39 1016.47C2048.18 1016.7 2049.71 1016.93 2051.01 1017.11C2054.02 1017.53 2055.65 1017.79 2055.65 1017.79L2055.7 1017.74Z" fill="url(#paint34_linear_200_167)"/>
<g style="mix-blend-mode:screen" opacity="0.5">
<path d="M579.587 892.289C579.587 892.289 458.886 902.018 325.395 900.903C195.535 899.813 21.4897 888.215 12.0713 887.592L275.89 907.026L19.4659 902.018L-13.8487 897.037L-73.8357 888.059L-110.679 882.559L-57.2044 883.311L225.321 887.307L579.587 892.289Z" fill="#FFB92C"/>
</g>
<path style="mix-blend-mode:multiply" opacity="0.54" d="M941.144 934.01L1237.34 926.226L1319.93 922.619L1083.53 908.142L1019.58 904.82L1097.99 907.026L1355.53 920.933L1240.12 930.118L1122.48 936.526L941.144 934.01Z" fill="url(#paint35_linear_200_167)"/>
<g style="mix-blend-mode:screen" opacity="0.3">
<path d="M-17.5848 914.291C49.0184 915.77 196.288 919.013 375.003 922.931L516.902 944.414L541.758 948.176C541.758 948.176 455.877 950.485 348.512 949.707C312.603 949.448 274.307 948.825 236.011 947.657C211.362 946.905 186.714 945.919 162.714 944.673C93.9827 941.067 30.5449 935.151 -12.4994 925.655C-12.4994 925.655 -15.9243 924.591 -20.88 923.112C-32.6854 919.584 -53.0789 913.538 -55.8032 913.409C-54.5838 913.435 -41.0919 913.746 -17.5589 914.265L-17.5848 914.291Z" fill="#E1C482"/>
</g>
<path style="mix-blend-mode:screen" opacity="0.3" d="M2038.45 873.166V976.976L1965.54 977.08L1971.72 990.027L1392.53 983.203L922.8 992.388L912.785 977.365L978.272 971.943L637.576 986.005L634.515 986.135L513.113 973.629L334.009 971.787L371.423 977.78H371.682V977.832L373.784 978.17H371.475L370.852 979.182L365.014 988.652L-63.4314 1003.26L-75.1071 944.855H-29.0271L-20.906 923.138C-32.7114 919.61 -53.1049 913.564 -55.8293 913.435C-54.6098 913.46 -41.1179 913.772 -17.5849 914.291L-16.2617 910.762L-14.679 901.759L-113.403 899.398L-73.8358 888.085L-110.679 882.585L-57.2044 883.337L-21.7363 873.192L-26.692 873.14H-21.4768L-16.2877 871.636H623.695C631.738 862.866 640.482 854.797 645.697 854.382C682.255 851.605 763.206 847.61 805.109 862.736C808.482 863.956 811.881 866.55 815.098 869.768C815.695 870.364 816.318 870.987 816.888 871.636H832.923C833.468 865.201 834.298 859.597 835.596 858.818C838.813 856.846 879.963 865.642 882.506 868.574C882.662 868.756 882.817 869.067 882.947 869.456C883.129 870.001 883.31 870.753 883.466 871.636H1567.17C1568.39 869.534 1570.02 867.666 1572.2 866.213C1578.35 862.113 1591.37 866.472 1602.22 871.636L1991.8 872.622L1991.67 873.244H2038.45V873.166Z" fill="url(#paint36_linear_200_167)"/>
<path style="mix-blend-mode:screen" opacity="0.4" d="M1596.75 1184.02C1963.15 1184.02 2260.18 1111.96 2260.18 1023.06C2260.18 934.156 1963.15 862.088 1596.75 862.088C1230.34 862.088 933.308 934.156 933.308 1023.06C933.308 1111.96 1230.34 1184.02 1596.75 1184.02Z" fill="url(#paint37_radial_200_167)"/>
<path fill-rule="evenodd" clip-rule="evenodd" d="M486 1051.21L484.573 1067.19C484.573 1067.19 468.435 1069.03 449.157 1070.67C435.016 1071.89 418.956 1073 407.098 1073.13C406.943 1073.13 406.761 1073.13 406.554 1073.13C394.022 1073.29 377.209 1073.03 360.655 1072.67C347.008 1072.35 333.645 1071.96 323.682 1071.65C315.146 1071.39 309.127 1071.16 307.57 1071.11C307.44 1071.11 307.31 1071.11 307.181 1071.11L305.079 1064.44H305.027C305.027 1064.44 304.871 1064.44 304.742 1064.47C301.265 1064.86 272.18 1068.07 265.278 1068.33C263.228 1068.41 255.315 1068.38 244.547 1068.33C213.723 1068.12 146.783 1069.14 146.783 1069.14L142.579 1064.08L124.417 1063.79L61.0573 1062.81L-35.7211 1061.56L-108.707 1060.63L-108.032 1013.12H-107.981L-13.9784 1016.26L79.946 1019.4L277.81 1034.91L284.011 1035.41L304.249 1036.99L355.258 1040.99H355.31L367.038 1037.43L367.22 1037.38L370.048 1042.15L372.772 1042.36H372.798L396.824 1044.25L398.095 1044.36L399.263 1044.44L413.922 1045.58L417.114 1045.84L444.798 1044.59L445.81 1045.08L453.178 1048.67L486.026 1051.23L486 1051.21Z" fill="url(#paint38_linear_200_167)"/>
<g style="mix-blend-mode:multiply" opacity="0.5">
<path fill-rule="evenodd" clip-rule="evenodd" d="M139.985 1036.44L146.757 1069.14L142.554 1064.08L124.391 1063.79L61.0314 1062.81L43.7773 1022.98L48.266 1023.11C48.266 1023.11 55.5309 1055.67 71.6173 1058.97C87.0033 1062.13 96.3957 1061.66 96.3957 1061.66L94.5276 1027.91L104.595 1028.19C104.595 1028.19 116.66 1060.39 119.851 1061.22C122.99 1062.05 123.12 1060.65 123.12 1060.65L116.841 1026.07L156.616 1031.64L160.015 1036.08L140.011 1036.42L139.985 1036.44Z" fill="#9D8343"/>
</g>
<g style="mix-blend-mode:multiply" opacity="0.5">
<path fill-rule="evenodd" clip-rule="evenodd" d="M250.073 1033.43C267.976 1034.91 267.198 1042.88 267.198 1042.88L265.226 1068.33L305.053 1064.44L305.157 1043.76L303.548 1040.21L294.415 1041.5C294.415 1041.5 299.059 1060.7 298.385 1062.26C297.736 1063.82 271.427 1066.46 269.896 1065.19C268.365 1063.9 271.297 1034.63 271.297 1034.63L250.021 1033.46L250.073 1033.43Z" fill="#9D8343"/>
</g>
<g style="mix-blend-mode:multiply" opacity="0.5">
<path fill-rule="evenodd" clip-rule="evenodd" d="M453.879 1044.67L453.152 1048.64L452.945 1049.86L449.157 1070.69C435.016 1071.91 418.956 1073.03 407.098 1073.16C406.943 1073.16 406.761 1073.16 406.553 1073.16C392.724 1073.26 324.798 1071.52 307.57 1071.11C307.44 1071.11 307.31 1071.11 307.18 1071.11L358.865 1069.94L358.994 1066.72L355.933 1045.86L355.206 1040.99L354.947 1039.25L366.96 1037.43H367.142L367.531 1041.97L367.92 1046.38L369.996 1070.28C369.996 1070.28 376.197 1072.02 376.897 1070.41C377.39 1069.27 373.55 1055.13 371.163 1046.54C370.67 1044.8 370.255 1043.32 369.944 1042.18C369.58 1040.86 369.347 1040.08 369.347 1040.08L372.071 1040.23C372.071 1040.23 372.305 1041.09 372.694 1042.41C373.031 1043.58 373.498 1045.08 373.965 1046.67C375.159 1050.56 376.586 1054.94 377.209 1055.96C378.791 1058.47 394.359 1061.33 397.343 1060.78C399.263 1060.44 398.873 1052.89 398.354 1047.68C398.225 1046.41 398.095 1045.27 397.991 1044.41C397.991 1044.36 397.991 1044.31 397.991 1044.25C397.887 1043.32 396.538 1042.8 396.538 1042.8L399.159 1043.14C399.159 1043.14 399.159 1043.63 399.159 1044.49C399.159 1045.29 399.211 1046.41 399.237 1047.71C399.47 1055.33 400.223 1069.81 402.558 1070.87C405.697 1072.28 417.373 1071.63 417.373 1071.63L414.207 1048.33L413.844 1045.63L413.637 1044.07L416.672 1044.23L417.036 1045.89L417.606 1048.46L422.614 1071.37L436.754 1070.1C446.329 1069.24 446.718 1056.42 446.173 1049.16C446.173 1048.82 446.121 1048.48 446.095 1048.17C445.991 1046.87 445.836 1045.84 445.758 1045.14C445.68 1044.59 445.628 1044.28 445.628 1044.28L453.853 1044.72L453.879 1044.67Z" fill="#9D8343"/>
</g>
<path fill-rule="evenodd" clip-rule="evenodd" d="M486 1051.21L452.945 1049.83L450.843 1049.75L452.815 1049.34L446.225 1049.08H445.965L446.069 1049.55L417.658 1048.38L414.259 1048.25L399.289 1047.63H398.406L374.017 1046.59L371.215 1046.49L367.946 1046.36C367.894 1046.02 356.089 1045.86 356.089 1045.86H355.933L305.935 1043.79H305.183L304.171 1041.56L303.574 1040.21C303.574 1040.21 303.574 1040.21 303.522 1040.21C303.522 1040.21 303.522 1040.21 303.496 1040.21C303.496 1040.21 303.496 1040.21 303.47 1040.21C303.47 1040.21 303.418 1040.21 303.392 1040.21C303.341 1040.21 303.315 1040.21 303.237 1040.21C302.692 1040.26 301.576 1040.36 299.942 1040.49C299.786 1040.49 299.63 1040.52 299.475 1040.54C298.177 1040.65 296.595 1040.78 294.778 1040.93C294.571 1040.93 294.337 1040.96 294.104 1040.99C292.703 1041.09 291.198 1041.22 289.589 1041.35C289.33 1041.35 289.044 1041.4 288.759 1041.4C288.499 1041.4 288.214 1041.45 287.929 1041.45C287.384 1041.5 286.787 1041.53 286.216 1041.58C286.164 1041.58 286.138 1041.58 286.086 1041.58C285.593 1041.61 285.075 1041.66 284.556 1041.69C284.296 1041.69 284.037 1041.71 283.777 1041.74C283.258 1041.76 282.739 1041.82 282.195 1041.84C281.39 1041.89 280.586 1041.95 279.756 1042.02C279.444 1042.02 279.133 1042.07 278.822 1042.07C278.017 1042.13 277.213 1042.18 276.409 1042.23C275.89 1042.26 275.397 1042.31 274.878 1042.33C274.54 1042.33 274.177 1042.39 273.84 1042.41C272.958 1042.46 272.102 1042.52 271.219 1042.57C271.012 1042.57 270.83 1042.57 270.623 1042.59C270.519 1042.59 270.441 1042.59 270.337 1042.59C270.052 1042.59 269.741 1042.62 269.455 1042.65C268.703 1042.7 267.976 1042.72 267.224 1042.78C266.679 1042.8 266.16 1042.83 265.615 1042.85C264.422 1042.91 263.202 1042.98 261.983 1043.03C261.178 1043.09 260.374 1043.11 259.596 1043.14C259.103 1043.14 258.61 1043.19 258.117 1043.22C257.805 1043.22 257.52 1043.24 257.209 1043.27C256.716 1043.27 256.197 1043.32 255.704 1043.32C254.977 1043.35 254.251 1043.37 253.498 1043.4C250.852 1043.48 248.257 1043.55 245.766 1043.61C225.788 1043.94 176.75 1039.71 153.113 1037.56C153.01 1037.56 152.906 1037.56 152.802 1037.53C152.465 1037.51 152.128 1037.46 151.79 1037.43C151.66 1037.43 151.531 1037.4 151.401 1037.4C150.078 1037.27 148.858 1037.17 147.743 1037.07C147.302 1037.02 146.886 1036.99 146.497 1036.96C146.316 1036.96 146.134 1036.94 145.978 1036.91C145.875 1036.91 145.771 1036.89 145.641 1036.89C145.33 1036.86 145.018 1036.83 144.733 1036.81C144.448 1036.78 144.162 1036.76 143.903 1036.73C143.669 1036.73 143.436 1036.68 143.228 1036.68C143.072 1036.68 142.943 1036.65 142.787 1036.63C142.553 1036.63 142.346 1036.57 142.138 1036.57C140.711 1036.44 139.959 1036.37 139.959 1036.37L154.463 1034.6C154.463 1034.6 154.463 1034.6 154.411 1034.6C153.425 1034.55 139.44 1033.75 117.931 1032.37C114.143 1032.14 110.095 1031.88 105.866 1031.59C102.259 1031.36 98.5232 1031.13 94.6573 1030.87C80.9319 1029.96 65.5978 1028.92 49.4854 1027.78C48.24 1027.67 46.9686 1027.6 45.7232 1027.52C16.0929 1025.39 -15.9503 1022.9 -45.3211 1020.28C-53.1568 1019.58 -60.7849 1018.85 -68.1276 1018.15H-68.2314C-76.8454 1017.3 -84.8368 1016.47 -92.1016 1015.64C-100.249 1014.7 -105.438 1013.85 -108.058 1013.07C-108.058 1013.07 -108.058 1013.07 -108.084 1013.07H-108.136C-117.399 1010.29 -113.248 1004.06 -103.44 996.929C-92.4649 988.938 -74.4065 979.83 -60.2141 973.162C-48.2789 967.558 -39.0681 963.692 -39.0681 963.692L-7.69949 963.536H-7.54381L35.0075 963.329L43.1286 963.51H43.4659L47.1243 963.588L50.1859 963.666L61.1611 963.9L74.2897 964.185L85.187 964.419L134.303 975.861L137.857 976.691L143.513 978.014L147.483 978.948L267.639 1006.97L269.325 1007.36L278.147 1009.41L281.468 1010.19L284.296 1010.84L303.029 1015.19L310.086 1016.83L323.008 1019.84L334.943 1020.95L430.45 1029.88L449.26 1031.64L449.338 1031.7L458.004 1037.79L479.072 1044.57L482.783 1048.15L485.922 1051.16L486 1051.21Z" fill="url(#paint39_linear_200_167)" fill-opacity="0.99"/>
<g style="mix-blend-mode:multiply" opacity="0.4">
<path fill-rule="evenodd" clip-rule="evenodd" d="M58.6183 973.162L56.2832 976.38L36.5124 1003.23H36.227L-44.8801 1002.04L-103.44 996.955L-137.792 993.971L-90.7006 973.162H58.6183Z" fill="#54193B"/>
</g>
<path fill-rule="evenodd" clip-rule="evenodd" d="M152.776 954.845L151.271 960.656L147.509 979L146.938 981.828L132.071 983.307L79.4789 988.522V988.548L65.5978 993.296L62.5102 994.36L61.1351 994.827L36.5643 1003.23L36.4864 1003.26L36.227 1003.23L28.3394 1002.17L17.8313 1000.74L16.1967 1000.54L9.39886 999.601L8.15345 999.446H8.1275L-9.10061 997.136L-15.3536 996.28H-16.2098L-16.4952 996.073L-16.5471 996.021L-19.1936 994.075L-19.2974 993.997L-11.3579 973.162L-7.69952 963.562L-4.84547 956.038L47.5394 951.835L70.9426 950.797L98.627 949.552L135.6 947.891L152.776 954.845Z" fill="url(#paint40_linear_200_167)" fill-opacity="0.53"/>
<path fill-rule="evenodd" clip-rule="evenodd" d="M152.776 954.845L151.245 960.656L147.509 979L146.938 981.854L132.097 983.333L79.5049 988.574H79.479H79.4271L39.1849 1002.38L36.5903 1003.29H36.5125V1003.31H36.253V1003.29L28.3914 1002.22L16.2487 1000.59L9.45084 999.653L8.20544 999.497L-8.99673 997.162L-15.2756 996.332L-16.4173 996.125L-19.4789 995.58L-19.7124 995.346L-19.2194 994.049L-11.3059 973.214L-7.64754 963.588L-4.79348 956.09H-4.66375L-4.30051 956.142L28.2876 958.866L44.0368 960.189L44.7373 960.241H44.8671L48.1362 960.527L50.2638 960.708L57.4249 961.305C57.4249 961.305 58.5665 961.461 60.746 961.668C62.0692 961.798 63.7557 961.928 65.8314 962.057C66.506 962.109 67.2325 962.135 67.9849 962.187C68.4519 962.187 68.9709 962.239 69.4638 962.265C70.5795 962.317 71.7471 962.369 72.9925 962.395C73.0444 962.395 73.0703 962.395 73.1222 962.395C73.5892 962.395 74.0563 962.395 74.5233 962.421C82.7741 962.602 93.7233 962.473 106.904 961.435C134.822 959.229 138.688 958.633 138.921 958.607L133.421 956.868L139.362 956.246L144.707 955.701L152.776 954.87V954.845Z" fill="url(#paint41_linear_200_167)"/>
<g style="mix-blend-mode:multiply" opacity="0.5">
<path fill-rule="evenodd" clip-rule="evenodd" d="M151.271 960.656L146.938 981.828L132.097 983.307C134.199 977.184 138.947 958.555 138.947 958.555L133.42 956.816L144.707 955.675C144.707 955.675 136.845 980.297 136.482 980.868C136.119 981.439 142.527 981.802 142.761 981.776C142.994 981.75 145.226 968.855 145.226 968.855L140.581 967.117C140.789 967.169 144.966 968.336 145.278 968.336C145.589 968.336 147.82 967.584 148.184 967.35C148.521 967.091 151.297 960.682 151.297 960.682L151.271 960.656Z" fill="#BE4A54"/>
</g>
<g style="mix-blend-mode:multiply" opacity="0.5">
<path fill-rule="evenodd" clip-rule="evenodd" d="M79.5049 988.341V988.522L62.5362 994.334L36.5903 1003.21H36.5125C37.4465 1002.14 64.8195 970.282 60.746 961.59C63.3925 961.824 67.5697 962.135 73.1481 962.291C78.6487 970.334 79.2714 985.694 79.5049 988.315V988.341Z" fill="#BE4A54"/>
</g>
<g style="mix-blend-mode:multiply" opacity="0.5">
<path fill-rule="evenodd" clip-rule="evenodd" d="M28.3395 1002.17L16.1968 1000.54C16.1968 1000.54 43.2584 967.195 43.8811 962.317C43.9849 961.513 44.0368 960.786 44.0368 960.163L44.867 960.241C43.8811 963.822 20.4 997.993 21.0227 999.212C21.9049 1000.95 25.5633 999.497 27.2238 996.747C28.2616 995.009 48.9925 963.251 48.1362 960.501L50.2638 960.682C52.8325 966.78 28.3395 1002.2 28.3395 1002.2V1002.17Z" fill="#BE4A54"/>
</g>
<g style="mix-blend-mode:multiply" opacity="0.51">
<path fill-rule="evenodd" clip-rule="evenodd" d="M307.18 1071.11L305.079 1064.44H305.027C303.652 1064.6 272.465 1068.07 265.252 1068.33C263.202 1068.41 255.289 1068.38 244.521 1068.33C250.281 1067.76 255.263 1067.03 256.378 1066.18C258.298 1064.67 257.753 1051.75 257.183 1043.37C279.548 1042.44 303.574 1040.21 303.574 1040.21L305.183 1043.76L307.18 1071.11Z" fill="#9D8343"/>
</g>
<g style="mix-blend-mode:multiply" opacity="0.5">
<path fill-rule="evenodd" clip-rule="evenodd" d="M79.5049 988.522H79.4789L62.5103 994.36L36.6162 1003.26H36.5643H36.5124L28.4692 1002.2L16.3524 1000.56L8.28325 999.472L-8.91891 997.162L-15.1719 996.332L-19.4011 995.58L-19.6086 995.346L-4.66378 956.09L28.4433 958.866L44.1924 960.189L45.0227 960.267L48.2919 960.553L50.4195 960.734L57.5806 961.331C57.5806 961.331 58.6962 961.487 60.9016 961.694C63.5222 961.928 67.6476 962.239 73.1481 962.395C78.6487 970.464 79.2714 985.798 79.5049 988.419C79.5049 988.47 79.5049 988.548 79.5049 988.6V988.522Z" fill="#9D8343"/>
</g>
<g style="mix-blend-mode:multiply" opacity="0.5">
<path fill-rule="evenodd" clip-rule="evenodd" d="M307.18 1071.11L-30.4542 1084.47L-35.7472 1061.56L-45.2953 1020.31L-45.3472 1020.1L45.3858 1026.71L49.2777 1027L94.6572 1030.32L105.684 1031.13L117.879 1032.01L154.489 1034.68H154.437L139.985 1036.47C139.985 1036.47 140.763 1036.55 142.164 1036.68C142.372 1036.68 142.579 1036.73 142.813 1036.73C142.943 1036.73 143.098 1036.76 143.254 1036.78C143.462 1036.78 143.695 1036.83 143.929 1036.83C144.188 1036.86 144.473 1036.89 144.759 1036.91C145.044 1036.94 145.356 1036.96 145.667 1036.99C145.771 1036.99 145.874 1036.99 146.004 1037.02C146.186 1037.02 146.341 1037.04 146.523 1037.07C146.912 1037.09 147.327 1037.15 147.769 1037.17C148.884 1037.27 150.104 1037.38 151.427 1037.51C151.557 1037.51 151.686 1037.51 151.816 1037.53C152.153 1037.56 152.491 1037.59 152.828 1037.64C152.932 1037.64 153.036 1037.64 153.139 1037.66C173.663 1039.53 213.334 1042.93 235.881 1043.5C241.667 1043.66 247.634 1043.63 253.498 1043.5C254.744 1043.48 255.989 1043.45 257.209 1043.4C260.607 1043.29 263.954 1043.16 267.224 1043.01C268.365 1042.96 269.507 1042.91 270.623 1042.83C287.487 1041.92 300.953 1040.49 303.263 1040.23C303.314 1040.23 303.366 1040.23 303.418 1040.23C303.444 1040.23 303.47 1040.23 303.496 1040.23C303.496 1040.23 303.496 1040.23 303.522 1040.23H303.574H303.626L305.987 1043.81L306.143 1044.07L307.206 1071.13L307.18 1071.11Z" fill="#9D8343"/>
</g>
</g>
<defs>
<linearGradient id="paint0_linear_200_167" x1="908" y1="58.5" x2="965.932" y2="1056.84" gradientUnits="userSpaceOnUse">
<stop stop-color="#628EB7"/>
<stop offset="0.190625" stop-color="#6F88A1"/>
<stop offset="0.388542" stop-color="#98A9B5"/>
<stop offset="0.6125" stop-color="#C7D1D9"/>
</linearGradient>
<linearGradient id="paint1_linear_200_167" x1="962.23" y1="1242.38" x2="947.83" y2="954.046" gradientUnits="userSpaceOnUse">
<stop stop-color="#F3E1B9"/>
<stop offset="1" stop-color="#E6D7AE"/>
</linearGradient>
<linearGradient id="paint2_linear_200_167" x1="1698.32" y1="1370.18" x2="1618.54" y2="473.734" gradientUnits="userSpaceOnUse">
<stop stop-color="#E2C683"/>
<stop offset="0.43" stop-color="#EBDBB3"/>
<stop offset="0.99" stop-color="#E3C783"/>
</linearGradient>
<linearGradient id="paint3_linear_200_167" x1="1586.02" y1="1188.52" x2="1573.29" y2="886.221" gradientUnits="userSpaceOnUse">
<stop stop-color="#E2C683"/>
<stop offset="0.43" stop-color="#EBDBB3"/>
<stop offset="0.99" stop-color="#E3C783"/>
</linearGradient>
<linearGradient id="paint4_linear_200_167" x1="1813.57" y1="1200.51" x2="1799.12" y2="911.262" gradientUnits="userSpaceOnUse">
<stop stop-color="#E2C683"/>
<stop offset="0.43" stop-color="#EBDBB3"/>
<stop offset="0.99" stop-color="#E3C783"/>
</linearGradient>
<linearGradient id="paint5_linear_200_167" x1="1117.66" y1="1434.18" x2="788.894" y2="436.039" gradientUnits="userSpaceOnUse">
<stop stop-color="#E2C683"/>
<stop offset="0.43" stop-color="#EBDBB3"/>
<stop offset="0.99" stop-color="#E3C783"/>
</linearGradient>
<linearGradient id="paint6_linear_200_167" x1="378.831" y1="1789.56" x2="-457.254" y2="-210.329" gradientUnits="userSpaceOnUse">
<stop stop-color="#E2C683"/>
<stop offset="0.43" stop-color="#EBDBB3"/>
<stop offset="0.99" stop-color="#E3C783"/>
</linearGradient>
<linearGradient id="paint7_linear_200_167" x1="240.877" y1="1442.4" x2="-224.731" y2="716.941" gradientUnits="userSpaceOnUse">
<stop stop-color="#E2C683"/>
<stop offset="0.43" stop-color="#EBDBB3"/>
<stop offset="0.99" stop-color="#E3C783"/>
</linearGradient>
<linearGradient id="paint8_linear_200_167" x1="512.62" y1="1280.93" x2="442.234" y2="793.294" gradientUnits="userSpaceOnUse">
<stop stop-color="#E2C683"/>
<stop offset="0.43" stop-color="#EBDBB3"/>
<stop offset="0.99" stop-color="#E3C783"/>
</linearGradient>
<linearGradient id="paint9_linear_200_167" x1="674.357" y1="1375.09" x2="589.418" y2="507.564" gradientUnits="userSpaceOnUse">
<stop stop-color="#E2C683"/>
<stop offset="0.43" stop-color="#EBDBB3"/>
<stop offset="0.99" stop-color="#E3C783"/>
</linearGradient>
<linearGradient id="paint10_linear_200_167" x1="809.815" y1="1587.25" x2="350.281" y2="185.5" gradientUnits="userSpaceOnUse">
<stop stop-color="#E2C683"/>
<stop offset="0.43" stop-color="#EBDBB3"/>
<stop offset="0.99" stop-color="#E3C783"/>
</linearGradient>
<linearGradient id="paint11_linear_200_167" x1="677.6" y1="1235.53" x2="568.876" y2="1013.7" gradientUnits="userSpaceOnUse">
<stop stop-color="#E2C683"/>
<stop offset="0.43" stop-color="#EBDBB3"/>
<stop offset="0.99" stop-color="#E3C783"/>
</linearGradient>
<linearGradient id="paint12_linear_200_167" x1="614.645" y1="1249.39" x2="502.89" y2="968.207" gradientUnits="userSpaceOnUse">
<stop stop-color="#E2C683"/>
<stop offset="0.43" stop-color="#EBDBB3"/>
<stop offset="0.99" stop-color="#E3C783"/>
</linearGradient>
<linearGradient id="paint13_linear_200_167" x1="564.017" y1="1492.91" x2="127.884" y2="1230.16" gradientUnits="userSpaceOnUse">
<stop stop-color="#E2C683"/>
<stop offset="0.43" stop-color="#EBDBB3"/>
<stop offset="0.99" stop-color="#E3C783"/>
</linearGradient>
<linearGradient id="paint14_linear_200_167" x1="641.559" y1="1529.45" x2="105.586" y2="1158.19" gradientUnits="userSpaceOnUse">
<stop stop-color="#E2C683"/>
<stop offset="0.43" stop-color="#EBDBB3"/>
<stop offset="0.99" stop-color="#E3C783"/>
</linearGradient>
<linearGradient id="paint15_linear_200_167" x1="888.513" y1="1434.83" x2="580.234" y2="687.07" gradientUnits="userSpaceOnUse">
<stop stop-color="#E2C683"/>
<stop offset="0.43" stop-color="#EBDBB3"/>
<stop offset="0.99" stop-color="#E3C783"/>
</linearGradient>
<linearGradient id="paint16_linear_200_167" x1="738.098" y1="1385" x2="464.06" y2="851.923" gradientUnits="userSpaceOnUse">
<stop stop-color="#E2C683"/>
<stop offset="0.43" stop-color="#EBDBB3"/>
<stop offset="0.99" stop-color="#E3C783"/>
</linearGradient>
<linearGradient id="paint17_linear_200_167" x1="862.372" y1="1590.2" x2="399.97" y2="422.421" gradientUnits="userSpaceOnUse">
<stop stop-color="#E2C683"/>
<stop offset="0.43" stop-color="#EBDBB3"/>
<stop offset="0.99" stop-color="#E3C783"/>
</linearGradient>
<linearGradient id="paint18_linear_200_167" x1="550.4" y1="1576.4" x2="-92.1506" y2="606.82" gradientUnits="userSpaceOnUse">
<stop stop-color="#E2C683"/>
<stop offset="0.43" stop-color="#EBDBB3"/>
<stop offset="0.99" stop-color="#E3C783"/>
</linearGradient>
<linearGradient id="paint19_linear_200_167" x1="750.53" y1="1209.12" x2="685.018" y2="1095.47" gradientUnits="userSpaceOnUse">
<stop stop-color="#E2C683"/>
<stop offset="0.43" stop-color="#EBDBB3"/>
<stop offset="0.99" stop-color="#E3C783"/>
</linearGradient>
<linearGradient id="paint20_linear_200_167" x1="889.819" y1="1241.99" x2="784.11" y2="864.872" gradientUnits="userSpaceOnUse">
<stop stop-color="#E2C683"/>
<stop offset="0.43" stop-color="#EBDBB3"/>
<stop offset="0.99" stop-color="#E3C783"/>
</linearGradient>
<linearGradient id="paint21_linear_200_167" x1="80.8465" y1="1563.95" x2="-621.158" y2="502.89" gradientUnits="userSpaceOnUse">
<stop stop-color="#E2C683"/>
<stop offset="0.43" stop-color="#EBDBB3"/>
<stop offset="0.99" stop-color="#E3C783"/>
</linearGradient>
<linearGradient id="paint22_linear_200_167" x1="90.5267" y1="1300.11" x2="-14.6304" y2="910.734" gradientUnits="userSpaceOnUse">
<stop stop-color="#E2C683"/>
<stop offset="0.43" stop-color="#EBDBB3"/>
<stop offset="0.99" stop-color="#E3C783"/>
</linearGradient>
<linearGradient id="paint23_linear_200_167" x1="268.042" y1="1871.02" x2="-689.592" y2="-155.526" gradientUnits="userSpaceOnUse">
<stop stop-color="#E2C683"/>
<stop offset="0.43" stop-color="#EBDBB3"/>
<stop offset="0.99" stop-color="#E3C783"/>
</linearGradient>
<linearGradient id="paint24_linear_200_167" x1="645.117" y1="1349.85" x2="394.969" y2="1163.99" gradientUnits="userSpaceOnUse">
<stop stop-color="#E2C683"/>
<stop offset="0.43" stop-color="#EBDBB3"/>
<stop offset="0.99" stop-color="#E3C783"/>
</linearGradient>
<linearGradient id="paint25_linear_200_167" x1="687.136" y1="1376.4" x2="400.119" y2="1190.78" gradientUnits="userSpaceOnUse">
<stop stop-color="#E2C683"/>
<stop offset="0.43" stop-color="#EBDBB3"/>
<stop offset="0.99" stop-color="#E3C783"/>
</linearGradient>
<linearGradient id="paint26_linear_200_167" x1="667.935" y1="1302.33" x2="568.555" y2="1266.54" gradientUnits="userSpaceOnUse">
<stop stop-color="#E2C683"/>
<stop offset="0.43" stop-color="#EBDBB3"/>
<stop offset="0.99" stop-color="#E3C783"/>
</linearGradient>
<linearGradient id="paint27_linear_200_167" x1="709.299" y1="899.284" x2="706.507" y2="828.835" gradientUnits="userSpaceOnUse">
<stop offset="0.42" stop-color="#79AEB5"/>
<stop offset="0.51" stop-color="#87B6B1"/>
<stop offset="0.67" stop-color="#9AC0AC"/>
<stop offset="0.83" stop-color="#A5C6A9"/>
<stop offset="1" stop-color="#A9C9A9"/>
</linearGradient>
<linearGradient id="paint28_linear_200_167" x1="1466.06" y1="888.449" x2="1466.9" y2="784.172" gradientUnits="userSpaceOnUse">
<stop offset="0.42" stop-color="#596377"/>
<stop offset="0.67" stop-color="#737478"/>
<stop offset="1" stop-color="#968F8A"/>
</linearGradient>
<linearGradient id="paint29_linear_200_167" x1="954.025" y1="869.588" x2="952.635" y2="803.692" gradientUnits="userSpaceOnUse">
<stop offset="0.16" stop-color="#FF2C2C"/>
<stop offset="0.22" stop-color="#D2244D"/>
<stop offset="0.3" stop-color="#A11B3B"/>
<stop offset="0.38" stop-color="#76142B"/>
<stop offset="0.46" stop-color="#510E1E"/>
<stop offset="0.55" stop-color="#330813"/>
<stop offset="0.64" stop-color="#1C040A"/>
<stop offset="0.74" stop-color="#0C0204"/>
<stop offset="0.85" stop-color="#030001"/>
<stop offset="1"/>
</linearGradient>
<linearGradient id="paint30_linear_200_167" x1="-11.1243" y1="964.678" x2="637.576" y2="964.678" gradientUnits="userSpaceOnUse">
<stop stop-color="#6D1E89"/>
<stop offset="1" stop-color="#681259"/>
</linearGradient>
<linearGradient id="paint31_linear_200_167" x1="1009.36" y1="1133.46" x2="1024.53" y2="895.35" gradientUnits="userSpaceOnUse">
<stop offset="0.0291665" stop-color="#E4CE9A"/>
<stop offset="1" stop-color="#CCA769"/>
</linearGradient>
<linearGradient id="paint32_linear_200_167" x1="939.198" y1="821.145" x2="939.198" y2="975.134" gradientUnits="userSpaceOnUse">
<stop stop-color="#966C3A"/>
<stop offset="1" stop-color="#6E512F"/>
</linearGradient>
<linearGradient id="paint33_linear_200_167" x1="1773" y1="1033.5" x2="1771.67" y2="966.131" gradientUnits="userSpaceOnUse">
<stop offset="0.02" stop-color="#D5B26E"/>
<stop offset="0.611582" stop-color="#815715"/>
</linearGradient>
<linearGradient id="paint34_linear_200_167" x1="1780.31" y1="1273.33" x2="1772.19" y2="903.705" gradientUnits="userSpaceOnUse">
<stop stop-color="#DABB8C"/>
<stop offset="0.97" stop-color="#DEB977"/>
</linearGradient>
<linearGradient id="paint35_linear_200_167" x1="1148.61" y1="882.196" x2="1148.19" y2="950.615" gradientUnits="userSpaceOnUse">
<stop offset="0.03" stop-color="white"/>
<stop offset="0.25" stop-color="#F5E1E3"/>
<stop offset="0.58" stop-color="#E9B8BF"/>
<stop offset="0.84" stop-color="#E1A0A8"/>
<stop offset="1" stop-color="#DF97A0"/>
</linearGradient>
<linearGradient id="paint36_linear_200_167" x1="964.235" y1="904.976" x2="960.214" y2="983.177" gradientUnits="userSpaceOnUse">
<stop offset="0.06" stop-color="#FF2C5E"/>
<stop offset="0.13" stop-color="#D2244D"/>
<stop offset="0.21" stop-color="#A11B3B"/>
<stop offset="0.31" stop-color="#76142B"/>
<stop offset="0.4" stop-color="#510E1E"/>
<stop offset="0.5" stop-color="#330813"/>
<stop offset="0.6" stop-color="#1C040A"/>
<stop offset="0.71" stop-color="#0C0204"/>
<stop offset="0.84" stop-color="#030001"/>
<stop offset="1"/>
</linearGradient>
<radialGradient id="paint37_radial_200_167" cx="0" cy="0" r="1" gradientUnits="userSpaceOnUse" gradientTransform="translate(1594.56 1051.7) scale(663.145 162.018)">
<stop stop-color="#FFD900"/>
<stop offset="0.25" stop-color="#BEA200"/>
<stop offset="1"/>
</radialGradient>
<linearGradient id="paint38_linear_200_167" x1="184.845" y1="1077.34" x2="197.611" y2="937.642" gradientUnits="userSpaceOnUse">
<stop stop-color="#C59B43"/>
<stop offset="1" stop-color="#CB9414"/>
</linearGradient>
<linearGradient id="paint39_linear_200_167" x1="169.304" y1="1094.28" x2="200.154" y2="977.21" gradientUnits="userSpaceOnUse">
<stop offset="0.435417" stop-color="#CD9C68"/>
<stop offset="1" stop-color="#E8C873"/>
</linearGradient>
<linearGradient id="paint40_linear_200_167" x1="44.4518" y1="1061.35" x2="75.3275" y2="944.285" gradientUnits="userSpaceOnUse">
<stop stop-color="#AB893D"/>
<stop offset="0.91" stop-color="#BFA770"/>
</linearGradient>
<linearGradient id="paint41_linear_200_167" x1="-19.7902" y1="979.052" x2="152.776" y2="979.052" gradientUnits="userSpaceOnUse">
<stop stop-color="#9D8343"/>
<stop offset="1" stop-color="#AB893D"/>
</linearGradient>
<clipPath id="clip0_200_167">
<rect width="2554" height="1290" fill="white" transform="translate(-139)"/>
</clipPath>
</defs>
</svg>
