<svg width="24" height="24" viewBox="0 0 24 24" fill="none" xmlns="http://www.w3.org/2000/svg">
<path d="M12 8L23 12.5L12 17L1 12.5L12 8Z" fill="#A2A199"/>
<path d="M1 14.5V7L12 11.5L23 7V14.5L11.7442 19L1 14.5Z" fill="#D5D4CD" fill-opacity="0.55"/>
<path d="M1 13.5V6L12 10.5L23 6V13.5L11.7442 18L1 13.5Z" fill="#B6B5AF" fill-opacity="0.77"/>
<path d="M1.5 19.1673V6.74477L11.8107 10.9628L12 11.0402L12.1893 10.9628L22.5 6.74477V19.1614L11.7486 23.4598L1.5 19.1673Z" stroke="#484A43"/>
<path d="M12 1L23 5.5L12 10L1 5.5L12 1Z" fill="#484A43"/>
<path d="M20 17.95C20 18.5299 19.5523 19 19 19C18.4477 19 18 18.5299 18 17.95C18 17.3701 19 16 19 16C19 16 20 17.3701 20 17.95Z" fill="#484A43" fill-opacity="0.6"/>
<path d="M15 20.95C15 21.5299 14.5523 22 14 22C13.4477 22 13 21.5299 13 20.95C13 20.3701 14 19 14 19C14 19 15 20.3701 15 20.95Z" fill="#484A43" fill-opacity="0.6"/>
<path d="M10 18.95C10 19.5299 9.55228 20 9 20C8.44772 20 8 19.5299 8 18.95C8 18.3701 9 17 9 17C9 17 10 18.3701 10 18.95Z" fill="#484A43" fill-opacity="0.6"/>
<path d="M5 17.95C5 18.5299 4.55228 19 4 19C3.44772 19 3 18.5299 3 17.95C3 17.3701 4 16 4 16C4 16 5 17.3701 5 17.95Z" fill="#484A43" fill-opacity="0.6"/>
</svg>
