<svg width="77" height="177" viewBox="0 0 77 177" fill="none" xmlns="http://www.w3.org/2000/svg">
<path fill-rule="evenodd" clip-rule="evenodd" d="M0.905029 0C3.24207 13.1681 3.55719 24.8135 3.79822 33.7206C3.9765 40.3096 4.11426 45.4001 4.99994 48.5C8.42313 77.2548 8.66034 82.1876 8.88574 86.8748C8.98956 89.0339 9.09088 91.1409 9.49994 95.5C11.1584 113.175 21.7043 143.5 21.7043 143.5C21.7043 143.5 25.83 167.191 25.0555 171.642C24.864 172.739 25.5342 173.798 26.6087 174.101C40.8009 178.099 58.1316 177.482 74.6537 173.974C75.7123 173.75 76.3294 172.643 75.9836 171.621C75.3153 169.646 74.5016 165.498 73.5132 160.458C72.4077 154.822 71.0837 148.071 69.4999 142C67.2345 124.524 67.2733 115.217 67.3114 106.081C67.3322 101.102 67.3527 96.173 66.9999 90C65.8302 69.5298 62.4006 60.5926 60.2292 54.9341C59.4122 52.8051 58.7733 51.1403 58.4999 49.5C58.4887 49.4329 58.4667 49.3146 58.4357 49.1479C57.7817 45.6317 53.1222 20.5812 61.4845 0H35.2757C33.9193 5.05203 33.0825 8.52151 33.0825 8.52151C33.0825 8.52151 26.8056 24.0292 21.7043 8.52151C21.0302 6.4722 20.2668 4.04703 19.4099 1.32449C19.2733 0.890442 19.1343 0.448853 18.993 0H0.905029Z" fill="#301B0D"/>
</svg>
