<svg width="76" height="177" viewBox="0 0 76 177" fill="none" xmlns="http://www.w3.org/2000/svg">
<path fill-rule="evenodd" clip-rule="evenodd" d="M0.990479 0C1.87549 3.66583 2.64871 7.20059 3.40698 10.6671C6.56091 25.0855 9.45651 38.3229 19.0659 54.9007C38.237 87.9656 26.4279 158.008 24.0555 171.642C23.864 172.739 24.5342 173.798 25.6088 174.101C39.801 178.099 57.1317 177.482 73.6538 173.974C74.7123 173.75 75.3294 172.643 74.9836 171.621C70.7547 159.126 47.4557 89.0303 48.1738 62.391C48.3011 57.6546 48.2231 52.9182 48.1456 48.2072C47.8695 31.4312 47.5988 14.9784 56.6202 0H34.2757C32.9193 5.05203 32.0825 8.52151 32.0825 8.52151C32.0825 8.52151 25.8056 24.0292 20.7043 8.52151C20.0302 6.4722 19.2669 4.04703 18.41 1.32449C18.2734 0.890442 18.1344 0.448853 17.993 0H0.990479Z" fill="#301B0D"/>
</svg>
