<svg width="75" height="177" viewBox="0 0 75 177" fill="none" xmlns="http://www.w3.org/2000/svg">
<path fill-rule="evenodd" clip-rule="evenodd" d="M0.751347 0C1.69642 3.29275 2.56433 6.4804 3.41587 9.60796C7.46627 24.4843 11.1465 38.001 21 55C29.6866 67.4377 34.7978 112.68 35 114.5C35.0086 114.578 35.0205 114.682 35.0352 114.81C35.363 117.667 37.0746 132.584 35 142C33.0373 150.908 29.2974 158.208 26.5082 163.652C24.7598 167.065 23.385 169.748 23.0555 171.642C22.864 172.739 23.5342 173.798 24.6088 174.101C38.801 178.099 56.1317 177.482 72.6538 173.974C73.7123 173.75 74.3294 172.643 73.9836 171.621C73.3167 169.65 71.6144 166.311 69.3942 161.956C65.2776 153.881 59.3804 142.313 55 129.5C46.7625 105.404 41.1051 76.6485 41.5 62C41.5456 60.3027 41.5839 58.6066 41.6221 56.913C42.0701 37.075 42.5109 17.5571 54.606 0H33.2757C31.9193 5.05202 31.0825 8.52151 31.0825 8.52151C31.0825 8.52151 24.8056 24.0292 19.7043 8.52151C19.0302 6.47218 18.2669 4.04697 17.4099 1.32439C17.2733 0.890379 17.1344 0.448809 16.993 0H0.751347Z" fill="#301B0D"/>
</svg>
