<svg width="785" height="555" viewBox="0 0 785 555" fill="none" xmlns="http://www.w3.org/2000/svg">
<path d="M681.741 187.215C672.969 188.977 654.288 190.675 646.425 190.66C641.298 190.649 641.282 185.996 641.936 180.364L638.367 174.513C635.643 180.401 635.957 186.039 636.467 189.11C636.749 190.825 636.377 192.581 635.414 194.029C632.494 198.411 625.946 207.28 618.967 210.474C609.551 214.781 611.12 197.548 611.12 197.548C611.12 197.548 607.982 188.072 601.705 185.485C595.428 182.898 604.844 180.316 611.12 179.453C615.796 178.809 619.594 173.395 620.584 168.891L619.084 164.872C618.163 167.15 616.924 172.479 613.865 174.715C609.158 178.16 604.45 175.578 604.45 175.578L603.79 167.236L601.508 169.956L602.099 175.147C602.099 175.147 594.189 189.041 592.268 168.444L587.066 168.316C587.103 168.449 587.146 168.577 587.194 168.689C588.763 172.133 588.763 182.477 594.258 185.059C599.753 187.646 608.386 197.122 604.461 208.323C600.535 219.524 594.258 200.998 594.258 200.998C594.258 200.998 593.082 194.104 586.018 194.535C579.917 194.908 577.911 168.902 577.48 161.832L573.055 163.967C574.789 172.346 577.89 187.268 578.167 188.503C578.56 190.228 580.911 197.117 584.837 199.273C588.763 201.429 594.646 210.905 594.646 210.905C594.646 210.905 598.572 216.074 609.163 217.799C617.637 219.178 607.29 226.615 602.806 229.543C601.886 230.145 600.668 229.863 600.115 228.915C598.795 226.642 595.843 224.033 591.114 232.881C584.444 245.375 558.91 254.266 558.91 254.266L535.728 262.496C534.255 263.215 532.68 261.719 533.313 260.207L541.159 241.564C541.792 240.063 542.005 238.433 541.92 236.804C541.824 234.861 543.197 231.502 551.873 228.143C562.309 224.097 556.416 220.844 553.357 219.62C551.947 219.056 551.038 217.608 551.282 216.106C551.607 214.121 553.894 212.236 562.857 214.355C572.347 216.596 572.464 205.379 570.954 200.348C570.618 199.231 570.922 198.011 571.762 197.213C573.204 195.845 575.129 193.428 574.629 190.66C573.842 186.353 564.033 174.289 566.783 166.964C567.06 166.224 567.304 165.537 567.522 164.899L565.549 161.342C565.267 161.885 564.9 162.466 564.427 163.089C561.602 166.81 563.857 173.427 565.347 176.845C565.772 177.819 564.959 178.873 563.905 178.708C559.464 177.995 550.596 175.897 550.304 170.414C550.181 168.13 549.905 165.601 549.585 163.195L546.761 162.833C547.202 166.347 547.49 169.983 547.16 172.133C546.516 176.371 559.565 180.316 564.304 181.604C565.491 181.929 566.544 182.61 567.304 183.579C569.225 186.017 572.246 190.755 569.129 193.247C564.815 196.691 553.171 188.173 549.511 184.202C546.543 180.976 544.532 176.957 540.463 169.168C540.186 168.636 540.207 168.034 540.463 167.534L535.196 165.718C535.25 165.91 535.287 166.049 535.313 166.123C532.872 166.629 524.472 164.686 523.228 159.218C523.047 158.425 522.871 157.653 522.701 156.897L518.924 155.087C520.057 162.019 521.052 164.425 523.621 166.538C525.781 168.316 530.904 169.482 533.898 170.036C535.34 170.302 536.579 171.218 537.266 172.517C539.425 176.605 544.372 185.453 547.952 188.078C552.66 191.522 560.618 195.062 564.432 197.985C566.655 199.688 572.278 206.172 560.118 208.323C547.952 210.479 544.42 198.847 537.361 197.554C530.297 196.26 525.59 191.091 525.196 186.353C524.802 181.615 513.536 174.795 510.286 170.414C507.456 166.602 506.36 160.075 509.11 151.457C510.36 147.538 510.307 144.962 509.887 143.311L506.099 143.86C506.168 145.467 505.849 147.868 504.796 151.462C502.248 160.171 494.38 158.1 490.199 156.274C489.588 156.008 489.029 156.743 489.449 157.265C490.019 157.978 490.668 158.862 491.152 159.527C491.561 160.097 492.279 160.352 492.955 160.166C496.093 159.293 504.87 157.627 505.19 166.112C505.583 176.451 511.881 178.484 515.786 180.758C519.376 182.85 523.632 186.789 524.419 194.977C525.201 203.165 537.76 203.596 537.76 203.596C537.76 203.596 550.314 207.04 547.176 210.49C544.037 213.934 543.25 215.659 544.037 218.678C544.825 221.691 544.431 225.572 535.404 231.603C526.377 237.635 528.34 261.762 509.115 272.1C489.891 282.438 495.774 234.191 495.774 234.191C495.774 234.191 495.077 221.286 493.811 216.096C492.599 211.134 506.365 210.064 516.568 213.083C524.1 215.308 527.356 210.49 528.542 207.812C528.792 207.253 528.223 206.684 527.659 206.928C525.664 207.801 521.898 208.951 518.137 207.477C512.642 205.321 502.439 208.77 502.439 207.477C502.439 206.183 503.227 205.321 508.716 199.289C514.211 193.257 513.424 186.363 511.461 184.213C509.849 182.445 487.348 164.994 480.215 151.888L478.076 158.489C478.561 159.043 479.092 159.58 479.678 160.091C487.13 166.554 507.535 184.218 506.36 188.525C505.408 192.017 495.439 202.286 491.689 206.066C490.832 206.928 489.519 207.115 488.455 206.534C484.247 204.235 474.183 198.107 474.183 191.974C474.183 184.218 484.385 182.498 480.46 172.155C478.555 167.14 475.358 163.333 472.305 158.883L470.039 159.98C472.693 164.803 475.06 168.939 476.146 170.435C479.284 174.742 470.262 188.53 470.262 188.53C470.262 188.53 465.347 195.797 476.146 205.763C490.992 219.46 489.88 208.35 491.056 229.889C491.652 240.813 490.535 246.973 489.285 250.39C488.407 252.797 485.518 253.749 483.364 252.365C475.986 247.617 458.538 235.277 451.815 220.844C443.181 202.318 436.122 197.58 437.691 191.549C439.261 185.517 452.208 185.086 454.565 174.747C456.331 166.991 453.24 148.805 451.586 140.208L448.884 143.279C450.942 150.552 452.942 160.411 450.644 165.702C447.665 172.575 439.702 179.198 436.048 181.987C435.186 182.647 433.936 182.163 433.728 181.098L430.563 164.616L426.35 167.486C428.68 171.425 429.441 183.957 430.633 189.398C432.744 199.034 440.442 218.694 446.325 225.588C450.155 230.07 464.113 244.769 473.401 254.489C481.305 262.768 484.125 274.932 479.874 285.563C478.459 289.104 476.337 292.559 473.199 295.465C460.645 307.097 445.144 318.644 437.298 319.932C433.372 320.577 430.92 318.426 429.452 316.11C428.106 313.991 427.515 311.489 427.627 308.982C427.909 302.588 428.127 284.52 422.393 272.978C415.329 258.759 410.621 246.701 409.839 238.513C409.052 230.326 390.221 215.249 390.221 215.249C390.221 215.249 381.194 204.911 381.194 194.572C381.194 184.234 391.79 175.184 387.471 164.414C385.63 159.825 384.864 154.305 384.588 149.476L381.354 154.502C381.721 159.575 382.476 164.43 383.939 167.001C386.87 172.144 383.018 179.214 380.88 182.466C380.338 183.297 379.098 183.222 378.667 182.328C376.731 178.351 372.518 168.992 372.178 162.37L368.534 162.098C369.22 166.964 370.204 172.165 371.385 174.763C372.991 178.298 374.417 184.042 375.162 187.327C375.39 188.349 374.279 189.158 373.385 188.605C370.098 186.56 363.996 181.673 359.613 171.75C356.98 165.788 354.767 159.831 353.076 154.917L350.017 154.858C354.012 166.091 361.267 182.828 372.066 194.264C380.678 203.383 382.37 216.122 382.763 218.71C383.157 221.297 401.206 232.498 401.206 242.405C401.206 252.312 411.015 278.163 411.015 278.163C411.015 278.163 420.042 315.642 414.547 327.705C409.052 339.768 399.243 335.03 394.929 347.951C390.615 360.876 387.083 375.522 387.083 375.522C387.083 375.522 380.806 391.029 375.704 375.522C372.741 366.514 368.055 350.245 361.273 333.38C357.336 304.393 375.502 305.772 370.358 290.333C366.47 278.664 366.502 266.02 366.746 260.537C366.832 258.658 366.363 256.795 365.395 255.182L364.076 252.983C363.246 251.599 361.14 252.014 360.906 253.611C360.193 258.461 359.618 266.851 361.783 276.609C365.209 292.047 351.065 311.351 351.065 311.351V311.361C348.607 306.81 345.969 302.439 343.134 298.409C325.867 273.851 328.521 272.004 328.223 262.219C327.952 253.265 323.515 244.556 330.58 226.461C337.644 208.366 336.857 179.07 336.857 179.07C336.857 179.07 334.293 164.984 334.133 154.049L330.681 153.751C330.617 154.768 330.58 155.753 330.58 156.674C330.58 162.705 332.149 172.181 332.149 172.181C332.149 172.181 328.218 170.02 324.069 163.956L318.063 163.876C331.505 173.432 331.101 188.807 329.941 196.271C329.526 198.932 327.308 200.929 324.622 201.067C316.398 201.493 299.025 200.279 293.7 183.382C286.636 160.98 277.221 151.504 277.221 151.504C277.221 151.504 275.364 148.736 274.194 144.637L270.715 144.28C271.465 147.155 270.369 151.302 267.337 150.333L263.981 155.912C269.997 161.257 278.402 163.568 278.402 163.568C278.402 163.568 282.716 183.813 290.567 192.432C297.716 200.279 311.052 207.056 322.563 208.201C325.149 208.456 327.058 210.703 326.973 213.301C326.851 216.894 325.26 222.585 319.212 230.773C311.813 240.792 313.249 252.009 315.34 258.951C316.387 262.443 313.818 265.978 310.174 265.988C297.158 266.031 271.992 263.886 266.241 247.143C258.395 224.31 265.848 200.183 260.746 189.414C256.89 181.279 245.65 171.164 240.213 153.149L237.527 154.762C238.671 158.505 240.102 162.274 241.91 165.718C249.363 179.938 250.943 183.127 245.841 179.246C242.745 176.893 234.394 169.85 228.027 161.534L222.287 160.469C227.809 167.784 235.405 177.494 241.128 181.657C244.586 184.175 252.634 193.619 252.634 199.22C252.634 204.82 250.544 231.204 253.289 238.529C255.985 245.716 259.815 268.682 312.653 281.746C314.797 282.273 316.691 283.546 317.941 285.372C320.207 288.688 322.484 293.676 315.675 293.676C305.472 293.676 228.176 270.844 216.01 244.135C203.845 217.427 199.137 184.681 199.924 182.099C200.711 179.512 216.537 174.582 212.478 161.422C211.616 158.638 211.063 155.928 210.568 153.362L205.43 154.683C207.307 161.018 207.148 169.647 193.642 171.761C181.242 173.704 174.593 167.417 171.151 161.571L159.364 158.319C161.475 162.285 165.029 166.128 170.885 169.179C185.796 176.935 191.291 180.38 191.291 190.718C191.291 196.537 190.296 202.079 189.429 205.816C188.876 208.19 186.131 209.287 184.094 207.956C174.125 201.429 149.071 183.808 146.56 170.041C145.815 165.942 144.799 161.752 143.687 157.733L138.293 158.617C138.554 160.203 138.714 161.731 138.714 163.147C138.714 174.348 126.245 174.997 121.447 173.486C115.18 171.511 110.462 166.592 96.3338 165.729C93.7698 165.575 91.5995 164.872 89.759 163.839L84.8545 169.935C110.43 175.131 112.755 180.928 122.234 183.824C130.016 186.198 144.209 182.962 153.624 192.443C163.039 201.919 193.647 224.321 203.063 245.003C212.478 265.68 248.4 285.42 267.412 290.669C288.918 296.61 328.622 297.563 345.102 334.61C361.581 371.662 356 405 359 415.5C364 457.5 362.203 448.677 363.5 462.5C365.159 480.175 375.704 510.5 375.704 510.5C375.704 510.5 379.83 534.191 379.056 538.642C378.864 539.739 379.534 540.798 380.609 541.101C394.801 545.099 412.132 544.482 428.654 540.974C429.712 540.75 430.329 539.643 429.984 538.621C428.568 534.438 426.5 520.5 423.5 509C420 482 422 474.5 421 457C419.39 428.828 413.5 422.5 412.5 416.5C412.167 414.5 402.24 367.116 430.643 347.535C464.39 324.271 501.269 288.944 535.016 276.881C568.762 264.817 585.523 243.427 613.546 237.475C649.979 229.74 653.511 218.289 653.511 218.289C653.511 218.289 656.649 212.257 654.293 209.675C651.936 207.088 643.266 228.127 618.977 226.908C607.45 226.328 629.861 211.752 638.521 206.439C640.063 205.491 641.228 204.08 642.016 202.451C643.303 199.789 648.899 195.35 671.56 194.162C683.885 193.518 692.688 191.064 698.896 188.248L695.699 184.223C690.55 185.852 685.252 186.566 681.762 187.268L681.741 187.215Z" fill="#301B0D"/>
<path d="M737.05 168.073C737.464 166.327 743.383 165.049 743.324 163.312C743.264 161.636 737.696 162.063 736.635 160.489C735.834 159.303 738.495 153.633 736.848 152.55C735.444 151.626 732.128 156.822 731.017 156.616C729.431 156.317 727.54 150.789 726.421 151.356C725.04 152.056 726.817 158.34 725.882 159.143C724.586 160.255 724.214 156.619 723.09 154.833C722.582 154.027 716.993 155.574 716.402 153.642C715.898 151.988 720.92 148.52 720.567 147.115C720.131 145.379 714.286 145.548 713.972 144.188C713.543 142.313 718.56 138.709 718.106 137.52C717.437 135.777 713.298 139.027 711.767 138.679C710.686 138.431 709.444 132.473 707.528 132.892C705.979 133.228 705.693 139.617 704.488 139.919C702.93 140.314 700.868 134.546 699.635 134.661C698.224 134.794 696.005 140.616 694.621 140.028C693.54 139.567 695.296 133.5 694.004 132.393C693.077 131.6 688.255 135.297 687.126 134.092C685.904 132.787 688.96 127.185 687.975 126.027C686.801 124.644 681.576 127.68 680.578 126.554C679.379 125.202 681.967 119.312 680.758 118.412C679.462 117.451 675.849 122.385 674.181 122.058C672.808 121.79 671.576 115.648 669.733 115.882C668.458 116.044 667.335 122.26 666.169 122.227C664.875 122.192 664.387 115.926 663.26 115.698C661.963 115.438 659.089 120.984 658.055 120.538C656.771 119.986 658.667 114.039 657.868 113.321C656.67 112.236 653.782 112.77 653.955 111.698C654.089 110.863 656.765 108.966 656.284 108.087C655.881 107.351 652.092 109.061 651.366 108.494C650.702 107.977 651.418 103.799 650.564 103.572C649.769 103.363 648.371 107.395 647.477 107.557C646.691 107.702 644.299 104.27 643.48 104.785C642.54 105.378 643.204 111.471 642.042 111.679C640.952 111.875 639.716 105.782 638.587 105.689C637.443 105.594 635.115 111.394 634.095 111.055C632.921 110.661 636.887 103.586 636.108 102.941C635.668 102.576 634.558 103.067 633.389 103.247C632.986 103.31 632.601 103.065 632.468 102.68C631.84 100.858 629.911 98.7027 629.63 98.8009C629.156 98.9684 629.965 104.423 628.403 104.481C625.628 104.583 626.867 100.521 626.009 100.073C624.848 99.5753 622.751 102.949 621.136 101.549C620.245 100.774 625.732 97.1531 625.328 96.4757C624.898 95.7594 620.618 98.4592 619.745 98.4462C619.151 98.4395 618.381 94.5027 617.481 95.059C616.911 95.4125 617.711 101.381 616.993 102.024C616.184 102.746 613.704 98.1188 613.109 98.6196C612.911 98.7853 612.997 100.016 612.484 101.293C612.122 102.188 610.992 102.459 610.244 101.838C608.634 100.502 608.47 98.8633 608.471 98.2085C608.474 97.345 614.129 95.9905 614.057 94.9405C613.953 93.4089 611.223 92.6508 611.581 91.2517C612.022 89.5328 615.578 87.9173 615.724 86.8173C615.92 85.361 611.945 86.9438 609.392 87.4969C607.77 85.9992 606.847 82.5493 605.157 83.1871C604.029 83.6136 604.573 89.9237 603.085 90.5594C601.693 91.1524 598.596 85.8872 597.532 86.3084C595.978 86.9217 596.325 93.239 595.373 93.5194C592.743 94.2885 594.502 88.7139 593.818 87.7667C593.057 86.7179 589.608 86.7002 589.969 85.0149C590.248 83.7193 595.888 82.0253 595.531 80.569C595.24 79.3792 589.576 79.2482 589.595 78.3795C589.606 77.9782 588.568 71.2087 587.362 71.3318C586.539 71.416 585.994 77.6669 584.904 77.7932C581.181 78.2195 582.485 72.6608 581.819 70.5695C581.174 68.5554 576.018 68.8938 574.436 66.6161C573.358 65.0669 574.738 58.8034 571.782 57.9275C569.996 57.3953 566.769 63.1168 563.952 63.0189C561.947 62.9512 559.687 56.8407 557.05 57.0508C553.66 57.3214 552.203 63.8437 550.389 64.574C546.853 65.9912 544.361 61.7767 541.135 61.946C538.856 62.1287 536.245 70.8901 533.969 69.4614C531.849 68.1314 532.749 61.5311 530.957 60.5097C528.712 59.2255 524.131 63.7481 522.353 62.8958C519.833 61.6833 519.764 55.0585 518.065 54.5674C514.436 53.5209 513.688 59.0765 512.741 60.1015C510.77 62.2325 507.644 61.9296 508.27 65.5293C508.585 67.343 510.121 68.3385 508.133 68.7192C507.133 68.9105 505.389 62.9763 504.161 63.0882C503.055 63.1888 501.863 69.4011 500.72 69.3484C499.564 69.2976 499.402 63.0644 498.341 62.7654C497.198 62.4455 493.609 67.4227 492.751 66.7108C491.694 65.8351 495.586 61.1741 495.217 59.8903C494.839 58.5857 492.62 58.4486 490.852 57.8534C490.597 56.3477 493.038 51.6813 492.168 50.8708C491.438 50.1873 488.769 55.3012 487.021 55.5733C486.023 55.7262 483.598 50.1083 482.135 50.6822C480.628 51.272 482.056 57.2832 481.229 57.9479C479.851 59.0585 474.863 57.1497 474.632 58.2438C474.259 60.0008 480.301 63.5791 477.186 65.5486C473.589 67.8239 473.6 60.1308 471.303 59.6519C470.328 59.4482 470.265 65.6799 468.755 65.227C467.158 64.7487 467.7 58.3928 466.54 57.915C464.891 57.2344 461.103 62.1446 460.101 61.5259C458.379 60.4538 460.359 54.1593 459.455 53.5873C458.371 52.8973 456.596 58.3568 454.478 59.0148C453.426 59.341 450.38 54.0491 448.631 54.8287C446.501 55.7793 447.224 62.3238 445.677 63.3798C443.731 64.705 439.423 60.6276 437.771 61.5313C435.983 62.5098 434.943 68.863 432.657 68.5406C431.047 68.3158 430.986 61.8356 428.763 60.613C427.244 59.779 422.578 64.0246 420.654 62.6138C418.76 61.2274 419.958 54.6905 418.129 53.5781C416.099 52.3401 411.486 56.815 409.603 55.9185C407.388 54.8638 407.324 48.2358 405.424 47.6658C402.859 46.8956 399.918 52.6359 398.169 52.7646C395.267 52.9784 390.762 51.9069 391.15 54.6624C391.432 56.68 393.075 60.2229 390.806 60.5426C389.332 60.7505 387.726 54.5402 385.815 54.2318C384.146 53.9626 381.01 59.5359 379.363 58.9874C377.59 58.3954 378.234 51.9863 376.888 51.1917C374.78 49.9491 369.236 50.8138 369.45 49.4845C369.505 49.1409 370.857 48.1423 372.372 46.5694C373.549 45.349 372.309 43.3628 370.69 43.8688C368.432 44.574 367.38 44.9933 365.762 44.1704C364.294 43.4223 364.87 41.5663 365.667 39.6878C366.457 37.8314 364.85 35.8481 362.855 36.2005C359.642 36.7748 357.082 37.5902 350.428 34.909C349.251 34.4363 347.93 35.0524 347.524 36.246C346.534 39.1511 344.719 41.0398 342.707 41.4282C339.419 42.0563 339.663 35.1564 336.365 35.411C333.879 35.6027 327.856 43.0815 325.362 42.8343C324.857 42.7838 325.173 34.8339 324.667 34.7601C321.553 34.312 320.196 37.4407 316.887 37.5425C314.154 37.6247 311.056 32.0532 308.32 32.1234C303.635 32.2471 309.596 37.2962 308.619 39.905C307.964 41.6476 304.819 36.5103 301.91 39.1329C299.638 41.1803 308.374 46.1269 300.853 47.6219C298.372 48.113 302.379 55.1018 299.893 55.5067C298.338 55.7597 297.618 49.9944 295.968 49.0969C295.196 48.6777 292.607 54.1881 291.376 54.0943C290.473 54.0261 289.213 47.984 288.03 48.2504C287.114 48.4552 287.598 54.6706 286.502 55.1447C285.611 55.5317 282.364 50.4477 281.349 51.051C279.968 51.8667 281.711 57.8821 280.715 58.6476C279.36 59.6921 276.315 56.0122 275.457 56.823C273.971 58.2184 275.846 65.6577 272.393 64.4072C269.143 63.2282 271.408 58.1576 269.909 56.5481C269.146 55.7276 265.17 59.2708 264.081 57.9172C263.033 56.6169 266.112 51.0885 265.106 50.0818C263.903 48.8803 259.206 52.8147 258.087 52.0336C256.642 51.0295 257.538 44.7424 256.298 44.4455C254.604 44.0406 254.087 49.7882 252.934 50.7066C251.885 51.541 246.712 49.765 246.256 51.7023C245.648 54.2893 245.487 57.173 243.365 55.9009C242.038 55.1018 243.075 48.4538 241.313 47.6272C239.728 46.8872 236.895 52.2962 235.047 52.409C233.452 52.508 230.101 47.4886 228.371 48.8058C227.115 49.7618 229.656 55.4604 228.356 57.3002C226.878 59.3906 221.427 56.7599 219.917 58.0353C218.025 59.6363 218.802 65.9919 216.995 66.7503C214.767 67.6812 211.137 62.2681 209.303 62.7355C206.807 63.3713 207.704 68.7156 206.576 70.4786C205.697 71.848 200.206 72.6244 200.547 75.9147C200.845 78.7718 206.441 81.1157 206.307 83.5892C206.144 86.5774 200.201 89.4275 200.322 91.7678C200.473 94.5973 205.748 94.1502 207.939 95.8868C209.433 97.0731 209.317 103.54 212.459 104.152C214.474 104.547 217.671 98.6887 220.556 98.8247C223.097 98.9478 225.284 105.078 227.31 104.92C229.934 104.716 231.412 98.2316 233.333 97.7046C235.98 96.9769 239.91 101.757 241.634 100.791C242.964 100.048 243.635 99.0486 244.246 98.1553C246.078 99.0048 248.099 99.8655 250.324 100.716L254.518 96.9566C254.459 96.9122 254.4 96.8678 254.342 96.8196C257.12 94.6756 260.892 90.1542 262.761 91.2577C265.034 92.6046 264.552 97.7923 267.093 99.0701C269.512 100.286 273.648 93.2153 276.287 94.0593C278.862 94.8854 278.366 104.24 281.138 104.427C283.19 104.565 286.863 100.535 289.718 98.4149C289.723 98.5551 289.72 98.6942 289.722 98.83L293.669 98.8235C293.638 98.5318 293.603 98.2433 293.571 97.9554C295.923 100.531 297.953 108.53 299.641 107.904C302.001 107.025 302.838 102.027 304.459 100.01C304.552 100.35 304.659 100.697 304.779 101.042L312.812 104.705C312.707 104.44 312.609 104.176 312.519 103.914C312.941 104.094 313.371 104.206 313.799 104.205C315.939 104.209 318.995 98.263 322.064 98.7271C324.283 99.0617 325.7 105.621 328.584 106.249C331.373 106.858 334.81 104.293 337.947 103.11C337.983 103.321 338.014 103.539 338.041 103.757L341.856 103.411C341.849 103.185 341.843 102.96 341.837 102.734C344.527 103.594 346.715 107.136 349.094 109.251C349.193 109.438 349.291 109.624 349.393 109.811L353.364 111.226C353.295 111.099 353.226 110.972 353.157 110.844C355.676 110.572 358.361 108.468 360.867 107.167C360.883 107.282 360.9 107.397 360.916 107.512L363.016 106.677C363.001 106.554 362.981 106.435 362.967 106.309C363.482 106.175 363.983 106.112 364.467 106.152C368.776 106.506 372.627 112.741 376.16 112.431C377.384 112.323 378.438 111.791 379.379 111.025C379.47 111.14 379.561 111.252 379.655 111.364L382.687 107.792C382.579 107.736 382.468 107.676 382.356 107.6C383.532 105.929 384.579 104.258 385.711 103.367C385.72 103.411 385.725 103.451 385.734 103.495C385.76 103.623 385.778 103.754 385.791 103.888L388.231 104.541C388.205 104.339 388.183 104.134 388.166 103.926C389.752 105.003 391.549 106.742 392.392 106.437C394.029 105.844 395.017 99.6416 396.451 99.7527C398.073 99.8787 397.878 106.205 399.186 106.971C400.581 107.784 403.696 105.815 404.672 107.026C405.765 108.384 403.382 111.359 403.86 112.761C404.148 113.61 406.554 113.242 408.548 113.227C409.303 114.294 410.144 115.402 411.069 116.539C410.642 118.636 409.872 121.189 410.695 121.783C411.382 122.278 412.735 121.124 414.075 119.98C414.998 120.966 415.982 121.962 417.042 122.966C417.136 123.055 417.223 123.146 417.314 123.234L421.587 123.982C421.532 123.864 421.476 123.751 421.421 123.63C421.623 123.732 421.821 123.756 422.017 123.679C423.33 123.163 421.769 117.2 423.05 115.818C423.78 115.033 425.805 116.471 427.482 117.439C427.478 117.462 427.475 117.481 427.472 117.504L429.899 118.112C429.907 118.063 429.915 118.014 429.923 117.965C431.114 116.735 431.547 111.291 432.847 111.269C434.326 111.24 434.796 117.546 436.101 118C437.258 118.404 439.109 116.238 440.341 115.693C440.474 116.629 440.644 117.699 440.843 118.878C440.591 119.255 440.361 119.598 440.271 119.87C440.183 120.123 440.54 120.297 441.121 120.437C441.125 120.461 441.132 120.49 441.136 120.513L443.31 120.907C443.303 120.875 443.3 120.847 443.294 120.815C444.572 121.021 445.889 121.276 446.433 121.786C447.249 122.545 445.164 128.451 446.337 129.047C447.416 129.593 450.422 124.173 451.603 124.403C452.237 124.524 452.881 126.158 453.509 127.689C453.508 127.72 453.507 127.751 453.506 127.782L456.073 128.394C456.077 128.371 456.081 128.345 456.082 128.317C456.262 126.742 456.257 124.909 456.152 123.056C457.863 122.77 461.704 125.036 462.948 124.175C463.233 123.977 463.433 123.556 463.596 123.005C463.569 123.295 463.542 123.581 463.515 123.871L466.396 120.678C466.519 119.455 466.679 118.295 466.846 117.256C468.105 118.812 469.5 122.082 470.821 122.194C472.03 122.296 473.68 120.028 475.166 119.334C476.061 120.393 476.995 121.478 477.909 122.497C478.224 123.582 478.589 124.606 479.272 124.979C479.683 125.204 480.125 125.287 480.57 125.305C481.057 125.779 481.511 126.197 481.913 126.529C482.329 126.871 482.787 127.239 483.268 127.635C482.455 128.577 481.261 129.512 481.044 130.546C480.613 132.588 485.535 135.153 485.477 136.406C485.41 137.887 484.156 141.366 487.288 140.306C488.363 139.941 488.163 134.589 489.567 132.955C491.721 134.922 493.53 136.834 494.092 138.218C494.098 138.231 494.103 138.251 494.108 138.264L497.44 136.713L497.377 134.645C497.926 134.761 498.404 134.741 498.77 134.502C501.059 132.976 499.796 126.422 501.401 125.061C503.708 123.109 508.334 126.687 509.998 125.828C510.885 125.371 511.847 124.112 512.864 123.017C512.891 123.234 512.917 123.459 512.943 123.68L515.221 121.812C515.215 121.61 515.208 121.411 515.203 121.224C515.793 121.04 516.394 121.106 517.005 121.588C518.403 122.693 516.13 128.968 518.065 131.356C518.733 132.181 521.619 130.818 523.43 130.347C523.737 131.221 524.05 132.124 524.367 133.032C523.546 134.84 522.271 136.909 522.636 137.445C523.205 138.284 524.647 138.125 526.046 137.774C526.071 137.84 526.092 137.901 526.116 137.967L527.858 137.45C527.828 137.391 527.799 137.328 527.77 137.269C528.61 137.009 529.243 136.821 529.357 136.983C530.068 138.008 529.141 141.051 531.429 139.196C531.688 138.986 531.677 138.163 531.604 137.14C531.73 137.373 531.868 137.605 532.014 137.834L534.294 133.397C534.08 132.793 533.899 132.202 533.764 131.638C536.378 131.765 539.794 133.556 541.204 132.121C543.225 130.06 542.876 122.883 545.408 122.532C547.275 122.271 548.277 128.562 551.237 130.523C551.768 130.873 552.645 130.793 553.676 130.576C553.671 130.61 553.665 130.648 553.662 130.686L556.426 130.733C556.399 130.442 556.351 130.182 556.29 129.959C557.95 129.603 559.596 129.458 560.611 130.431C562.06 131.82 560.505 137.024 561.529 139.7C561.529 139.843 561.53 139.983 561.531 140.123L564.017 141.841C564.006 141.669 563.995 141.496 563.987 141.329C566.407 141.475 569.858 140.199 570.952 141.309C571.136 141.494 571.286 141.719 571.41 141.968C571.441 143.585 571.782 148.231 571.921 149.54L575.468 151.433C575.593 151.26 575.765 151.113 575.971 151.015C577.838 150.126 579.603 148.353 580.506 148.425C580.504 148.561 580.497 148.695 580.491 148.83L582.464 149.412C582.465 149.33 582.467 149.249 582.472 149.169C584.255 150.247 586.116 152.004 587.868 150.938C589.482 149.955 589.839 145.712 592.879 145.733C593.998 145.743 594.389 147.302 594.651 148.983C594.505 149.285 594.309 149.606 594.061 149.938L595.062 152.687C595.13 152.555 595.201 152.427 595.264 152.301C595.388 152.639 595.543 152.885 595.743 152.999C596.434 153.374 597.72 153.023 599.102 152.533C599.103 152.576 599.108 152.619 599.109 152.658L602.509 151.653C602.518 151.55 602.53 151.451 602.537 151.359C603.399 151.153 604.077 151.15 604.354 151.602C605.364 153.233 602.26 157.277 603.561 158.692C604.346 159.547 606.574 157.745 608.592 156.722C608.577 156.956 608.578 157.165 608.598 157.354L612.293 158.043C612.302 157.917 612.307 157.79 612.315 157.667C613.367 159.569 614.519 162.509 616.074 162.326C617.074 162.208 617.927 161.021 618.724 159.914L618.712 160.179L620.65 158.512L620.697 157.957C620.697 157.957 620.717 157.953 620.725 157.95C622.687 157.659 624.631 161.099 625.975 160.897C628.084 160.579 629.685 154.297 630.999 154.47C631.781 154.573 631.916 156.338 632.11 158.179C632.022 158.289 631.929 158.429 631.829 158.591L632.439 161.614C632.51 161.44 632.574 161.264 632.629 161.091C632.793 161.567 633.008 161.95 633.302 162.18C634.353 162.996 639.124 159.159 640.659 160.569C641.683 161.509 638.82 167.099 639.618 167.848C640.693 168.858 643.649 166.379 644.423 167.031C644.519 167.112 644.608 167.211 644.695 167.326C644.619 167.434 644.551 167.543 644.48 167.648L646.356 172.209C646.392 172.079 646.429 171.945 646.47 171.813C646.699 172.369 646.931 172.743 647.193 172.758C648.188 172.814 649.2 169.169 650.477 168.003C651.234 167.315 653.169 170.983 654.22 169.843C655.021 168.976 654.491 164.129 655.192 163.816C656.186 163.368 656.358 166.022 657.15 166.367C657.957 166.722 662.003 162.528 662.595 163.321C663.178 164.097 658.883 168.414 659.259 169.241C659.932 170.718 663.531 167.947 664.805 169.698C665.881 171.181 660.377 174.063 661.41 175.745C661.927 176.592 666.581 173.623 667.806 174.204C668.667 174.61 668.021 180.019 669.354 180.099C670.329 180.159 671.375 173.962 672.651 173.773C673.655 173.625 675.703 179.437 676.917 179.099C677.81 178.847 677.474 172.629 678.213 172.458C679.147 172.24 680.405 176.461 681.127 176.353C682.152 176.196 683.222 171.704 683.873 171.724C685.242 171.774 684.084 175.435 684.299 175.934C684.736 176.942 687.453 177.733 686.634 178.787C685.996 179.602 681.996 177.837 681.566 178.911C681.417 179.286 683.278 180.194 684.753 181.013C684.581 181.04 684.41 181.067 684.235 181.093L686.054 184.315C686.306 184.247 686.558 184.18 686.8 184.106C686.685 185.978 686.293 188.988 686.816 189.072C688.041 189.27 689.94 183.164 691.356 183.144C692.682 183.125 694.03 189.224 695.361 189.176C696.77 189.124 698.402 182.932 699.648 183.028C701.173 183.15 700.674 189.168 701.649 189.829C702.719 190.552 707.47 187.661 707.458 189.472C708.275 191.305 704.681 194.58 706.532 195.77C707.512 196.401 711.378 191.585 712.572 192.172C713.728 192.746 712.978 199.065 714.144 199.365C715.504 199.713 716.73 193.847 717.81 193.471C718.948 193.077 723.341 195.998 723.824 194.379C724.314 192.741 721.132 188.051 722.544 186.993C723.783 186.065 727.812 190.714 729.367 190.05C730.867 189.409 730.582 183.066 732.037 182.515C733.741 181.867 737.588 186.777 738.733 186.024C740.365 184.951 737.155 182.364 736.356 180.464C735.684 178.868 741.098 176.231 741.403 174.385C741.679 172.718 736.642 169.809 737.062 168.048L737.05 168.073Z" fill="url(#paint0_linear_198_292)"/>
<path d="M737.05 168.073C737.464 166.327 743.383 165.049 743.324 163.312C743.264 161.636 737.696 162.063 736.635 160.489C735.834 159.303 738.495 153.633 736.848 152.55C735.444 151.626 732.128 156.822 731.017 156.616C729.431 156.317 727.54 150.789 726.421 151.356C725.04 152.056 726.817 158.34 725.882 159.143C724.586 160.255 724.214 156.619 723.09 154.833C722.582 154.027 716.993 155.574 716.402 153.642C715.898 151.988 720.92 148.52 720.567 147.115C720.131 145.379 714.286 145.548 713.972 144.188C713.543 142.313 718.56 138.709 718.106 137.52C717.437 135.777 713.298 139.027 711.767 138.679C710.686 138.431 709.444 132.473 707.528 132.892C705.979 133.228 705.693 139.617 704.488 139.919C702.93 140.314 700.868 134.546 699.635 134.661C698.224 134.794 696.005 140.616 694.621 140.028C693.54 139.567 695.296 133.5 694.004 132.393C693.077 131.6 688.255 135.297 687.126 134.092C685.904 132.787 688.96 127.185 687.975 126.027C686.801 124.644 681.576 127.68 680.578 126.554C679.379 125.202 681.967 119.312 680.758 118.412C679.462 117.451 675.849 122.385 674.181 122.058C672.808 121.79 671.576 115.648 669.733 115.882C668.458 116.044 667.335 122.26 666.169 122.227C664.875 122.192 664.387 115.926 663.26 115.698C661.963 115.438 659.089 120.984 658.055 120.538C656.771 119.986 658.667 114.039 657.868 113.321C656.67 112.236 653.782 112.77 653.955 111.698C654.089 110.863 656.765 108.966 656.284 108.087C655.881 107.351 652.092 109.061 651.366 108.494C650.702 107.977 651.418 103.799 650.564 103.572C649.769 103.363 648.371 107.395 647.477 107.557C646.691 107.702 644.299 104.27 643.48 104.785C642.54 105.378 643.204 111.471 642.042 111.679C640.952 111.875 639.716 105.782 638.587 105.689C637.443 105.594 635.115 111.394 634.095 111.055C632.921 110.661 636.887 103.586 636.108 102.941C635.668 102.576 634.558 103.067 633.389 103.247C632.986 103.31 632.601 103.065 632.468 102.68C631.84 100.858 629.911 98.7027 629.63 98.8009C629.156 98.9684 629.965 104.423 628.403 104.481C625.628 104.583 626.867 100.521 626.009 100.073C624.848 99.5753 622.751 102.949 621.136 101.549C620.245 100.774 625.732 97.1531 625.328 96.4757C624.898 95.7594 620.618 98.4592 619.745 98.4462C619.151 98.4395 618.381 94.5027 617.481 95.059C616.911 95.4125 617.711 101.381 616.993 102.024C616.184 102.746 613.704 98.1188 613.109 98.6196C612.911 98.7853 612.997 100.016 612.484 101.293C612.122 102.188 610.992 102.459 610.244 101.838C608.634 100.502 608.47 98.8633 608.471 98.2085C608.474 97.345 614.129 95.9905 614.057 94.9405C613.953 93.4089 611.223 92.6508 611.581 91.2517C612.022 89.5328 615.578 87.9173 615.724 86.8173C615.92 85.361 611.945 86.9438 609.392 87.4969C607.77 85.9992 606.847 82.5493 605.157 83.1871C604.029 83.6136 604.573 89.9237 603.085 90.5594C601.693 91.1524 598.596 85.8872 597.532 86.3084C595.978 86.9217 596.325 93.239 595.373 93.5194C592.743 94.2885 594.502 88.7139 593.818 87.7667C593.057 86.7179 589.608 86.7002 589.969 85.0149C590.248 83.7193 595.888 82.0253 595.531 80.569C595.24 79.3792 589.576 79.2482 589.595 78.3795C589.606 77.9782 588.568 71.2087 587.362 71.3318C586.539 71.416 585.994 77.6669 584.904 77.7932C581.181 78.2195 582.485 72.6608 581.819 70.5695C581.174 68.5554 576.018 68.8938 574.436 66.6161C573.358 65.0669 574.738 58.8034 571.782 57.9275C569.996 57.3953 566.769 63.1168 563.952 63.0189C561.947 62.9512 559.687 56.8407 557.05 57.0508C553.66 57.3214 552.203 63.8437 550.389 64.574C546.853 65.9912 544.361 61.7767 541.135 61.946C538.856 62.1287 536.245 70.8901 533.969 69.4614C531.849 68.1314 532.749 61.5311 530.957 60.5097C528.712 59.2255 524.131 63.7481 522.353 62.8958C519.833 61.6833 519.764 55.0585 518.065 54.5674C514.436 53.5209 513.688 59.0765 512.741 60.1015C510.77 62.2325 507.644 61.9296 508.27 65.5293C508.585 67.343 510.121 68.3385 508.133 68.7192C507.133 68.9105 505.389 62.9763 504.161 63.0882C503.055 63.1888 501.863 69.4011 500.72 69.3484C499.564 69.2976 499.402 63.0644 498.341 62.7654C497.198 62.4455 493.609 67.4227 492.751 66.7108C491.694 65.8351 495.586 61.1741 495.217 59.8903C494.839 58.5857 492.62 58.4486 490.852 57.8534C490.597 56.3477 493.038 51.6813 492.168 50.8708C491.438 50.1873 488.769 55.3012 487.021 55.5733C486.023 55.7262 483.598 50.1083 482.135 50.6822C480.628 51.272 482.056 57.2832 481.229 57.9479C479.851 59.0585 474.863 57.1497 474.632 58.2438C474.259 60.0008 480.301 63.5791 477.186 65.5486C473.589 67.8239 473.6 60.1308 471.303 59.6519C470.328 59.4482 470.265 65.6799 468.755 65.227C467.158 64.7487 467.7 58.3928 466.54 57.915C464.891 57.2344 461.103 62.1446 460.101 61.5259C458.379 60.4538 460.359 54.1593 459.455 53.5873C458.371 52.8973 456.596 58.3568 454.478 59.0148C453.426 59.341 450.38 54.0491 448.631 54.8287C446.501 55.7793 447.224 62.3238 445.677 63.3798C443.731 64.705 439.423 60.6276 437.771 61.5313C435.983 62.5098 434.943 68.863 432.657 68.5406C431.047 68.3158 430.986 61.8356 428.763 60.613C427.244 59.779 422.578 64.0246 420.654 62.6138C418.76 61.2274 419.958 54.6905 418.129 53.5781C416.099 52.3401 411.486 56.815 409.603 55.9185C407.388 54.8638 407.324 48.2358 405.424 47.6658C402.859 46.8956 399.918 52.6359 398.169 52.7646C395.267 52.9784 390.762 51.9069 391.15 54.6624C391.432 56.68 393.075 60.2229 390.806 60.5426C389.332 60.7505 387.726 54.5402 385.815 54.2318C384.146 53.9626 381.01 59.5359 379.363 58.9874C377.59 58.3954 378.234 51.9863 376.888 51.1917C374.78 49.9491 369.236 50.8138 369.45 49.4845C369.505 49.1409 370.857 48.1423 372.372 46.5694C373.549 45.349 372.309 43.3628 370.69 43.8688C368.432 44.574 367.38 44.9933 365.762 44.1704C364.294 43.4223 364.87 41.5663 365.667 39.6878C366.457 37.8314 364.85 35.8481 362.855 36.2005C359.642 36.7748 357.082 37.5902 350.428 34.909C349.251 34.4363 347.93 35.0524 347.524 36.246C346.534 39.1511 344.719 41.0398 342.707 41.4282C339.419 42.0563 339.663 35.1564 336.365 35.411C333.879 35.6027 327.856 43.0815 325.362 42.8343C324.857 42.7838 325.173 34.8339 324.667 34.7601C321.553 34.312 320.196 37.4407 316.887 37.5425C314.154 37.6247 311.056 32.0532 308.32 32.1234C303.635 32.2471 309.596 37.2962 308.619 39.905C307.964 41.6476 304.819 36.5103 301.91 39.1329C299.638 41.1803 308.374 46.1269 300.853 47.6219C298.372 48.113 302.379 55.1018 299.893 55.5067C298.338 55.7597 297.618 49.9944 295.968 49.0969C295.196 48.6777 292.607 54.1881 291.376 54.0943C290.473 54.0261 289.213 47.984 288.03 48.2504C287.114 48.4552 287.598 54.6706 286.502 55.1447C285.611 55.5317 282.364 50.4477 281.349 51.051C279.968 51.8667 281.711 57.8821 280.715 58.6476C279.36 59.6921 276.315 56.0122 275.457 56.823C273.971 58.2184 275.846 65.6577 272.393 64.4072C269.143 63.2282 271.408 58.1576 269.909 56.5481C269.146 55.7276 265.17 59.2708 264.081 57.9172C263.033 56.6169 266.112 51.0885 265.106 50.0818C263.903 48.8803 259.206 52.8147 258.087 52.0336C256.642 51.0295 257.538 44.7424 256.298 44.4455C254.604 44.0406 254.087 49.7882 252.934 50.7066C251.885 51.541 246.712 49.765 246.256 51.7023C245.648 54.2893 245.487 57.173 243.365 55.9009C242.038 55.1018 243.075 48.4538 241.313 47.6272C239.728 46.8872 236.895 52.2962 235.047 52.409C233.452 52.508 230.101 47.4886 228.371 48.8058C227.115 49.7618 229.656 55.4604 228.356 57.3002C226.878 59.3906 221.427 56.7599 219.917 58.0353C218.025 59.6363 218.802 65.9919 216.995 66.7503C214.767 67.6812 211.137 62.2681 209.303 62.7355C206.807 63.3713 207.704 68.7156 206.576 70.4786C205.697 71.848 200.206 72.6244 200.547 75.9147C200.845 78.7718 206.441 81.1157 206.307 83.5892C206.144 86.5774 200.201 89.4275 200.322 91.7678C200.473 94.5973 205.748 94.1502 207.939 95.8868C209.433 97.0731 209.317 103.54 212.459 104.152C214.474 104.547 217.671 98.6887 220.556 98.8247C223.097 98.9478 225.284 105.078 227.31 104.92C229.934 104.716 231.412 98.2316 233.333 97.7046C235.98 96.9769 239.91 101.757 241.634 100.791C242.964 100.048 243.635 99.0486 244.246 98.1553C246.078 99.0048 248.099 99.8655 250.324 100.716L254.518 96.9566C254.459 96.9122 254.4 96.8678 254.342 96.8196C257.12 94.6756 260.892 90.1542 262.761 91.2577C265.034 92.6046 264.552 97.7923 267.093 99.0701C269.512 100.286 273.648 93.2153 276.287 94.0593C278.862 94.8854 278.366 104.24 281.138 104.427C283.19 104.565 286.863 100.535 289.718 98.4149C289.723 98.5551 289.72 98.6942 289.722 98.83L293.669 98.8235C293.638 98.5318 293.603 98.2433 293.571 97.9554C295.923 100.531 297.953 108.53 299.641 107.904C302.001 107.025 302.838 102.027 304.459 100.01C304.552 100.35 304.659 100.697 304.779 101.042L312.812 104.705C312.707 104.44 312.609 104.176 312.519 103.914C312.941 104.094 313.371 104.206 313.799 104.205C315.939 104.209 318.995 98.263 322.064 98.7271C324.283 99.0617 325.7 105.621 328.584 106.249C331.373 106.858 334.81 104.293 337.947 103.11C337.983 103.321 338.014 103.539 338.041 103.757L341.856 103.411C341.849 103.185 341.843 102.96 341.837 102.734C344.527 103.594 346.715 107.136 349.094 109.251C349.193 109.438 349.291 109.624 349.393 109.811L353.364 111.226C353.295 111.099 353.226 110.972 353.157 110.844C355.676 110.572 358.361 108.468 360.867 107.167C360.883 107.282 360.9 107.397 360.916 107.512L363.016 106.677C363.001 106.554 362.981 106.435 362.967 106.309C363.482 106.175 363.983 106.112 364.467 106.152C368.776 106.506 372.627 112.741 376.16 112.431C377.384 112.323 378.438 111.791 379.379 111.025C379.47 111.14 379.561 111.252 379.655 111.364L382.687 107.792C382.579 107.736 382.468 107.676 382.356 107.6C383.532 105.929 384.579 104.258 385.711 103.367C385.72 103.411 385.725 103.451 385.734 103.495C385.76 103.623 385.778 103.754 385.791 103.888L388.231 104.541C388.205 104.339 388.183 104.134 388.166 103.926C389.752 105.003 391.549 106.742 392.392 106.437C394.029 105.844 395.017 99.6416 396.451 99.7527C398.073 99.8787 397.878 106.205 399.186 106.971C400.581 107.784 403.696 105.815 404.672 107.026C405.765 108.384 403.382 111.359 403.86 112.761C404.148 113.61 406.554 113.242 408.548 113.227C409.303 114.294 410.144 115.402 411.069 116.539C410.642 118.636 409.872 121.189 410.695 121.783C411.382 122.278 412.735 121.124 414.075 119.98C414.998 120.966 415.982 121.962 417.042 122.966C417.136 123.055 417.223 123.146 417.314 123.234L421.587 123.982C421.532 123.864 421.476 123.751 421.421 123.63C421.623 123.732 421.821 123.756 422.017 123.679C423.33 123.163 421.769 117.2 423.05 115.818C423.78 115.033 425.805 116.471 427.482 117.439C427.478 117.462 427.475 117.481 427.472 117.504L429.899 118.112C429.907 118.063 429.915 118.014 429.923 117.965C431.114 116.735 431.547 111.291 432.847 111.269C434.326 111.24 434.796 117.546 436.101 118C437.258 118.404 439.109 116.238 440.341 115.693C440.474 116.629 440.644 117.699 440.843 118.878C440.591 119.255 440.361 119.598 440.271 119.87C440.183 120.123 440.54 120.297 441.121 120.437C441.125 120.461 441.132 120.49 441.136 120.513L443.31 120.907C443.303 120.875 443.3 120.847 443.294 120.815C444.572 121.021 445.889 121.276 446.433 121.786C447.249 122.545 445.164 128.451 446.337 129.047C447.416 129.593 450.422 124.173 451.603 124.403C452.237 124.524 452.881 126.158 453.509 127.689C453.508 127.72 453.507 127.751 453.506 127.782L456.073 128.394C456.077 128.371 456.081 128.345 456.082 128.317C456.262 126.742 456.257 124.909 456.152 123.056C457.863 122.77 461.704 125.036 462.948 124.175C463.233 123.977 463.433 123.556 463.596 123.005C463.569 123.295 463.542 123.581 463.515 123.871L466.396 120.678C466.519 119.455 466.679 118.295 466.846 117.256C468.105 118.812 469.5 122.082 470.821 122.194C472.03 122.296 473.68 120.028 475.166 119.334C476.061 120.393 476.995 121.478 477.909 122.497C478.224 123.582 478.589 124.606 479.272 124.979C479.683 125.204 480.125 125.287 480.57 125.305C481.057 125.779 481.511 126.197 481.913 126.529C482.329 126.871 482.787 127.239 483.268 127.635C482.455 128.577 481.261 129.512 481.044 130.546C480.613 132.588 485.535 135.153 485.477 136.406C485.41 137.887 484.156 141.366 487.288 140.306C488.363 139.941 488.163 134.589 489.567 132.955C491.721 134.922 493.53 136.834 494.092 138.218C494.098 138.231 494.103 138.251 494.108 138.264L497.44 136.713L497.377 134.645C497.926 134.761 498.404 134.741 498.77 134.502C501.059 132.976 499.796 126.422 501.401 125.061C503.708 123.109 508.334 126.687 509.998 125.828C510.885 125.371 511.847 124.112 512.864 123.017C512.891 123.234 512.917 123.459 512.943 123.68L515.221 121.812C515.215 121.61 515.208 121.411 515.203 121.224C515.793 121.04 516.394 121.106 517.005 121.588C518.403 122.693 516.13 128.968 518.065 131.356C518.733 132.181 521.619 130.818 523.43 130.347C523.737 131.221 524.05 132.124 524.367 133.032C523.546 134.84 522.271 136.909 522.636 137.445C523.205 138.284 524.647 138.125 526.046 137.774C526.071 137.84 526.092 137.901 526.116 137.967L527.858 137.45C527.828 137.391 527.799 137.328 527.77 137.269C528.61 137.009 529.243 136.821 529.357 136.983C530.068 138.008 529.141 141.051 531.429 139.196C531.688 138.986 531.677 138.163 531.604 137.14C531.73 137.373 531.868 137.605 532.014 137.834L534.294 133.397C534.08 132.793 533.899 132.202 533.764 131.638C536.378 131.765 539.794 133.556 541.204 132.121C543.225 130.06 542.876 122.883 545.408 122.532C547.275 122.271 548.277 128.562 551.237 130.523C551.768 130.873 552.645 130.793 553.676 130.576C553.671 130.61 553.665 130.648 553.662 130.686L556.426 130.733C556.399 130.442 556.351 130.182 556.29 129.959C557.95 129.603 559.596 129.458 560.611 130.431C562.06 131.82 560.505 137.024 561.529 139.7C561.529 139.843 561.53 139.983 561.531 140.123L564.017 141.841C564.006 141.669 563.995 141.496 563.987 141.329C566.407 141.475 569.858 140.199 570.952 141.309C571.136 141.494 571.286 141.719 571.41 141.968C571.441 143.585 571.782 148.231 571.921 149.54L575.468 151.433C575.593 151.26 575.765 151.113 575.971 151.015C577.838 150.126 579.603 148.353 580.506 148.425C580.504 148.561 580.497 148.695 580.491 148.83L582.464 149.412C582.465 149.33 582.467 149.249 582.472 149.169C584.255 150.247 586.116 152.004 587.868 150.938C589.482 149.955 589.839 145.712 592.879 145.733C593.998 145.743 594.389 147.302 594.651 148.983C594.505 149.285 594.309 149.606 594.061 149.938L595.062 152.687C595.13 152.555 595.201 152.427 595.264 152.301C595.388 152.639 595.543 152.885 595.743 152.999C596.434 153.374 597.72 153.023 599.102 152.533C599.103 152.576 599.108 152.619 599.109 152.658L602.509 151.653C602.518 151.55 602.53 151.451 602.537 151.359C603.399 151.153 604.077 151.15 604.354 151.602C605.364 153.233 602.26 157.277 603.561 158.692C604.346 159.547 606.574 157.745 608.592 156.722C608.577 156.956 608.578 157.165 608.598 157.354L612.293 158.043C612.302 157.917 612.307 157.79 612.315 157.667C613.367 159.569 614.519 162.509 616.074 162.326C617.074 162.208 617.927 161.021 618.724 159.914L618.712 160.179L620.65 158.512L620.697 157.957C620.697 157.957 620.717 157.953 620.725 157.95C622.687 157.659 624.631 161.099 625.975 160.897C628.084 160.579 629.685 154.297 630.999 154.47C631.781 154.573 631.916 156.338 632.11 158.179C632.022 158.289 631.929 158.429 631.829 158.591L632.439 161.614C632.51 161.44 632.574 161.264 632.629 161.091C632.793 161.567 633.008 161.95 633.302 162.18C634.353 162.996 639.124 159.159 640.659 160.569C641.683 161.509 638.82 167.099 639.618 167.848C640.693 168.858 643.649 166.379 644.423 167.031C644.519 167.112 644.608 167.211 644.695 167.326C644.619 167.434 644.551 167.543 644.48 167.648L646.356 172.209C646.392 172.079 646.429 171.945 646.47 171.813C646.699 172.369 646.931 172.743 647.193 172.758C648.188 172.814 649.2 169.169 650.477 168.003C651.234 167.315 653.169 170.983 654.22 169.843C655.021 168.976 654.491 164.129 655.192 163.816C656.186 163.368 656.358 166.022 657.15 166.367C657.957 166.722 662.003 162.528 662.595 163.321C663.178 164.097 658.883 168.414 659.259 169.241C659.932 170.718 663.531 167.947 664.805 169.698C665.881 171.181 660.377 174.063 661.41 175.745C661.927 176.592 666.581 173.623 667.806 174.204C668.667 174.61 668.021 180.019 669.354 180.099C670.329 180.159 671.375 173.962 672.651 173.773C673.655 173.625 675.703 179.437 676.917 179.099C677.81 178.847 677.474 172.629 678.213 172.458C679.147 172.24 680.405 176.461 681.127 176.353C682.152 176.196 683.222 171.704 683.873 171.724C685.242 171.774 684.084 175.435 684.299 175.934C684.736 176.942 687.453 177.733 686.634 178.787C685.996 179.602 681.996 177.837 681.566 178.911C681.417 179.286 683.278 180.194 684.753 181.013C684.581 181.04 684.41 181.067 684.235 181.093L686.054 184.315C686.306 184.247 686.558 184.18 686.8 184.106C686.685 185.978 686.293 188.988 686.816 189.072C688.041 189.27 689.94 183.164 691.356 183.144C692.682 183.125 694.03 189.224 695.361 189.176C696.77 189.124 698.402 182.932 699.648 183.028C701.173 183.15 700.674 189.168 701.649 189.829C702.719 190.552 707.47 187.661 707.458 189.472C708.275 191.305 704.681 194.58 706.532 195.77C707.512 196.401 711.378 191.585 712.572 192.172C713.728 192.746 712.978 199.065 714.144 199.365C715.504 199.713 716.73 193.847 717.81 193.471C718.948 193.077 723.341 195.998 723.824 194.379C724.314 192.741 721.132 188.051 722.544 186.993C723.783 186.065 727.812 190.714 729.367 190.05C730.867 189.409 730.582 183.066 732.037 182.515C733.741 181.867 737.588 186.777 738.733 186.024C740.365 184.951 737.155 182.364 736.356 180.464C735.684 178.868 741.098 176.231 741.403 174.385C741.679 172.718 736.642 169.809 737.062 168.048L737.05 168.073Z" fill="#1E4F00" fill-opacity="0.2"/>
<g filter="url(#filter0_d_198_292)">
<path d="M765.017 154.538C765.198 152.047 773.006 148.981 772.544 146.606C772.091 144.317 764.575 146.138 762.777 144.211C761.421 142.757 763.809 134.378 761.32 133.255C759.197 132.296 755.809 140.17 754.245 140.133C752.011 140.074 748.207 132.898 746.803 133.925C745.069 135.192 748.883 143.433 747.782 144.743C746.255 146.558 744.947 141.645 743.016 139.441C742.143 138.445 734.845 141.81 733.611 139.286C732.558 137.125 738.659 131.248 737.866 129.395C736.888 127.106 728.935 128.634 728.206 126.834C727.206 124.354 733.27 118.29 732.387 116.757C731.089 114.51 726.148 119.892 723.977 119.754C722.445 119.653 719.435 111.742 716.908 112.743C714.865 113.547 715.881 122.389 714.301 123.071C712.259 123.96 708.168 116.491 706.508 116.922C704.609 117.417 702.859 125.908 700.838 125.408C699.258 125.014 700.322 116.288 698.311 115.053C696.87 114.17 691.093 120.318 689.284 118.913C687.327 117.39 690.268 109.016 688.667 107.643C686.757 106.003 680.284 111.332 678.672 110.007C676.736 108.415 678.975 99.7479 677.124 98.779C675.14 97.7463 671.289 105.327 668.937 105.247C667.001 105.183 663.964 97.0169 661.495 97.7463C659.788 98.252 659.623 107.041 658.022 107.254C656.245 107.494 654.197 98.992 652.607 98.9281C650.777 98.8589 648.069 107.116 646.559 106.732C644.681 106.259 645.963 97.6664 644.713 96.8572C642.835 95.6328 639.005 97.0063 639.005 95.4944C639.005 94.3179 642.245 91.1184 641.393 90.0164C640.681 89.0954 635.877 92.2842 634.76 91.6667C633.739 91.1024 633.797 85.2039 632.579 85.0814C631.446 84.9696 630.425 90.8203 629.239 91.2408C628.196 91.6135 624.169 87.4291 623.164 88.3182C622.009 89.3403 624.26 97.5653 622.717 98.1083C621.27 98.6193 618.238 90.5221 616.674 90.6446C615.089 90.767 613.185 99.2528 611.716 99.0133C610.025 98.7311 613.887 88.1318 612.679 87.4185C611.998 87.0139 610.589 87.9349 609.03 88.4406C608.493 88.6163 607.913 88.3661 607.647 87.8657C606.386 85.502 603.274 82.9679 602.913 83.1649C602.301 83.5003 604.61 90.8149 602.487 91.2408C598.716 91.9968 599.514 86.1408 598.242 85.7149C596.545 85.289 594.423 90.389 591.907 88.8239C590.519 87.9562 597.221 81.7648 596.519 80.9237C595.774 80.0346 590.518 84.6928 589.322 84.8685C588.508 84.9909 586.587 79.7525 585.481 80.7161C584.779 81.3283 587.189 89.3509 586.348 90.3944C585.401 91.5656 580.991 85.7575 580.289 86.5774C580.055 86.8489 580.444 88.5205 580.023 90.389C579.725 91.6987 578.241 92.3215 577.082 91.6348C574.587 90.1548 574.002 87.9402 573.858 87.0405C573.672 85.8533 581.103 82.739 580.773 81.3123C580.295 79.2308 576.395 78.7942 576.576 76.7926C576.8 74.3331 581.305 71.3252 581.263 69.7814C581.21 67.7371 576.124 70.7929 572.757 72.1185C570.209 70.4202 568.188 65.8845 566.017 67.1356C564.57 67.9714 566.703 76.5211 564.81 77.7242C563.038 78.8475 557.644 72.2995 556.283 73.114C554.293 74.3011 556.16 82.9041 554.921 83.5003C551.495 85.14 552.671 77.0907 551.527 75.9408C550.256 74.6685 545.538 75.4084 545.66 73.0128C545.756 71.1709 553.091 67.5934 552.283 65.6716C551.623 64.1011 543.851 65.1765 543.686 63.9787C543.612 63.425 540.702 54.3536 539.08 54.7901C537.973 55.0883 538.606 63.7977 537.143 64.2129C532.149 65.6237 532.707 57.6968 531.335 54.9711C530.01 52.3466 523.036 53.9543 520.371 51.1754C518.557 49.2855 519.063 40.3738 514.829 39.8255C512.27 39.4901 509.121 48.0664 505.248 48.5562C502.493 48.9076 498.056 41.0127 494.498 41.8857C489.923 43.009 489.37 52.2934 487.051 53.6988C482.529 56.4298 478.194 51.1914 473.821 52.139C470.747 52.8949 469.108 65.5119 465.682 64.0532C462.491 62.6957 462.267 53.4273 459.592 52.4211C456.24 51.1541 450.974 58.3836 448.357 57.6063C444.644 56.499 443.091 47.4116 440.66 47.1135C435.468 46.48 435.67 54.2791 434.601 55.8974C432.378 59.262 428.037 59.5388 429.686 64.346C430.516 66.7682 432.835 67.7957 430.202 68.7593C428.877 69.2437 425.186 61.4766 423.531 61.9025C422.042 62.2858 421.781 71.0857 420.207 71.2667C418.616 71.453 417.02 62.9246 415.504 62.7489C413.871 62.5626 410.063 70.1966 408.733 69.4087C407.094 68.4398 411.387 61.1731 410.6 59.4909C409.797 57.782 406.733 58.0854 404.185 57.6596C403.504 55.6472 405.812 48.6946 404.445 47.7736C403.296 46.9964 400.775 54.6145 398.445 55.3757C397.115 55.8069 392.562 48.6254 390.689 49.738C388.758 50.8826 392.035 58.8254 391.051 59.9221C389.413 61.7534 382.173 60.2362 382.098 61.7907C381.976 64.2874 391.024 67.8649 387.2 71.2614C382.785 75.1848 381.104 64.6122 377.859 64.4631C376.481 64.3992 377.768 72.9756 375.603 72.6881C373.316 72.3846 372.656 63.5315 370.965 63.1322C368.561 62.5626 364.465 70.1487 362.959 69.5205C360.369 68.4292 361.688 59.3418 360.326 58.7562C358.693 58.0482 357.47 65.9431 354.719 67.3166C353.352 67.998 348.022 61.402 345.804 62.8607C343.102 64.6388 345.533 73.4706 343.65 75.2647C341.283 77.5166 334.495 72.8691 332.436 74.4768C330.208 76.2176 330.186 85.1772 326.989 85.2411C324.739 85.289 323.228 76.3986 319.92 75.2115C317.659 74.4023 312.217 81.2697 309.276 79.7578C306.382 78.2725 306.579 69.0254 303.834 67.9022C300.786 66.6511 295.466 73.822 292.695 73.0075C289.434 72.0492 287.886 62.9565 285.163 62.5945C281.487 62.1048 278.732 70.6438 276.37 71.2081C272.449 72.1451 266.055 71.6713 267.194 75.3712C268.024 78.0809 271.05 82.5846 268.018 83.5269C266.05 84.1391 262.486 75.9621 259.805 75.9621C257.464 75.9621 254.406 84.3148 252.033 83.9262C249.48 83.5056 248.948 74.5567 246.932 73.7634C243.778 72.523 236.389 74.94 236.389 73.0661C236.389 72.5816 238.017 70.91 239.74 68.4132C241.081 66.4754 238.948 64.0213 236.846 65.0753C233.915 66.5446 232.57 67.3538 230.176 66.5819C228.006 65.8792 228.383 63.2014 229.059 60.4438C229.729 57.7181 227.096 55.3491 224.447 56.2754C220.181 57.7767 216.861 59.4643 207.175 57.255C205.462 56.8663 203.792 58.0056 203.499 59.7358C202.786 63.9467 200.722 66.9439 198.057 67.9235C193.701 69.5152 192.514 59.9806 188.062 61.0613C184.705 61.8758 178.12 73.4866 174.657 73.6996C173.955 73.7421 172.636 62.7489 171.928 62.7596C167.572 62.8341 166.407 67.4337 161.906 68.3068C158.188 69.0254 152.725 62.0569 149.002 62.7596C142.624 63.968 151.885 69.5844 151.124 73.3855C150.613 75.9248 145.182 69.5631 141.783 73.8114C139.129 77.128 152.161 81.9884 142.209 85.7096C138.927 86.934 145.943 95.6488 142.634 96.7561C140.565 97.4481 138.31 89.6863 135.857 88.8186C134.708 88.414 132.384 96.5591 130.681 96.7028C129.431 96.8093 126.378 88.7866 124.82 89.4148C123.612 89.8993 125.644 98.3319 124.25 99.2262C123.117 99.9556 117.558 93.6897 116.303 94.7437C114.596 96.1705 118.303 104.049 117.112 105.322C115.489 107.057 110.516 102.676 109.521 103.98C107.797 106.227 112 116.033 107.005 115.08C102.302 114.18 104.281 106.711 101.877 104.832C100.653 103.874 95.9989 109.623 94.2116 108.005C92.4934 106.45 95.4829 98.1721 93.8871 97.0116C91.9774 95.6275 86.424 102.074 84.7217 101.249C82.5248 100.19 82.3652 91.3526 80.6045 91.2195C78.2001 91.0385 78.7587 99.0505 77.3863 100.568C76.1362 101.947 68.6731 100.653 68.4762 103.416C68.2156 107.105 68.6305 111.103 65.4495 109.826C63.46 109.022 63.4122 99.6574 60.8216 98.9121C58.4917 98.2467 55.8107 106.307 53.3106 106.871C51.1509 107.361 45.4644 101.207 43.3899 103.4C41.8845 104.992 46.6134 112.258 45.241 115.075C43.6824 118.274 35.6501 115.868 33.8681 117.955C31.634 120.574 34.0968 129.134 31.7935 130.577C28.953 132.35 22.7984 125.716 20.394 126.765C17.1226 128.192 19.527 135.336 18.3726 138.009C17.4737 140.085 10.1382 142.369 11.3297 146.814C12.367 150.673 20.5323 152.654 20.894 156.082C21.3302 160.224 13.8352 165.457 14.5161 168.646C15.3459 172.5 22.458 170.717 25.8358 172.617C28.1391 173.916 29.4051 182.828 33.8362 182.972C36.6768 183.068 39.7567 174.31 43.7303 173.858C47.2305 173.464 51.5711 181.401 54.3053 180.736C57.848 179.873 58.4385 170.637 60.9493 169.487C64.4069 167.901 70.8327 173.597 72.9765 171.888C74.6308 170.573 75.3276 169.051 75.966 167.688C78.6576 168.449 81.6099 169.184 84.8388 169.86L89.7433 163.764C89.6528 163.716 89.5624 163.668 89.472 163.615C92.7966 160.054 96.9564 153.005 99.7544 154.107C103.159 155.454 103.643 162.689 107.398 163.881C110.973 165.015 115.069 154.384 118.862 154.959C122.564 155.523 123.947 168.486 127.777 168.13C130.612 167.863 134.746 161.512 138.182 157.967C138.219 158.158 138.246 158.35 138.278 158.536L143.672 157.653C143.565 157.259 143.453 156.87 143.347 156.482C147.129 159.5 151.667 170.041 153.837 168.806C156.869 167.075 156.912 160.022 158.683 156.891C158.885 157.339 159.108 157.791 159.348 158.238L171.136 161.491C170.934 161.15 170.742 160.81 170.561 160.469C171.178 160.623 171.79 160.682 172.375 160.586C175.301 160.118 178.168 151.27 182.466 151.227C185.573 151.195 188.956 159.894 193.036 160.118C196.983 160.336 201.116 156.05 205.143 153.729C205.238 154.011 205.329 154.304 205.414 154.597L210.553 153.277C210.494 152.968 210.436 152.659 210.377 152.35C214.244 152.936 218.016 157.317 221.734 159.697C221.91 159.931 222.085 160.165 222.266 160.4L228.006 161.464C227.883 161.305 227.761 161.145 227.639 160.985C231.022 160.054 234.229 156.567 237.368 154.224C237.416 154.379 237.463 154.533 237.511 154.687L240.198 153.074C240.15 152.909 240.097 152.75 240.049 152.579C240.724 152.281 241.395 152.084 242.065 152.031C248.033 151.563 254.672 159.276 259.433 158.068C261.082 157.647 262.406 156.684 263.523 155.422C263.672 155.561 263.821 155.694 263.975 155.827L267.332 150.248C267.172 150.194 267.008 150.136 266.837 150.056C268.077 147.501 269.141 144.972 270.492 143.497C270.513 143.556 270.529 143.609 270.55 143.668C270.614 143.838 270.667 144.014 270.715 144.195L274.194 144.551C274.114 144.28 274.04 144.003 273.971 143.721C276.375 144.849 279.216 146.84 280.301 146.234C282.407 145.057 282.391 136.316 284.375 136.151C286.62 135.964 287.748 144.7 289.705 145.462C291.791 146.271 295.615 142.874 297.216 144.322C299.009 145.946 296.408 150.562 297.371 152.382C297.951 153.484 301.158 152.446 303.882 151.983C305.148 153.282 306.541 154.618 308.057 155.976C307.935 158.952 307.446 162.63 308.701 163.264C309.749 163.791 311.345 161.906 312.925 160.038C314.404 161.188 315.967 162.337 317.638 163.482C317.787 163.583 317.925 163.69 318.069 163.791L324.074 163.871C323.973 163.722 323.872 163.578 323.771 163.423C324.069 163.519 324.345 163.509 324.596 163.36C326.276 162.359 322.829 154.512 324.276 152.329C325.101 151.089 328.186 152.617 330.692 153.575C330.692 153.607 330.692 153.633 330.692 153.665L334.144 153.963C334.144 153.894 334.144 153.825 334.144 153.756C335.5 151.802 334.894 144.227 336.665 143.907C338.681 143.54 340.713 152.1 342.596 152.436C344.267 152.734 346.32 149.348 347.884 148.326C348.272 149.582 348.74 151.014 349.272 152.59C349.012 153.165 348.772 153.687 348.708 154.081C348.645 154.448 349.171 154.608 349.996 154.672C350.006 154.703 350.022 154.741 350.033 154.773L353.092 154.831C353.076 154.789 353.065 154.751 353.049 154.709C354.842 154.709 356.698 154.767 357.555 155.348C358.837 156.21 357.289 164.786 359.023 165.345C360.619 165.856 363.534 157.743 365.199 157.796C366.092 157.823 367.332 159.926 368.529 161.89C368.534 161.933 368.539 161.975 368.545 162.018L372.188 162.29C372.188 162.258 372.188 162.22 372.183 162.183C372.082 159.979 371.672 157.461 371.119 154.938C373.396 154.166 379.146 156.428 380.657 154.97C381.003 154.634 381.183 154.011 381.285 153.218C381.311 153.623 381.338 154.022 381.364 154.427L384.599 149.401C384.497 147.692 384.46 146.063 384.46 144.599C386.524 146.457 389.152 150.642 390.982 150.503C392.657 150.375 394.413 146.894 396.291 145.611C397.748 146.867 399.264 148.15 400.738 149.348C401.408 150.769 402.131 152.095 403.147 152.457C403.759 152.675 404.381 152.691 404.993 152.617C405.764 153.16 406.477 153.633 407.1 154.001C407.743 154.379 408.451 154.783 409.196 155.22C408.291 156.694 406.866 158.244 406.796 159.713C406.658 162.614 413.951 165.047 414.148 166.783C414.382 168.832 413.435 173.89 417.483 171.739C418.872 170.999 417.419 163.69 418.978 161.134C422.356 163.36 425.25 165.585 426.324 167.363C426.335 167.379 426.345 167.406 426.356 167.422L430.569 164.552L430.026 161.725C430.803 161.763 431.452 161.629 431.899 161.22C434.691 158.616 431.521 149.891 433.415 147.666C436.138 144.471 443.25 148.363 445.336 146.814C446.447 145.989 447.485 144.046 448.634 142.315C448.719 142.608 448.804 142.912 448.889 143.21L451.591 140.138C451.538 139.861 451.485 139.59 451.437 139.334C452.203 138.951 453.038 138.908 453.98 139.435C456.134 140.644 454.411 149.768 457.581 152.622C458.677 153.607 462.321 151.094 464.693 150.045C465.305 151.179 465.932 152.35 466.565 153.527C465.842 156.194 464.555 159.319 465.172 159.974C466.135 161.001 468.071 160.464 469.906 159.67C469.954 159.756 469.996 159.835 470.044 159.921L472.31 158.824C472.257 158.749 472.204 158.67 472.151 158.595C473.241 158.052 474.066 157.653 474.257 157.85C475.454 159.101 474.858 163.487 477.577 160.432C477.885 160.086 477.688 158.957 477.364 157.568C477.587 157.86 477.827 158.148 478.077 158.43L480.215 151.829C479.79 151.046 479.412 150.274 479.103 149.529C482.705 149.124 487.769 150.828 489.38 148.544C491.689 145.265 489.63 135.48 493.014 134.437C495.508 133.665 498.264 142.087 502.743 144.125C503.546 144.487 504.727 144.184 506.089 143.657C506.089 143.705 506.089 143.758 506.094 143.811L509.881 143.263C509.78 142.869 509.658 142.523 509.525 142.23C511.717 141.373 513.935 140.809 515.536 141.921C517.823 143.508 516.845 151.004 518.834 154.453C518.866 154.65 518.898 154.842 518.93 155.034L522.707 156.844C522.653 156.609 522.6 156.375 522.552 156.146C525.893 155.811 530.329 153.293 532.069 154.576C532.361 154.789 532.617 155.065 532.84 155.38C533.239 157.594 534.728 163.903 535.207 165.67L540.473 167.485C540.606 167.219 540.809 166.98 541.069 166.799C543.426 165.164 545.447 162.337 546.697 162.236C546.724 162.423 546.745 162.609 546.766 162.795L549.591 163.157C549.575 163.046 549.559 162.934 549.548 162.822C552.224 163.908 555.155 165.91 557.315 164.057C559.304 162.348 558.857 156.439 563.017 155.795C564.549 155.561 565.427 157.615 566.156 159.867C566.023 160.315 565.826 160.799 565.56 161.31L567.533 164.866C567.597 164.669 567.666 164.478 567.725 164.291C567.969 164.728 568.235 165.031 568.533 165.143C569.56 165.505 571.241 164.738 573.023 163.759C573.034 163.817 573.05 163.876 573.06 163.929L577.486 161.794C577.475 161.651 577.47 161.512 577.459 161.385C578.592 160.911 579.518 160.756 579.997 161.315C581.736 163.333 578.385 169.578 580.475 171.233C581.736 172.234 584.385 169.263 586.917 167.411C586.949 167.736 586.997 168.023 587.066 168.279L592.269 168.406C592.253 168.231 592.231 168.055 592.215 167.885C594.072 170.264 596.295 174.049 598.381 173.453C599.721 173.07 600.625 171.249 601.471 169.551L601.514 169.918L603.796 167.198L603.737 166.426C603.737 166.426 603.764 166.415 603.774 166.41C606.392 165.574 609.807 169.87 611.599 169.295C614.413 168.39 615.217 159.404 617.052 159.351C618.142 159.319 618.717 161.715 619.387 164.201C619.291 164.371 619.195 164.584 619.094 164.829L620.594 168.848C620.653 168.593 620.701 168.337 620.738 168.087C621.068 168.705 621.446 169.184 621.898 169.434C623.515 170.323 629.191 163.993 631.6 165.59C633.207 166.655 630.526 174.97 631.781 175.822C633.473 176.972 636.968 172.91 638.17 173.634C638.319 173.725 638.462 173.842 638.606 173.98C638.526 174.145 638.457 174.31 638.383 174.47L641.952 180.321C641.973 180.134 641.995 179.943 642.021 179.751C642.457 180.464 642.856 180.927 643.218 180.89C644.59 180.746 645.17 175.513 646.66 173.629C647.543 172.516 650.995 177.126 652.181 175.327C653.086 173.959 651.293 167.416 652.181 166.831C653.442 165.995 654.261 169.604 655.421 169.902C656.602 170.211 661.208 163.551 662.192 164.51C663.161 165.446 658.24 172.33 658.937 173.384C660.182 175.263 664.49 170.658 666.618 172.782C668.416 174.582 661.527 179.762 663.309 181.843C664.203 182.892 669.911 177.781 671.714 178.308C672.98 178.676 673.289 186.251 675.129 186.065C676.475 185.932 676.539 177.185 678.241 176.642C679.581 176.216 683.661 183.749 685.247 183.014C686.412 182.471 684.582 174.001 685.555 173.602C686.784 173.096 689.433 178.617 690.396 178.308C691.763 177.866 692.236 171.457 693.13 171.34C695.013 171.105 694.237 176.392 694.641 177.031C695.46 178.319 699.348 178.803 698.46 180.432C697.769 181.694 691.912 180.156 691.561 181.726C691.438 182.274 694.183 183.11 696.38 183.909C696.151 183.983 695.923 184.058 695.689 184.132L698.886 188.157C699.216 188.008 699.545 187.859 699.859 187.704C700.114 190.302 700.242 194.524 700.976 194.524C702.694 194.524 703.944 185.713 705.875 185.373C707.684 185.053 710.87 193.135 712.679 192.772C714.594 192.389 715.461 183.52 717.184 183.376C719.296 183.206 719.94 191.585 721.419 192.277C723.041 193.033 728.898 188.008 729.281 190.499C730.802 192.836 726.61 198.133 729.403 199.358C730.882 200.007 735.106 192.533 736.866 193.076C738.574 193.608 738.941 202.456 740.601 202.611C742.537 202.786 742.92 194.455 744.313 193.699C745.782 192.906 752.431 195.945 752.734 193.614C753.043 191.255 747.659 185.516 749.356 183.749C750.846 182.2 757.378 187.694 759.357 186.437C761.266 185.224 759.479 176.573 761.346 175.492C763.533 174.225 769.873 180.118 771.272 178.83C773.267 176.993 768.309 174.151 766.799 171.718C765.527 169.673 772.347 164.85 772.357 162.247C772.368 159.894 764.841 157.014 765.027 154.501L765.017 154.538Z" fill="url(#paint1_linear_198_292)"/>
<path d="M765.017 154.538C765.198 152.047 773.006 148.981 772.544 146.606C772.091 144.317 764.575 146.138 762.777 144.211C761.421 142.757 763.809 134.378 761.32 133.255C759.197 132.296 755.809 140.17 754.245 140.133C752.011 140.074 748.207 132.898 746.803 133.925C745.069 135.192 748.883 143.433 747.782 144.743C746.255 146.558 744.947 141.645 743.016 139.441C742.143 138.445 734.845 141.81 733.611 139.286C732.558 137.125 738.659 131.248 737.866 129.395C736.888 127.106 728.935 128.634 728.206 126.834C727.206 124.354 733.27 118.29 732.387 116.757C731.089 114.51 726.148 119.892 723.977 119.754C722.445 119.653 719.435 111.742 716.908 112.743C714.865 113.547 715.881 122.389 714.301 123.071C712.259 123.96 708.168 116.491 706.508 116.922C704.609 117.417 702.859 125.908 700.838 125.408C699.258 125.014 700.322 116.288 698.311 115.053C696.87 114.17 691.093 120.318 689.284 118.913C687.327 117.39 690.268 109.016 688.667 107.643C686.757 106.003 680.284 111.332 678.672 110.007C676.736 108.415 678.975 99.7479 677.124 98.779C675.14 97.7463 671.289 105.327 668.937 105.247C667.001 105.183 663.964 97.0169 661.495 97.7463C659.788 98.252 659.623 107.041 658.022 107.254C656.245 107.494 654.197 98.992 652.607 98.9281C650.777 98.8589 648.069 107.116 646.559 106.732C644.681 106.259 645.963 97.6664 644.713 96.8572C642.835 95.6328 639.005 97.0063 639.005 95.4944C639.005 94.3179 642.245 91.1184 641.393 90.0164C640.681 89.0954 635.877 92.2842 634.76 91.6667C633.739 91.1024 633.797 85.2039 632.579 85.0814C631.446 84.9696 630.425 90.8203 629.239 91.2408C628.196 91.6135 624.169 87.4291 623.164 88.3182C622.009 89.3403 624.26 97.5653 622.717 98.1083C621.27 98.6193 618.238 90.5221 616.674 90.6446C615.089 90.767 613.185 99.2528 611.716 99.0133C610.025 98.7311 613.887 88.1318 612.679 87.4185C611.998 87.0139 610.589 87.9349 609.03 88.4406C608.493 88.6163 607.913 88.3661 607.647 87.8657C606.386 85.502 603.274 82.9679 602.913 83.1649C602.301 83.5003 604.61 90.8149 602.487 91.2408C598.716 91.9968 599.514 86.1408 598.242 85.7149C596.545 85.289 594.423 90.389 591.907 88.8239C590.519 87.9562 597.221 81.7648 596.519 80.9237C595.774 80.0346 590.518 84.6928 589.322 84.8685C588.508 84.9909 586.587 79.7525 585.481 80.7161C584.779 81.3283 587.189 89.3509 586.348 90.3944C585.401 91.5656 580.991 85.7575 580.289 86.5774C580.055 86.8489 580.444 88.5205 580.023 90.389C579.725 91.6987 578.241 92.3215 577.082 91.6348C574.587 90.1548 574.002 87.9402 573.858 87.0405C573.672 85.8533 581.103 82.739 580.773 81.3123C580.295 79.2308 576.395 78.7942 576.576 76.7926C576.8 74.3331 581.305 71.3252 581.263 69.7814C581.21 67.7371 576.124 70.7929 572.757 72.1185C570.209 70.4202 568.188 65.8845 566.017 67.1356C564.57 67.9714 566.703 76.5211 564.81 77.7242C563.038 78.8475 557.644 72.2995 556.283 73.114C554.293 74.3011 556.16 82.9041 554.921 83.5003C551.495 85.14 552.671 77.0907 551.527 75.9408C550.256 74.6685 545.538 75.4084 545.66 73.0128C545.756 71.1709 553.091 67.5934 552.283 65.6716C551.623 64.1011 543.851 65.1765 543.686 63.9787C543.612 63.425 540.702 54.3536 539.08 54.7901C537.973 55.0883 538.606 63.7977 537.143 64.2129C532.149 65.6237 532.707 57.6968 531.335 54.9711C530.01 52.3466 523.036 53.9543 520.371 51.1754C518.557 49.2855 519.063 40.3738 514.829 39.8255C512.27 39.4901 509.121 48.0664 505.248 48.5562C502.493 48.9076 498.056 41.0127 494.498 41.8857C489.923 43.009 489.37 52.2934 487.051 53.6988C482.529 56.4298 478.194 51.1914 473.821 52.139C470.747 52.8949 469.108 65.5119 465.682 64.0532C462.491 62.6957 462.267 53.4273 459.592 52.4211C456.24 51.1541 450.974 58.3836 448.357 57.6063C444.644 56.499 443.091 47.4116 440.66 47.1135C435.468 46.48 435.67 54.2791 434.601 55.8974C432.378 59.262 428.037 59.5388 429.686 64.346C430.516 66.7682 432.835 67.7957 430.202 68.7593C428.877 69.2437 425.186 61.4766 423.531 61.9025C422.042 62.2858 421.781 71.0857 420.207 71.2667C418.616 71.453 417.02 62.9246 415.504 62.7489C413.871 62.5626 410.063 70.1966 408.733 69.4087C407.094 68.4398 411.387 61.1731 410.6 59.4909C409.797 57.782 406.733 58.0854 404.185 57.6596C403.504 55.6472 405.812 48.6946 404.445 47.7736C403.296 46.9964 400.775 54.6145 398.445 55.3757C397.115 55.8069 392.562 48.6254 390.689 49.738C388.758 50.8826 392.035 58.8254 391.051 59.9221C389.413 61.7534 382.173 60.2362 382.098 61.7907C381.976 64.2874 391.024 67.8649 387.2 71.2614C382.785 75.1848 381.104 64.6122 377.859 64.4631C376.481 64.3992 377.768 72.9756 375.603 72.6881C373.316 72.3846 372.656 63.5315 370.965 63.1322C368.561 62.5626 364.465 70.1487 362.959 69.5205C360.369 68.4292 361.688 59.3418 360.326 58.7562C358.693 58.0482 357.47 65.9431 354.719 67.3166C353.352 67.998 348.022 61.402 345.804 62.8607C343.102 64.6388 345.533 73.4706 343.65 75.2647C341.283 77.5166 334.495 72.8691 332.436 74.4768C330.208 76.2176 330.186 85.1772 326.989 85.2411C324.739 85.289 323.228 76.3986 319.92 75.2115C317.659 74.4023 312.217 81.2697 309.276 79.7578C306.382 78.2725 306.579 69.0254 303.834 67.9022C300.786 66.6511 295.466 73.822 292.695 73.0075C289.434 72.0492 287.886 62.9565 285.163 62.5945C281.487 62.1048 278.732 70.6438 276.37 71.2081C272.449 72.1451 266.055 71.6713 267.194 75.3712C268.024 78.0809 271.05 82.5846 268.018 83.5269C266.05 84.1391 262.486 75.9621 259.805 75.9621C257.464 75.9621 254.406 84.3148 252.033 83.9262C249.48 83.5056 248.948 74.5567 246.932 73.7634C243.778 72.523 236.389 74.94 236.389 73.0661C236.389 72.5816 238.017 70.91 239.74 68.4132C241.081 66.4754 238.948 64.0213 236.846 65.0753C233.915 66.5446 232.57 67.3538 230.176 66.5819C228.006 65.8792 228.383 63.2014 229.059 60.4438C229.729 57.7181 227.096 55.3491 224.447 56.2754C220.181 57.7767 216.861 59.4643 207.175 57.255C205.462 56.8663 203.792 58.0056 203.499 59.7358C202.786 63.9467 200.722 66.9439 198.057 67.9235C193.701 69.5152 192.514 59.9806 188.062 61.0613C184.705 61.8758 178.12 73.4866 174.657 73.6996C173.955 73.7421 172.636 62.7489 171.928 62.7596C167.572 62.8341 166.407 67.4337 161.906 68.3068C158.188 69.0254 152.725 62.0569 149.002 62.7596C142.624 63.968 151.885 69.5844 151.124 73.3855C150.613 75.9248 145.182 69.5631 141.783 73.8114C139.129 77.128 152.161 81.9884 142.209 85.7096C138.927 86.934 145.943 95.6488 142.634 96.7561C140.565 97.4481 138.31 89.6863 135.857 88.8186C134.708 88.414 132.384 96.5591 130.681 96.7028C129.431 96.8093 126.378 88.7866 124.82 89.4148C123.612 89.8993 125.644 98.3319 124.25 99.2262C123.117 99.9556 117.558 93.6897 116.303 94.7437C114.596 96.1705 118.303 104.049 117.112 105.322C115.489 107.057 110.516 102.676 109.521 103.98C107.797 106.227 112 116.033 107.005 115.08C102.302 114.18 104.281 106.711 101.877 104.832C100.653 103.874 95.9989 109.623 94.2116 108.005C92.4934 106.45 95.4829 98.1721 93.8871 97.0116C91.9774 95.6275 86.424 102.074 84.7217 101.249C82.5248 100.19 82.3652 91.3526 80.6045 91.2195C78.2001 91.0385 78.7587 99.0505 77.3863 100.568C76.1362 101.947 68.6731 100.653 68.4762 103.416C68.2156 107.105 68.6305 111.103 65.4495 109.826C63.46 109.022 63.4122 99.6574 60.8216 98.9121C58.4917 98.2467 55.8107 106.307 53.3106 106.871C51.1509 107.361 45.4644 101.207 43.3899 103.4C41.8845 104.992 46.6134 112.258 45.241 115.075C43.6824 118.274 35.6501 115.868 33.8681 117.955C31.634 120.574 34.0968 129.134 31.7935 130.577C28.953 132.35 22.7984 125.716 20.394 126.765C17.1226 128.192 19.527 135.336 18.3726 138.009C17.4737 140.085 10.1382 142.369 11.3297 146.814C12.367 150.673 20.5323 152.654 20.894 156.082C21.3302 160.224 13.8352 165.457 14.5161 168.646C15.3459 172.5 22.458 170.717 25.8358 172.617C28.1391 173.916 29.4051 182.828 33.8362 182.972C36.6768 183.068 39.7567 174.31 43.7303 173.858C47.2305 173.464 51.5711 181.401 54.3053 180.736C57.848 179.873 58.4385 170.637 60.9493 169.487C64.4069 167.901 70.8327 173.597 72.9765 171.888C74.6308 170.573 75.3276 169.051 75.966 167.688C78.6576 168.449 81.6099 169.184 84.8388 169.86L89.7433 163.764C89.6528 163.716 89.5624 163.668 89.472 163.615C92.7966 160.054 96.9564 153.005 99.7544 154.107C103.159 155.454 103.643 162.689 107.398 163.881C110.973 165.015 115.069 154.384 118.862 154.959C122.564 155.523 123.947 168.486 127.777 168.13C130.612 167.863 134.746 161.512 138.182 157.967C138.219 158.158 138.246 158.35 138.278 158.536L143.672 157.653C143.565 157.259 143.453 156.87 143.347 156.482C147.129 159.5 151.667 170.041 153.837 168.806C156.869 167.075 156.912 160.022 158.683 156.891C158.885 157.339 159.108 157.791 159.348 158.238L171.136 161.491C170.934 161.15 170.742 160.81 170.561 160.469C171.178 160.623 171.79 160.682 172.375 160.586C175.301 160.118 178.168 151.27 182.466 151.227C185.573 151.195 188.956 159.894 193.036 160.118C196.983 160.336 201.116 156.05 205.143 153.729C205.238 154.011 205.329 154.304 205.414 154.597L210.553 153.277C210.494 152.968 210.436 152.659 210.377 152.35C214.244 152.936 218.016 157.317 221.734 159.697C221.91 159.931 222.085 160.165 222.266 160.4L228.006 161.464C227.883 161.305 227.761 161.145 227.639 160.985C231.022 160.054 234.229 156.567 237.368 154.224C237.416 154.379 237.463 154.533 237.511 154.687L240.198 153.074C240.15 152.909 240.097 152.75 240.049 152.579C240.724 152.281 241.395 152.084 242.065 152.031C248.033 151.563 254.672 159.276 259.433 158.068C261.082 157.647 262.406 156.684 263.523 155.422C263.672 155.561 263.821 155.694 263.975 155.827L267.332 150.248C267.172 150.194 267.008 150.136 266.837 150.056C268.077 147.501 269.141 144.972 270.492 143.497C270.513 143.556 270.529 143.609 270.55 143.668C270.614 143.838 270.667 144.014 270.715 144.195L274.194 144.551C274.114 144.28 274.04 144.003 273.971 143.721C276.375 144.849 279.216 146.84 280.301 146.234C282.407 145.057 282.391 136.316 284.375 136.151C286.62 135.964 287.748 144.7 289.705 145.462C291.791 146.271 295.615 142.874 297.216 144.322C299.009 145.946 296.408 150.562 297.371 152.382C297.951 153.484 301.158 152.446 303.882 151.983C305.148 153.282 306.541 154.618 308.057 155.976C307.935 158.952 307.446 162.63 308.701 163.264C309.749 163.791 311.345 161.906 312.925 160.038C314.404 161.188 315.967 162.337 317.638 163.482C317.787 163.583 317.925 163.69 318.069 163.791L324.074 163.871C323.973 163.722 323.872 163.578 323.771 163.423C324.069 163.519 324.345 163.509 324.596 163.36C326.276 162.359 322.829 154.512 324.276 152.329C325.101 151.089 328.186 152.617 330.692 153.575C330.692 153.607 330.692 153.633 330.692 153.665L334.144 153.963C334.144 153.894 334.144 153.825 334.144 153.756C335.5 151.802 334.894 144.227 336.665 143.907C338.681 143.54 340.713 152.1 342.596 152.436C344.267 152.734 346.32 149.348 347.884 148.326C348.272 149.582 348.74 151.014 349.272 152.59C349.012 153.165 348.772 153.687 348.708 154.081C348.645 154.448 349.171 154.608 349.996 154.672C350.006 154.703 350.022 154.741 350.033 154.773L353.092 154.831C353.076 154.789 353.065 154.751 353.049 154.709C354.842 154.709 356.698 154.767 357.555 155.348C358.837 156.21 357.289 164.786 359.023 165.345C360.619 165.856 363.534 157.743 365.199 157.796C366.092 157.823 367.332 159.926 368.529 161.89C368.534 161.933 368.539 161.975 368.545 162.018L372.188 162.29C372.188 162.258 372.188 162.22 372.183 162.183C372.082 159.979 371.672 157.461 371.119 154.938C373.396 154.166 379.146 156.428 380.657 154.97C381.003 154.634 381.183 154.011 381.285 153.218C381.311 153.623 381.338 154.022 381.364 154.427L384.599 149.401C384.497 147.692 384.46 146.063 384.46 144.599C386.524 146.457 389.152 150.642 390.982 150.503C392.657 150.375 394.413 146.894 396.291 145.611C397.748 146.867 399.264 148.15 400.738 149.348C401.408 150.769 402.131 152.095 403.147 152.457C403.759 152.675 404.381 152.691 404.993 152.617C405.764 153.16 406.477 153.633 407.1 154.001C407.743 154.379 408.451 154.783 409.196 155.22C408.291 156.694 406.866 158.244 406.796 159.713C406.658 162.614 413.951 165.047 414.148 166.783C414.382 168.832 413.435 173.89 417.483 171.739C418.872 170.999 417.419 163.69 418.978 161.134C422.356 163.36 425.25 165.585 426.324 167.363C426.335 167.379 426.345 167.406 426.356 167.422L430.569 164.552L430.026 161.725C430.803 161.763 431.452 161.629 431.899 161.22C434.691 158.616 431.521 149.891 433.415 147.666C436.138 144.471 443.25 148.363 445.336 146.814C446.447 145.989 447.485 144.046 448.634 142.315C448.719 142.608 448.804 142.912 448.889 143.21L451.591 140.138C451.538 139.861 451.485 139.59 451.437 139.334C452.203 138.951 453.038 138.908 453.98 139.435C456.134 140.644 454.411 149.768 457.581 152.622C458.677 153.607 462.321 151.094 464.693 150.045C465.305 151.179 465.932 152.35 466.565 153.527C465.842 156.194 464.555 159.319 465.172 159.974C466.135 161.001 468.071 160.464 469.906 159.67C469.954 159.756 469.996 159.835 470.044 159.921L472.31 158.824C472.257 158.749 472.204 158.67 472.151 158.595C473.241 158.052 474.066 157.653 474.257 157.85C475.454 159.101 474.858 163.487 477.577 160.432C477.885 160.086 477.688 158.957 477.364 157.568C477.587 157.86 477.827 158.148 478.077 158.43L480.215 151.829C479.79 151.046 479.412 150.274 479.103 149.529C482.705 149.124 487.769 150.828 489.38 148.544C491.689 145.265 489.63 135.48 493.014 134.437C495.508 133.665 498.264 142.087 502.743 144.125C503.546 144.487 504.727 144.184 506.089 143.657C506.089 143.705 506.089 143.758 506.094 143.811L509.881 143.263C509.78 142.869 509.658 142.523 509.525 142.23C511.717 141.373 513.935 140.809 515.536 141.921C517.823 143.508 516.845 151.004 518.834 154.453C518.866 154.65 518.898 154.842 518.93 155.034L522.707 156.844C522.653 156.609 522.6 156.375 522.552 156.146C525.893 155.811 530.329 153.293 532.069 154.576C532.361 154.789 532.617 155.065 532.84 155.38C533.239 157.594 534.728 163.903 535.207 165.67L540.473 167.485C540.606 167.219 540.809 166.98 541.069 166.799C543.426 165.164 545.447 162.337 546.697 162.236C546.724 162.423 546.745 162.609 546.766 162.795L549.591 163.157C549.575 163.046 549.559 162.934 549.548 162.822C552.224 163.908 555.155 165.91 557.315 164.057C559.304 162.348 558.857 156.439 563.017 155.795C564.549 155.561 565.427 157.615 566.156 159.867C566.023 160.315 565.826 160.799 565.56 161.31L567.533 164.866C567.597 164.669 567.666 164.478 567.725 164.291C567.969 164.728 568.235 165.031 568.533 165.143C569.56 165.505 571.241 164.738 573.023 163.759C573.034 163.817 573.05 163.876 573.06 163.929L577.486 161.794C577.475 161.651 577.47 161.512 577.459 161.385C578.592 160.911 579.518 160.756 579.997 161.315C581.736 163.333 578.385 169.578 580.475 171.233C581.736 172.234 584.385 169.263 586.917 167.411C586.949 167.736 586.997 168.023 587.066 168.279L592.269 168.406C592.253 168.231 592.231 168.055 592.215 167.885C594.072 170.264 596.295 174.049 598.381 173.453C599.721 173.07 600.625 171.249 601.471 169.551L601.514 169.918L603.796 167.198L603.737 166.426C603.737 166.426 603.764 166.415 603.774 166.41C606.392 165.574 609.807 169.87 611.599 169.295C614.413 168.39 615.217 159.404 617.052 159.351C618.142 159.319 618.717 161.715 619.387 164.201C619.291 164.371 619.195 164.584 619.094 164.829L620.594 168.848C620.653 168.593 620.701 168.337 620.738 168.087C621.068 168.705 621.446 169.184 621.898 169.434C623.515 170.323 629.191 163.993 631.6 165.59C633.207 166.655 630.526 174.97 631.781 175.822C633.473 176.972 636.968 172.91 638.17 173.634C638.319 173.725 638.462 173.842 638.606 173.98C638.526 174.145 638.457 174.31 638.383 174.47L641.952 180.321C641.973 180.134 641.995 179.943 642.021 179.751C642.457 180.464 642.856 180.927 643.218 180.89C644.59 180.746 645.17 175.513 646.66 173.629C647.543 172.516 650.995 177.126 652.181 175.327C653.086 173.959 651.293 167.416 652.181 166.831C653.442 165.995 654.261 169.604 655.421 169.902C656.602 170.211 661.208 163.551 662.192 164.51C663.161 165.446 658.24 172.33 658.937 173.384C660.182 175.263 664.49 170.658 666.618 172.782C668.416 174.582 661.527 179.762 663.309 181.843C664.203 182.892 669.911 177.781 671.714 178.308C672.98 178.676 673.289 186.251 675.129 186.065C676.475 185.932 676.539 177.185 678.241 176.642C679.581 176.216 683.661 183.749 685.247 183.014C686.412 182.471 684.582 174.001 685.555 173.602C686.784 173.096 689.433 178.617 690.396 178.308C691.763 177.866 692.236 171.457 693.13 171.34C695.013 171.105 694.237 176.392 694.641 177.031C695.46 178.319 699.348 178.803 698.46 180.432C697.769 181.694 691.912 180.156 691.561 181.726C691.438 182.274 694.183 183.11 696.38 183.909C696.151 183.983 695.923 184.058 695.689 184.132L698.886 188.157C699.216 188.008 699.545 187.859 699.859 187.704C700.114 190.302 700.242 194.524 700.976 194.524C702.694 194.524 703.944 185.713 705.875 185.373C707.684 185.053 710.87 193.135 712.679 192.772C714.594 192.389 715.461 183.52 717.184 183.376C719.296 183.206 719.94 191.585 721.419 192.277C723.041 193.033 728.898 188.008 729.281 190.499C730.802 192.836 726.61 198.133 729.403 199.358C730.882 200.007 735.106 192.533 736.866 193.076C738.574 193.608 738.941 202.456 740.601 202.611C742.537 202.786 742.92 194.455 744.313 193.699C745.782 192.906 752.431 195.945 752.734 193.614C753.043 191.255 747.659 185.516 749.356 183.749C750.846 182.2 757.378 187.694 759.357 186.437C761.266 185.224 759.479 176.573 761.346 175.492C763.533 174.225 769.873 180.118 771.272 178.83C773.267 176.993 768.309 174.151 766.799 171.718C765.527 169.673 772.347 164.85 772.357 162.247C772.368 159.894 764.841 157.014 765.027 154.501L765.017 154.538Z" fill="url(#paint2_linear_198_292)" fill-opacity="0.43"/>
</g>
<g filter="url(#filter1_d_198_292)">
<path d="M759.702 154.4C759.548 158.526 763.08 161.06 765.676 162.913C765.697 162.929 765.719 162.939 765.735 162.955C765.623 163.089 765.516 163.211 765.421 163.317C763.889 165.074 761.857 167.417 761.367 170.057C760.394 170.153 759.49 170.44 758.665 170.92C755.527 172.735 755.128 176.206 755.048 179.538C753.42 178.777 751.824 178.186 750.117 178.186C748.324 178.186 746.686 178.862 745.505 180.097C743.053 182.653 743.452 185.677 744.494 188.29C743.494 188.36 742.579 188.61 741.771 189.046C741.483 189.201 741.212 189.376 740.967 189.563C740.302 188.881 739.478 188.349 738.43 188.024C737.855 187.849 737.26 187.758 736.659 187.758C735.733 187.758 734.898 187.95 734.132 188.28C733.212 186.001 731.041 184.511 728.451 184.511C727.046 184.511 725.738 184.947 724.477 185.512C723.472 182.136 721.77 178.085 717.237 178.085C717.073 178.085 716.908 178.09 716.743 178.106C713.785 178.351 712.216 180.342 711.189 182.69C709.838 181.167 708.216 180.076 705.971 180.076C705.625 180.076 705.274 180.108 704.934 180.167C704.769 180.199 704.609 180.231 704.45 180.273L704.386 179.65L703.891 179.89C703.88 179.299 703.779 178.713 703.593 178.138C702.864 175.897 701.146 174.726 699.753 173.997C699.721 173.267 699.651 172.49 699.497 171.718C698.662 167.539 695.598 166.059 693.231 166.059C692.97 166.059 692.71 166.075 692.449 166.107C690.374 166.368 689.119 167.502 688.305 168.891C687.544 168.519 686.683 168.295 685.704 168.295C684.949 168.295 684.214 168.439 683.518 168.726C681.901 169.392 680.98 170.462 680.48 171.75C679.826 171.494 679.119 171.351 678.337 171.351C677.746 171.351 677.161 171.441 676.602 171.622C675.406 172.006 674.507 172.644 673.81 173.464C673.608 173.379 673.4 173.31 673.177 173.246C672.868 173.155 672.554 173.092 672.23 173.049C672.155 171.707 671.629 170.345 670.357 169.067C669.48 168.189 668.405 167.56 667.224 167.225C667.926 164.952 667.895 162.695 665.873 160.736C664.815 159.708 663.41 159.144 661.926 159.144C659.463 159.144 657.692 160.581 655.857 162.455C654.984 161.864 653.888 161.438 652.532 161.438C651.362 161.438 650.218 161.79 649.218 162.444C647.064 163.871 646.574 165.99 646.596 168.199C644.973 168.311 643.489 169.088 642.473 170.366L638.542 163.908L638.021 168.274C637.946 168.274 637.877 168.274 637.803 168.274C637.664 168.274 637.531 168.274 637.398 168.284C637.515 165.511 637.031 162.87 634.51 161.199C633.382 160.453 632.047 160.054 630.648 160.054C628.329 160.054 626.244 161.108 624.35 162.301C623.621 159.591 622.573 155.838 619.493 154.539L617.887 151.526L617.493 154.086C617.349 154.076 617.2 154.076 617.052 154.076H616.887C612.301 154.203 610.86 158.606 609.806 161.822C609.737 162.04 609.652 162.285 609.567 162.546C608.487 161.939 607.242 161.374 605.844 161.14L604.7 151.105L599.035 162.503L598.093 162.844L598.2 164.185L597.338 165.915C597.013 165.474 596.699 165.048 596.391 164.654L591.401 158.255L591.343 157.637L591.071 157.834L584.917 149.939L586.146 161.417L585.71 161.731C585.518 160.395 585.023 159.064 583.997 157.877C582.773 156.455 581.028 155.678 579.081 155.678C578.337 155.678 577.587 155.79 576.778 156.019L576.709 155.694L574.666 156.812L571.906 157.967L571.927 158.313L571.315 158.649L571.188 158.255C570.661 156.631 569.464 152.958 566.506 151.313L566.427 151.174L566.4 151.259C565.506 150.786 564.458 150.493 563.224 150.493C562.873 150.493 562.522 150.52 562.176 150.573C556.543 151.446 554.756 156.386 553.899 158.989C553.676 158.888 553.458 158.787 553.266 158.702C552.713 158.446 552.139 158.18 551.527 157.935L543.021 154.486L543.479 157.85C542.245 158.548 541.207 159.554 540.191 160.544C539.973 160.751 539.76 160.964 539.542 161.172C538.968 158.766 538.292 155.785 538.053 154.48L537.84 153.314L537.154 152.346C536.59 151.552 535.936 150.882 535.202 150.339C533.946 149.412 532.436 148.938 530.712 148.938C528.792 148.938 526.898 149.529 525.063 150.099C524.409 150.301 523.701 150.525 523.079 150.685C522.882 149.694 522.728 148.369 522.627 147.453C522.196 143.695 521.754 139.814 518.552 137.594C517.057 136.556 515.312 136.029 513.371 136.029C512.536 136.029 511.722 136.13 510.945 136.284L510.934 136.124L509.78 136.566C508.972 136.795 508.232 137.061 507.578 137.317L504.11 138.669C503.227 137.759 502.136 136.183 501.477 135.219C499.503 132.355 497.264 129.103 493.322 129.103C492.678 129.103 492.04 129.198 491.428 129.39C486.029 131.056 485.667 137.03 485.407 141.39C485.353 142.257 485.279 143.498 485.157 144.461C484.683 144.44 484.156 144.397 483.614 144.349C482.624 144.27 481.502 144.179 480.38 144.179C479.699 144.179 479.082 144.211 478.491 144.28L471.47 145.073L474.167 151.606C474.262 151.834 474.358 152.063 474.465 152.292L474.39 152.521C474.284 152.516 474.177 152.511 474.076 152.511C473.406 152.511 472.778 152.628 472.182 152.814L471.22 151.031C470.587 149.859 469.959 148.694 469.353 147.56L467.017 143.21L462.512 145.207C461.937 145.462 461.352 145.755 460.778 146.058C460.708 145.404 460.655 144.759 460.618 144.27C460.331 140.745 460.012 136.758 456.559 134.82C455.293 134.112 453.953 133.75 452.58 133.75C452.272 133.75 451.963 133.766 451.66 133.803L450.506 129.843L446.511 135.869L445.426 136.417L445.591 137.264L444.176 139.399C443.883 139.84 443.596 140.293 443.314 140.745C443.123 141.049 442.883 141.427 442.654 141.773C442.319 141.72 441.968 141.656 441.644 141.602C440.218 141.352 438.606 141.07 436.915 141.07C432.893 141.07 430.579 142.79 429.345 144.232C427.053 146.915 427.334 150.504 427.606 153.969C427.659 154.629 427.728 155.518 427.755 156.322L423.499 156.131L423.872 158.063C423.249 157.627 422.584 157.174 421.871 156.706L417.275 153.682L414.408 158.377C414.169 158.771 413.961 159.186 413.791 159.612C413.547 159.458 413.27 159.282 412.993 159.101C413.222 158.766 413.467 158.404 413.701 158.026L416.552 153.368L411.823 150.637C411.084 150.211 410.387 149.806 409.754 149.433C409.302 149.167 408.722 148.784 408.03 148.3L406.344 147.107L405.557 147.208C405.541 147.176 404.998 146.01 404.998 146.01L404.051 145.244C402.748 144.184 401.296 142.965 399.732 141.613L396.636 138.935L393.258 141.246C392.258 141.927 391.439 142.768 390.71 143.604C390.684 143.578 390.662 143.551 390.641 143.524C389.795 142.539 388.923 141.517 387.987 140.676L379.103 132.675V144.637C379.114 145.755 379.135 146.878 379.172 147.985L377.811 150.104C377.353 150.046 376.843 149.966 376.358 149.897C375.045 149.694 373.688 149.487 372.348 149.487C371.236 149.487 370.262 149.63 369.379 149.934L364.869 151.462L365.097 152.511C364.087 152.516 363.214 152.75 362.443 153.139C362.012 152.308 361.384 151.568 360.491 150.967C358.56 149.668 356.145 149.455 353.778 149.428C353.485 148.534 353.198 147.65 352.926 146.782L350.836 140.059L344.942 143.902C344.596 144.126 344.272 144.376 343.963 144.637C342.506 141.666 340.554 138.605 336.755 138.605C336.399 138.605 336.037 138.637 335.681 138.701C331.112 139.532 330.335 143.998 329.931 147.602C328.431 147.038 326.893 146.58 325.335 146.58C323.026 146.58 321.01 147.618 319.813 149.428C318.451 151.478 318.398 153.852 318.728 156.274L315.276 155.172L313.446 153.751V153.714L311.573 152.037C310.217 150.823 308.898 149.561 307.653 148.289L305.706 146.298L303.121 146.734C303.211 144.648 302.802 142.257 300.754 140.399C299.498 139.26 297.897 138.659 296.131 138.659C294.753 138.659 293.493 139.031 292.397 139.441C292.37 139.367 292.344 139.297 292.322 139.228C291.067 135.693 289.349 130.854 284.418 130.854C284.247 130.854 284.077 130.859 283.902 130.875C279.141 131.275 277.987 135.88 277.215 139.43C276.88 139.26 276.545 139.09 276.199 138.925L274.109 137.945L272.486 133.441L270.087 136.061L266.066 134.176L267.3 139.106L266.544 139.926C264.885 141.736 263.794 144.041 262.635 146.479C262.433 146.899 262.23 147.325 262.023 147.757L260.592 150.706L259.518 151.92C258.954 152.558 258.539 152.787 258.252 152.889C257.368 152.761 255.145 151.488 253.799 150.716C250.522 148.837 246.809 146.713 242.575 146.713C242.256 146.713 241.942 146.724 241.628 146.75C241.32 146.777 241.011 146.814 240.697 146.868L240.267 145.43L236.139 148.513L233.612 149.636L233.798 150.264C232.904 150.951 232.043 151.68 231.208 152.388C229.58 153.762 227.755 155.311 226.473 155.795L225.042 155.529L224.585 155.236C223.596 154.603 222.489 153.698 221.319 152.745C218.436 150.392 215.164 147.719 211.153 147.112L208.371 146.692L208.105 145.893L207.063 146.495L203.733 145.989L204.148 148.172L202.477 149.135C201.031 149.966 199.679 150.94 198.365 151.882C197.009 152.857 194.849 154.406 193.706 154.752C193.02 154.156 191.945 152.793 191.264 151.93C189.035 149.114 186.514 145.92 182.476 145.92H182.402C177.258 145.973 174.189 150.349 171.949 153.549C171.63 154.006 171.221 154.592 170.853 155.077L162.757 153.038L159.199 145.164L154.039 154.289C153.193 155.779 152.688 157.504 152.257 159.234C150.523 156.588 148.709 153.98 146.645 152.34L141.868 148.534L141.559 146.836L140.767 147.655L133.681 142.007L136.527 152.031L134.346 154.283C133.165 155.502 131.969 156.945 130.814 158.34C130.197 159.085 129.383 160.065 128.601 160.948C128.41 160.48 128.229 160.022 128.08 159.644C126.383 155.337 124.463 150.45 119.643 149.721C119.282 149.668 118.909 149.636 118.542 149.636C114.196 149.636 111.404 153.149 108.941 156.242C108.76 156.466 108.552 156.727 108.334 157.004C108.26 156.849 108.185 156.695 108.122 156.556C106.856 153.9 105.281 150.599 101.696 149.178C100.877 148.853 100.009 148.688 99.1211 148.688C94.589 148.688 91.4612 152.66 88.1525 156.865C87.211 158.058 86.3279 159.186 85.5673 160.001L82.0298 163.791C80.4393 163.408 78.8914 163.003 77.3966 162.583L73.0453 161.348L71.1304 165.452C70.9655 165.804 70.8272 166.102 70.6942 166.363C70.4016 166.235 70.109 166.107 69.8537 165.995C67.6142 165.01 65.0822 163.898 62.348 163.898C61.0447 163.898 59.8213 164.153 58.7148 164.664C55.5285 166.123 54.3742 169.45 53.2571 172.671C53.1667 172.932 53.0603 173.235 52.9486 173.555C50.6293 171.25 47.7568 168.54 43.9694 168.54C43.6822 168.54 43.3949 168.556 43.113 168.588C38.6979 169.088 35.969 172.831 33.7827 175.86C33.5274 175.333 33.2933 174.811 33.1178 174.412C31.9475 171.814 30.8464 169.354 28.4314 167.997C26.2451 166.762 23.7929 166.48 21.5906 166.272C21.5906 166.267 21.6013 166.261 21.6066 166.256C23.8407 163.392 26.6228 159.83 26.1706 155.545C25.7238 151.27 22.1066 148.976 19.2022 147.134C18.6384 146.777 17.8511 146.277 17.2234 145.824C17.7394 145.425 18.3511 145.004 18.766 144.717C20.5161 143.508 22.33 142.263 23.245 140.138C24.0801 138.201 24.0748 136.082 23.9844 134C26.0004 135.161 28.2239 136.22 30.6336 136.22C32.0592 136.22 33.4317 135.837 34.5966 135.108C37.6127 133.223 38.1234 129.869 38.1713 126.723C38.1713 126.723 50.7038 131.818 50.1719 140.186C49.6399 148.55 70.9176 153.341 81.0245 143.226C91.1314 133.111 106.558 126.723 116.665 130.982C126.771 135.241 161.88 117.673 166.667 129.917C171.455 142.161 191.136 122.997 210.818 130.45C230.5 137.903 246.458 138.435 259.225 126.191C271.992 113.946 298.057 116.608 309.759 124.594C321.462 132.579 341.676 115.543 353.379 125.658C365.081 135.773 369.337 111.285 385.827 120.335C402.317 129.385 420.935 139.5 427.319 129.917C433.702 120.335 449.836 112.562 466.507 121.24C483.172 129.917 508.174 105.961 531.579 128.852C554.985 151.744 574.134 132.579 583.709 135.241C593.284 137.903 610.307 131.514 624.137 144.291C637.967 157.068 649.67 150.147 657.649 145.888C665.628 141.629 679.459 149.082 684.246 156.535C689.034 163.988 701.269 145.356 712.439 160.794C723.61 176.233 739.036 176.765 744.888 170.377C750.739 163.988 752.691 157.068 759.692 154.406L759.702 154.4Z" fill="#4E5503"/>
</g>
<path d="M419.5 453.5C422.846 468.348 415.148 503.852 426.643 536.81C427.015 537.88 426.388 539.036 425.286 539.302C419.664 540.649 420.5 540.5 402.5 539.302C401.516 539.078 401.074 537.923 401.67 537.108C406.335 530.715 419.229 508.727 418.303 453.654C418.292 452.925 419.335 452.792 419.495 453.505L419.5 453.5Z" fill="#502103"/>
<path d="M405.774 400.845C404.066 389.365 403.46 364.971 423.954 346.947C424.457 346.504 423.938 345.697 423.33 345.989C414.26 350.301 391.88 364.994 404.651 401.121C404.884 401.779 405.871 401.537 405.769 400.846L405.774 400.845Z" fill="#502103"/>
<path d="M372.034 374.851C372.007 374.356 372.715 374.238 372.848 374.712C373.976 378.652 376.332 384.38 380.518 384.38C384.705 384.38 387.657 378.609 389.061 374.824C389.232 374.361 389.918 374.526 389.865 375.016C389.301 379.988 387.338 388.639 380.518 388.639C373.699 388.639 372.321 380.015 372.034 374.851Z" fill="#502103"/>
<path d="M312.462 300.741C320.6 304.382 339.686 314.614 346.431 332.97C346.634 333.524 347.458 333.337 347.4 332.746C346.575 324.458 341.548 304.792 312.76 299.788C312.174 299.687 311.919 300.501 312.462 300.741Z" fill="#502103"/>
<path d="M425.111 306.139C425.202 305.883 425.579 305.969 425.563 306.24C425.34 309.424 425.329 316.233 428.93 319.437C432.633 322.733 439.362 321.306 442.341 320.449C442.596 320.374 442.756 320.72 442.532 320.869C439.404 322.908 431.335 327.385 426.276 323.164C421.255 318.974 423.803 309.85 425.122 306.144L425.111 306.139Z" fill="#502103"/>
<path d="M492.896 264.823C492.95 264.509 493.402 264.514 493.444 264.823C493.859 267.862 495.418 273.825 501.274 275.773C507.046 277.7 513.658 272.1 516.871 268.858C517.105 268.618 517.483 268.922 517.302 269.204C514.328 273.681 507.424 282.438 500.216 280.032C491.827 277.232 492.269 268.608 492.907 264.817L492.896 264.823Z" fill="#502103"/>
<path d="M567.4 256.757C559.283 260.718 539.26 270.428 528.542 275.044C528.111 275.23 528.249 275.88 528.717 275.869C533.436 275.784 546.787 273.846 567.852 257.492C568.262 257.172 567.868 256.534 567.405 256.763L567.4 256.757Z" fill="#502103"/>
<path d="M317.372 253.989C317.052 253.654 316.504 254.016 316.685 254.442C317.792 257.039 319.005 261.565 316.153 265.131C313.26 268.751 305.206 268.187 300.344 267.458C299.849 267.383 299.663 268.086 300.137 268.262C305.605 270.311 315.712 273.101 319.877 267.793C324.117 262.39 319.973 256.709 317.372 253.989Z" fill="#502103"/>
<defs>
<filter id="filter0_d_198_292" x="2.19922" y="34.8159" width="779.364" height="180.797" filterUnits="userSpaceOnUse" color-interpolation-filters="sRGB">
<feFlood flood-opacity="0" result="BackgroundImageFix"/>
<feColorMatrix in="SourceAlpha" type="matrix" values="0 0 0 0 0 0 0 0 0 0 0 0 0 0 0 0 0 0 127 0" result="hardAlpha"/>
<feOffset dy="4"/>
<feGaussianBlur stdDeviation="4.5"/>
<feComposite in2="hardAlpha" operator="out"/>
<feColorMatrix type="matrix" values="0 0 0 0 0 0 0 0 0 0 0 0 0 0 0 0 0 0 0.27 0"/>
<feBlend mode="normal" in2="BackgroundImageFix" result="effect1_dropShadow_198_292"/>
<feBlend mode="normal" in="SourceGraphic" in2="effect1_dropShadow_198_292" result="shape"/>
</filter>
<filter id="filter1_d_198_292" x="9.22339" y="113.475" width="764.511" height="88.0875" filterUnits="userSpaceOnUse" color-interpolation-filters="sRGB">
<feFlood flood-opacity="0" result="BackgroundImageFix"/>
<feColorMatrix in="SourceAlpha" type="matrix" values="0 0 0 0 0 0 0 0 0 0 0 0 0 0 0 0 0 0 127 0" result="hardAlpha"/>
<feOffset dy="4"/>
<feGaussianBlur stdDeviation="4"/>
<feComposite in2="hardAlpha" operator="out"/>
<feColorMatrix type="matrix" values="0 0 0 0 0 0 0 0 0 0 0 0 0 0 0 0 0 0 0.25 0"/>
<feBlend mode="normal" in2="BackgroundImageFix" result="effect1_dropShadow_198_292"/>
<feBlend mode="normal" in="SourceGraphic" in2="effect1_dropShadow_198_292" result="shape"/>
</filter>
<linearGradient id="paint0_linear_198_292" x1="244.241" y1="63.9612" x2="761.932" y2="194.514" gradientUnits="userSpaceOnUse">
<stop stop-color="#A2A500"/>
<stop offset="0.216667" stop-color="#846C00"/>
<stop offset="0.357292" stop-color="#999400"/>
<stop offset="0.544792" stop-color="#846C00"/>
<stop offset="0.742708" stop-color="#918500"/>
<stop offset="0.982292" stop-color="#846C00"/>
</linearGradient>
<linearGradient id="paint1_linear_198_292" x1="68.4231" y1="120.706" x2="804.908" y2="184.758" gradientUnits="userSpaceOnUse">
<stop stop-color="#A2A500"/>
<stop offset="0.216667" stop-color="#846C00"/>
<stop offset="0.357292" stop-color="#999400"/>
<stop offset="0.544792" stop-color="#846C00"/>
<stop offset="0.742708" stop-color="#918500"/>
<stop offset="0.982292" stop-color="#846C00"/>
</linearGradient>
<linearGradient id="paint2_linear_198_292" x1="386.28" y1="49.7758" x2="391.881" y2="149.327" gradientUnits="userSpaceOnUse">
<stop stop-color="#226A00"/>
<stop offset="0.861703" stop-color="#102407"/>
</linearGradient>
</defs>
</svg>
