<svg width="847" height="560" viewBox="0 0 847 560" fill="none" xmlns="http://www.w3.org/2000/svg">
<g clip-path="url(#clip0_57_790)">
<path d="M745.967 163.778C736.208 165.736 715.425 167.623 706.679 167.605C700.974 167.594 700.956 162.424 701.684 156.165L697.713 149.664C694.683 156.207 695.032 162.471 695.601 165.884C695.914 167.789 695.5 169.741 694.429 171.35C691.18 176.218 683.895 186.073 676.131 189.622C665.657 194.408 667.403 175.26 667.403 175.26C667.403 175.26 663.911 164.731 656.928 161.856C649.945 158.981 660.42 156.112 667.403 155.154C672.604 154.438 676.83 148.422 677.93 143.418L676.261 138.952C675.238 141.483 673.859 147.405 670.456 149.889C665.219 153.716 659.982 150.847 659.982 150.847L659.248 141.578L656.709 144.601L657.366 150.368C657.366 150.368 648.566 165.807 646.43 142.921L640.643 142.779C640.684 142.927 640.731 143.069 640.785 143.193C642.53 147.02 642.53 158.514 648.643 161.383C654.756 164.257 664.361 174.787 659.994 187.233C655.626 199.678 648.643 179.093 648.643 179.093C648.643 179.093 647.336 171.433 639.477 171.912C632.689 172.326 630.458 143.429 629.979 135.574L625.055 137.946C626.984 147.257 630.434 163.837 630.742 165.21C631.18 167.126 633.796 174.781 638.163 177.176C642.53 179.572 649.075 190.102 649.075 190.102C649.075 190.102 653.443 195.845 665.225 197.762C674.652 199.294 663.142 207.558 658.153 210.811C657.129 211.48 655.774 211.166 655.159 210.113C653.691 207.587 650.407 204.689 645.146 214.52C637.725 228.403 609.32 238.282 609.32 238.282L583.53 247.427C581.891 248.226 580.14 246.564 580.844 244.884L589.573 224.168C590.277 222.5 590.513 220.69 590.419 218.88C590.312 216.721 591.839 212.988 601.491 209.255C613.101 204.76 606.545 201.145 603.142 199.785C601.574 199.158 600.562 197.549 600.834 195.881C601.195 193.674 603.74 191.58 613.711 193.935C624.268 196.425 624.398 183.961 622.718 178.371C622.345 177.129 622.682 175.775 623.617 174.887C625.221 173.367 627.363 170.681 626.807 167.605C625.931 162.82 615.019 149.416 618.078 141.276C618.386 140.454 618.658 139.691 618.901 138.981L616.705 135.03C616.392 135.633 615.983 136.278 615.457 136.97C612.314 141.105 614.823 148.457 616.48 152.255C616.954 153.338 616.048 154.509 614.877 154.326C609.935 153.533 600.071 151.202 599.745 145.109C599.609 142.572 599.301 139.762 598.946 137.088L595.804 136.686C596.295 140.59 596.615 144.63 596.248 147.02C595.532 151.729 610.048 156.112 615.321 157.543C616.64 157.904 617.812 158.661 618.658 159.738C620.795 162.447 624.156 167.712 620.688 170.48C615.889 174.308 602.935 164.843 598.863 160.43C595.561 156.845 593.324 152.379 588.797 143.725C588.49 143.134 588.513 142.465 588.797 141.909L582.939 139.892C582.998 140.105 583.039 140.259 583.069 140.342C580.353 140.904 571.009 138.744 569.624 132.669C569.423 131.788 569.227 130.93 569.038 130.09L564.836 128.079C566.097 135.781 567.203 138.455 570.062 140.803C572.464 142.779 578.163 144.074 581.495 144.689C583.098 144.985 584.477 146.003 585.241 147.446C587.643 151.989 593.147 161.82 597.129 164.737C602.367 168.564 611.22 172.497 615.463 175.745C617.936 177.638 624.191 184.843 610.663 187.233C597.129 189.628 593.2 176.703 585.347 175.266C577.488 173.828 572.251 168.085 571.813 162.82C571.375 157.555 558.842 149.978 555.226 145.109C552.078 140.874 550.859 133.622 553.918 124.045C555.309 119.691 555.25 116.828 554.782 114.994L550.569 115.604C550.646 117.39 550.29 120.058 549.119 124.051C546.284 133.728 537.532 131.427 532.881 129.398C532.2 129.102 531.579 129.919 532.046 130.498C532.679 131.291 533.401 132.273 533.94 133.013C534.396 133.645 535.194 133.929 535.946 133.722C539.437 132.752 549.202 130.901 549.557 140.33C549.995 151.817 557.001 154.077 561.345 156.603C565.339 158.928 570.074 163.305 570.949 172.403C571.819 181.501 585.791 181.98 585.791 181.98C585.791 181.98 599.757 185.807 596.265 189.64C592.774 193.467 591.898 195.384 592.774 198.738C593.65 202.086 593.212 206.398 583.169 213.1C573.127 219.802 575.311 246.611 553.924 258.098C532.537 269.586 539.082 215.975 539.082 215.975C539.082 215.975 538.307 201.636 536.899 195.869C535.549 190.356 550.865 189.167 562.215 192.521C570.594 194.994 574.216 189.64 575.536 186.665C575.814 186.044 575.181 185.411 574.553 185.683C572.334 186.653 568.144 187.931 563.961 186.292C557.847 183.896 546.497 187.729 546.497 186.292C546.497 184.855 547.373 183.896 553.48 177.194C559.593 170.492 558.717 162.832 556.534 160.442C554.741 158.478 529.709 139.088 521.773 124.524L519.394 131.859C519.933 132.474 520.524 133.072 521.175 133.64C529.466 140.821 552.166 160.448 550.859 165.233C549.799 169.114 538.71 180.525 534.538 184.724C533.585 185.683 532.123 185.89 530.94 185.245C526.259 182.69 515.062 175.881 515.062 169.067C515.062 160.448 526.412 158.537 522.045 147.044C519.927 141.471 516.37 137.242 512.973 132.297L510.452 133.515C513.405 138.875 516.039 143.471 517.246 145.133C520.737 149.919 510.701 165.239 510.701 165.239C510.701 165.239 505.233 173.314 517.246 184.387C533.762 199.607 532.525 187.262 533.833 211.196C534.496 223.334 533.253 230.178 531.863 233.976C530.886 236.649 527.673 237.708 525.276 236.17C517.068 230.894 497.658 217.182 490.178 201.145C480.574 180.56 472.721 175.295 474.467 168.593C476.212 161.891 490.616 161.412 493.238 149.924C495.202 141.306 491.764 121.099 489.924 111.546L486.917 114.959C489.208 123.039 491.433 133.994 488.876 139.874C485.562 147.511 476.703 154.87 472.638 157.969C471.679 158.703 470.289 158.165 470.058 156.981L466.537 138.668L461.85 141.856C464.442 146.233 465.288 160.158 466.614 166.204C468.963 176.91 477.526 198.756 484.071 206.416C488.332 211.397 503.86 227.729 514.192 238.53C522.986 247.729 526.122 261.245 521.394 273.058C519.82 276.992 517.459 280.831 513.967 284.061C500.002 296.986 482.757 309.816 474.029 311.248C469.661 311.964 466.933 309.574 465.3 307.001C463.803 304.646 463.146 301.866 463.27 299.08C463.584 291.976 463.826 271.899 457.447 259.074C449.588 243.275 444.351 229.876 443.481 220.779C442.605 211.681 421.657 194.928 421.657 194.928C421.657 194.928 411.614 183.441 411.614 171.953C411.614 160.466 423.402 150.41 418.597 138.443C416.55 133.344 415.697 127.21 415.39 121.844L411.792 127.428C412.2 133.066 413.04 138.461 414.668 141.318C417.928 147.032 413.644 154.887 411.265 158.502C410.661 159.425 409.283 159.342 408.803 158.348C406.649 153.929 401.962 143.53 401.584 136.171L397.53 135.87C398.293 141.276 399.388 147.056 400.702 149.942C402.489 153.87 404.075 160.253 404.904 163.902C405.158 165.038 403.921 165.937 402.927 165.322C399.27 163.051 392.482 157.62 387.606 146.594C384.677 139.969 382.215 133.35 380.333 127.89L376.93 127.825C381.375 140.306 389.446 158.904 401.459 171.61C411.04 181.743 412.922 195.899 413.36 198.773C413.798 201.648 433.877 214.094 433.877 225.103C433.877 236.111 444.789 264.836 444.789 264.836C444.789 264.836 454.832 306.48 448.718 319.884C442.605 333.288 431.693 328.024 426.894 342.38C422.095 356.743 418.165 373.016 418.165 373.016C418.165 373.016 411.182 390.247 405.507 373.016C402.211 363.007 396.997 344.93 389.452 326.19C385.073 293.981 405.282 295.513 399.56 278.359C395.234 265.392 395.269 251.343 395.542 245.25C395.636 243.162 395.116 241.092 394.039 239.299L392.571 236.856C391.648 235.318 389.304 235.78 389.044 237.554C388.251 242.943 387.612 252.266 390.02 263.109C393.831 280.263 378.096 301.712 378.096 301.712V301.724C375.362 296.667 372.427 291.81 369.273 287.332C350.064 260.045 353.017 257.992 352.685 247.12C352.384 237.17 347.448 227.492 355.307 207.386C363.166 187.28 362.29 154.728 362.29 154.728C362.29 154.728 359.438 139.076 359.26 126.926L355.419 126.594C355.348 127.724 355.307 128.819 355.307 129.842C355.307 136.544 357.053 147.073 357.053 147.073C357.053 147.073 352.679 144.672 348.064 137.934L341.383 137.845C356.337 148.463 355.887 165.547 354.597 173.84C354.135 176.798 351.668 179.016 348.679 179.17C339.53 179.643 320.203 178.294 314.279 159.519C306.421 134.627 295.946 124.098 295.946 124.098C295.946 124.098 293.881 121.022 292.579 116.467L288.709 116.071C289.543 119.265 288.324 123.873 284.951 122.797L281.217 128.996C287.91 134.935 297.26 137.502 297.26 137.502C297.26 137.502 302.059 159.998 310.794 169.575C318.747 178.294 333.583 185.825 346.389 187.097C349.265 187.38 351.389 189.877 351.295 192.763C351.159 196.756 349.389 203.08 342.661 212.178C334.429 223.31 336.027 235.774 338.353 243.488C339.518 247.368 336.66 251.296 332.606 251.308C318.126 251.355 290.129 248.971 283.732 230.367C275.003 204.996 283.294 178.188 277.619 166.221C273.329 157.183 260.824 145.943 254.776 125.926L251.788 127.718C253.06 131.877 254.652 136.065 256.664 139.892C264.955 155.692 266.712 159.235 261.037 154.923C257.593 152.308 248.302 144.482 241.219 135.243L234.834 134.06C240.976 142.187 249.427 152.977 255.794 157.603C259.641 160.401 268.594 170.894 268.594 177.117C268.594 183.34 266.269 212.657 269.322 220.796C272.322 228.782 276.583 254.301 335.364 268.817C337.749 269.403 339.856 270.816 341.246 272.845C343.767 276.531 346.3 282.073 338.725 282.073C327.375 282.073 241.385 256.702 227.851 227.025C214.317 197.348 209.08 160.963 209.955 158.094C210.831 155.219 228.437 149.741 223.921 135.118C222.963 132.025 222.347 129.014 221.797 126.163L216.08 127.63C218.169 134.669 217.992 144.258 202.967 146.606C189.172 148.765 181.775 141.779 177.946 135.284L164.833 131.67C167.182 136.077 171.135 140.348 177.651 143.737C194.238 152.356 200.351 156.183 200.351 167.671C200.351 174.136 199.244 180.294 198.28 184.446C197.664 187.085 194.611 188.303 192.344 186.824C181.254 179.572 153.382 159.992 150.589 144.695C149.76 140.141 148.63 135.485 147.393 131.019L141.393 132.001C141.682 133.764 141.86 135.461 141.86 137.035C141.86 149.481 127.989 150.203 122.651 148.523C115.68 146.328 110.431 140.862 94.7134 139.904C91.8611 139.732 89.4466 138.952 87.3991 137.804L81.9429 144.577C110.395 150.35 112.981 156.792 123.527 160.01C132.185 162.648 147.973 159.052 158.447 169.587C168.922 180.116 202.973 205.008 213.447 227.989C223.921 250.965 263.884 272.899 285.034 278.731C308.959 285.333 353.129 286.392 371.462 327.556C389.796 368.727 383.736 390.176 403.684 424.55C425.012 461.291 411.875 539.119 409.235 554.268C409.022 555.487 409.768 556.664 410.963 557.001C426.752 561.443 446.032 560.757 464.412 556.859C465.59 556.611 466.276 555.38 465.892 554.244C461.187 540.361 435.267 462.474 436.066 432.873C436.942 400.321 429.083 367.769 466.626 341.919C504.168 316.069 545.195 276.815 582.737 263.41C620.28 250.006 638.926 226.238 670.101 219.625C710.632 211.03 714.561 198.306 714.561 198.306C714.561 198.306 718.052 191.604 715.431 188.735C712.809 185.86 703.163 209.238 676.143 207.883C663.319 207.238 688.251 191.042 697.885 185.139C699.601 184.086 700.897 182.518 701.773 180.708C703.205 177.75 709.43 172.817 734.64 171.498C748.351 170.782 758.145 168.055 765.051 164.926L761.495 160.454C755.766 162.264 749.872 163.057 745.99 163.837L745.967 163.778Z" fill="#663414"/>
<path d="M838.609 127.47C838.81 124.701 847.497 121.294 846.982 118.656C846.479 116.112 838.118 118.135 836.117 115.994C834.608 114.379 837.265 105.068 834.496 103.82C832.135 102.755 828.365 111.504 826.625 111.463C824.14 111.398 819.909 103.424 818.346 104.565C816.417 105.973 820.66 115.13 819.435 116.585C817.737 118.602 816.281 113.143 814.133 110.694C813.163 109.588 805.043 113.326 803.67 110.522C802.499 108.121 809.286 101.59 808.405 99.5314C807.316 96.9878 798.469 98.6855 797.658 96.6861C796.546 93.9296 803.292 87.192 802.309 85.4884C800.865 82.9921 795.368 88.9725 792.953 88.8187C791.249 88.7063 787.9 79.9161 785.089 81.0282C782.816 81.9214 783.947 91.7468 782.189 92.504C779.917 93.4919 775.366 85.1926 773.52 85.6718C771.407 86.2219 769.46 95.6569 767.211 95.1008C765.454 94.6631 766.637 84.9678 764.4 83.5955C762.797 82.6135 756.37 89.4458 754.358 87.8841C752.18 86.1923 755.453 76.8875 753.671 75.3613C751.547 73.5394 744.345 79.4606 742.552 77.9877C740.398 76.219 742.889 66.5889 740.83 65.5123C738.623 64.3647 734.338 72.7881 731.723 72.6994C729.569 72.6284 726.19 63.5543 723.444 64.3647C721.544 64.9266 721.361 74.6929 719.579 74.9295C717.603 75.1957 715.325 65.7489 713.555 65.6779C711.519 65.601 708.507 74.7757 706.827 74.3498C704.738 73.8233 706.164 64.276 704.773 63.3768C702.684 62.0163 698.423 63.5425 698.423 61.8625C698.423 60.5552 702.027 57.0001 701.081 55.7756C700.288 54.7522 694.944 58.2955 693.701 57.6094C692.565 56.9823 692.63 50.4281 691.275 50.2921C690.014 50.1678 688.878 56.6688 687.559 57.1361C686.399 57.5502 681.919 52.9007 680.8 53.8886C679.516 55.0244 682.019 64.1636 680.303 64.7669C678.694 65.3348 675.321 56.3376 673.581 56.4736C671.817 56.6097 669.699 66.0387 668.066 65.7725C666.184 65.459 670.48 53.6816 669.137 52.8889C668.379 52.4393 666.811 53.4627 665.077 54.0247C664.479 54.2199 663.834 53.9418 663.538 53.3858C662.136 50.7594 658.674 47.9437 658.272 48.1625C657.591 48.5352 660.159 56.6629 657.798 57.1361C653.602 57.9761 654.49 51.4692 653.076 50.996C651.188 50.5228 648.827 56.1897 646.028 54.4506C644.483 53.4864 651.94 46.6068 651.158 45.6722C650.33 44.6843 644.483 49.8603 643.152 50.0555C642.246 50.1915 640.11 44.3708 638.879 45.4415C638.098 46.1218 640.779 55.0362 639.844 56.1956C638.79 57.497 633.885 51.0433 633.103 51.9543C632.843 52.256 633.275 54.1134 632.808 56.1897C632.476 57.6448 630.825 58.3369 629.535 57.5739C626.76 55.9294 626.109 53.4686 625.949 52.4689C625.742 51.1498 634.009 47.6893 633.642 46.104C633.109 43.7911 628.772 43.306 628.973 41.0819C629.221 38.349 634.234 35.0068 634.186 33.2914C634.127 31.0199 628.47 34.4153 624.724 35.8882C621.889 34.0012 619.641 28.9613 617.226 30.3514C615.617 31.2801 617.99 40.7802 615.883 42.1171C613.912 43.3652 607.912 36.0893 606.397 36.9944C604.183 38.3135 606.261 47.8727 604.882 48.5352C601.071 50.3571 602.379 41.4131 601.106 40.1354C599.692 38.7217 594.443 39.5439 594.579 36.882C594.686 34.8353 602.846 30.8602 601.947 28.7247C601.213 26.9797 592.567 28.1746 592.384 26.8436C592.301 26.2284 589.064 16.1487 587.259 16.6337C586.028 16.965 586.732 26.6425 585.105 27.1039C579.548 28.6715 580.169 19.8635 578.643 16.8349C577.169 13.9186 569.411 15.705 566.446 12.6172C564.428 10.5173 564.99 0.614985 560.28 0.00570434C557.433 -0.366963 553.93 9.16266 549.622 9.70687C546.557 10.0973 541.621 1.32483 537.662 2.29494C532.573 3.54308 531.957 13.8594 529.377 15.4211C524.347 18.4557 519.524 12.635 514.66 13.6879C511.239 14.5279 509.417 28.5473 505.606 26.9264C502.055 25.418 501.807 15.1194 498.83 14.0014C495.102 12.5936 489.243 20.6266 486.332 19.763C482.201 18.5326 480.473 8.43507 477.769 8.10381C471.993 7.39989 472.218 16.0659 471.028 17.8641C468.555 21.6026 463.726 21.9102 465.56 27.2518C466.484 29.9433 469.064 31.0849 466.134 32.1556C464.661 32.6939 460.554 24.0634 458.714 24.5366C457.057 24.9626 456.767 34.7406 455.015 34.9417C453.246 35.1488 451.47 25.6724 449.784 25.4772C447.967 25.2702 443.73 33.7528 442.25 32.8773C440.428 31.8007 445.203 23.7262 444.328 21.857C443.434 19.9582 440.025 20.2953 437.191 19.8221C436.433 17.5861 439.002 9.86067 437.481 8.83732C436.203 7.97368 433.398 16.4385 430.806 17.2844C429.326 17.7636 424.261 9.78377 422.178 11.0201C420.029 12.2919 423.675 21.1176 422.58 22.3361C420.757 24.371 412.703 22.6851 412.62 24.4124C412.484 27.1867 422.55 31.1618 418.295 34.9358C413.384 39.2954 411.514 27.5476 407.904 27.3819C406.371 27.3109 407.803 36.8406 405.395 36.5211C402.85 36.184 402.116 26.3467 400.235 25.9031C397.56 25.2702 393.003 33.6995 391.328 33.0015C388.446 31.7889 389.914 21.6914 388.399 21.0407C386.582 20.2539 385.221 29.0264 382.162 30.5526C380.641 31.3097 374.711 23.9806 372.244 25.6014C369.237 27.5771 371.942 37.3907 369.847 39.3842C367.214 41.8864 359.663 36.7223 357.372 38.5087C354.893 40.443 354.869 50.3985 351.313 50.4695C348.809 50.5228 347.129 40.6441 343.448 39.325C340.933 38.4259 334.879 46.0567 331.607 44.3767C328.387 42.7263 328.606 32.4514 325.553 31.2032C322.162 29.8131 316.244 37.7811 313.161 36.8761C309.533 35.8113 307.811 25.7079 304.781 25.3056C300.692 24.7614 297.627 34.2496 294.999 34.8767C290.638 35.9178 283.525 35.3913 284.791 39.5025C285.714 42.5134 289.082 47.5178 285.709 48.5648C283.519 49.2451 279.554 40.1591 276.572 40.1591C273.968 40.1591 270.565 49.4403 267.926 49.0084C265.085 48.5411 264.493 38.5974 262.251 37.716C258.741 36.3378 250.522 39.0233 250.522 36.9411C250.522 36.4028 252.333 34.5454 254.25 31.7711C255.741 29.6179 253.368 26.891 251.031 28.0622C247.77 29.6948 246.273 30.594 243.61 29.7362C241.195 28.9554 241.615 25.98 242.367 22.9158C243.113 19.8872 240.183 17.2549 237.236 18.2841C232.49 19.9523 228.798 21.8274 218.021 19.3726C216.116 18.9407 214.258 20.2066 213.932 22.1291C213.139 26.8081 210.843 30.1385 207.878 31.2269C203.032 32.9956 201.712 22.4012 196.759 23.602C193.025 24.5071 185.699 37.4084 181.846 37.6451C181.065 37.6924 179.598 25.4772 178.811 25.489C173.964 25.5718 172.668 30.6827 167.662 31.6528C163.525 32.4514 157.447 24.7082 153.305 25.489C146.21 26.8318 156.512 33.0725 155.666 37.2961C155.098 40.1177 149.056 33.0488 145.275 37.7693C142.322 41.4545 156.82 46.8553 145.748 50.9901C142.097 52.3506 149.902 62.034 146.222 63.2644C143.92 64.0334 141.41 55.4088 138.682 54.4446C137.404 53.9951 134.818 63.0456 132.924 63.2053C131.534 63.3236 128.137 54.4092 126.403 55.1072C125.06 55.6455 127.32 65.0154 125.77 66.0091C124.509 66.8196 118.325 59.8572 116.929 61.0284C115.029 62.6137 119.154 71.3685 117.828 72.7822C116.023 74.7106 110.49 69.8423 109.384 71.2916C107.466 73.7878 112.141 84.6839 106.585 83.625C101.353 82.6254 103.555 74.3261 100.88 72.238C99.5187 71.1733 94.3407 77.5618 92.3524 75.7636C90.4409 74.0363 93.7667 64.8379 91.9914 63.5484C89.8669 62.0104 83.6888 69.1739 81.7951 68.257C79.3511 67.0798 79.1735 57.2604 77.2148 57.1125C74.54 56.9113 75.1613 65.8139 73.6345 67.4998C72.2439 69.0319 63.9413 67.5945 63.7223 70.6645C63.4324 74.7639 63.8939 79.2063 60.3551 77.7866C58.1419 76.8934 58.0886 66.4883 55.2067 65.6601C52.6147 64.9207 49.6322 73.8766 46.8509 74.5036C44.4483 75.0478 38.1222 68.2097 35.8143 70.6468C34.1396 72.4155 39.4004 80.4899 37.8737 83.6191C36.1398 87.1743 27.204 84.5005 25.2215 86.8193C22.7361 89.7297 25.476 99.2416 22.9136 100.845C19.7535 102.814 12.9067 95.4439 10.2319 96.6092C6.59249 98.1946 9.2673 106.133 7.98315 109.102C6.98306 111.409 -1.17751 113.947 0.148068 118.886C1.30203 123.175 10.3858 125.376 10.7882 129.185C11.2734 133.787 2.93532 139.602 3.69279 143.145C4.61596 147.428 12.528 145.446 16.2857 147.558C18.8481 149.001 20.2565 158.904 25.186 159.063C28.3461 159.17 31.7725 149.439 36.193 148.936C40.0869 148.499 44.9158 157.318 47.9575 156.579C51.8987 155.621 52.5556 145.358 55.3487 144.08C59.1953 142.317 66.3439 148.647 68.7287 146.748C70.5692 145.287 71.3444 143.595 72.0545 142.081C75.0489 142.926 78.3332 143.743 81.9253 144.494L87.3815 137.721C87.2809 137.668 87.1802 137.614 87.0796 137.555C90.7782 133.598 95.4059 125.766 98.5186 126.99C102.306 128.487 102.845 136.526 107.022 137.851C110.999 139.111 115.556 127.298 119.775 127.937C123.894 128.564 125.433 142.968 129.693 142.571C132.847 142.276 137.446 135.219 141.268 131.279C141.31 131.492 141.339 131.705 141.375 131.912L147.375 130.93C147.257 130.492 147.133 130.061 147.015 129.629C151.222 132.983 156.27 144.695 158.684 143.323C162.057 141.4 162.105 133.562 164.075 130.084C164.3 130.581 164.549 131.084 164.815 131.581L177.929 135.195C177.704 134.816 177.491 134.438 177.29 134.059C177.976 134.231 178.657 134.296 179.308 134.189C182.562 133.669 185.752 123.838 190.534 123.79C193.99 123.755 197.753 133.42 202.292 133.669C206.683 133.911 211.281 129.15 215.761 126.57C215.867 126.884 215.968 127.209 216.063 127.535L221.779 126.068C221.714 125.725 221.649 125.381 221.584 125.038C225.886 125.689 230.082 130.557 234.218 133.202C234.414 133.462 234.609 133.722 234.81 133.982L241.195 135.165C241.059 134.988 240.923 134.811 240.787 134.633C244.551 133.598 248.119 129.723 251.611 127.121C251.664 127.292 251.717 127.464 251.77 127.635L254.759 125.843C254.706 125.66 254.646 125.482 254.593 125.293C255.345 124.961 256.09 124.743 256.836 124.683C263.476 124.163 270.861 132.734 276.157 131.391C277.992 130.924 279.465 129.853 280.708 128.452C280.874 128.605 281.039 128.753 281.211 128.901L284.945 122.702C284.768 122.643 284.584 122.578 284.395 122.489C285.774 119.65 286.957 116.84 288.46 115.201C288.484 115.266 288.502 115.325 288.525 115.39C288.596 115.58 288.656 115.775 288.709 115.976L292.579 116.372C292.49 116.071 292.407 115.763 292.33 115.45C295.005 116.704 298.165 118.916 299.373 118.242C301.716 116.934 301.698 107.221 303.906 107.038C306.403 106.831 307.657 116.538 309.835 117.384C312.155 118.283 316.41 114.509 318.191 116.118C320.185 117.922 317.292 123.051 318.363 125.074C319.008 126.298 322.576 125.145 325.606 124.63C327.014 126.074 328.565 127.558 330.251 129.067C330.115 132.373 329.571 136.461 330.967 137.165C332.133 137.75 333.909 135.656 335.666 133.58C337.311 134.858 339.051 136.136 340.909 137.407C341.075 137.52 341.229 137.638 341.389 137.75L348.07 137.839C347.957 137.674 347.845 137.514 347.732 137.342C348.064 137.449 348.371 137.437 348.65 137.271C350.52 136.159 346.685 127.44 348.295 125.015C349.212 123.636 352.644 125.334 355.431 126.399C355.431 126.434 355.431 126.464 355.431 126.499L359.272 126.831C359.272 126.754 359.272 126.677 359.272 126.6C360.781 124.429 360.106 116.012 362.077 115.657C364.32 115.249 366.58 124.76 368.675 125.133C370.533 125.464 372.818 121.702 374.557 120.566C374.989 121.962 375.51 123.554 376.102 125.305C375.812 125.943 375.546 126.523 375.475 126.961C375.404 127.369 375.99 127.547 376.907 127.617C376.919 127.653 376.936 127.694 376.948 127.73L380.351 127.795C380.333 127.748 380.321 127.706 380.304 127.659C382.298 127.659 384.363 127.724 385.316 128.369C386.742 129.327 385.02 138.857 386.949 139.478C388.725 140.046 391.967 131.031 393.82 131.09C394.814 131.119 396.193 133.456 397.524 135.639C397.53 135.686 397.536 135.733 397.542 135.781L401.596 136.082C401.596 136.047 401.596 136.005 401.59 135.964C401.477 133.515 401.022 130.717 400.406 127.913C402.939 127.056 409.336 129.57 411.017 127.949C411.401 127.576 411.603 126.884 411.715 126.003C411.745 126.452 411.774 126.896 411.804 127.345L415.402 121.761C415.289 119.862 415.248 118.052 415.248 116.426C417.544 118.49 420.467 123.14 422.503 122.986C424.367 122.844 426.32 118.975 428.409 117.55C430.03 118.946 431.717 120.371 433.356 121.702C434.102 123.282 434.907 124.754 436.037 125.157C436.717 125.399 437.41 125.417 438.09 125.334C438.948 125.938 439.741 126.464 440.434 126.872C441.15 127.292 441.937 127.742 442.765 128.227C441.759 129.865 440.173 131.587 440.096 133.219C439.943 136.443 448.056 139.147 448.275 141.075C448.535 143.352 447.482 148.972 451.985 146.582C453.53 145.76 451.914 137.638 453.648 134.799C457.406 137.271 460.625 139.744 461.82 141.72C461.832 141.737 461.844 141.767 461.856 141.785L466.543 138.596L465.939 135.455C466.803 135.497 467.525 135.349 468.022 134.893C471.129 132.001 467.602 122.306 469.709 119.833C472.739 116.284 480.651 120.608 482.97 118.886C484.207 117.97 485.361 115.81 486.639 113.888C486.734 114.213 486.829 114.55 486.924 114.882L489.93 111.469C489.871 111.161 489.811 110.859 489.758 110.575C490.61 110.149 491.539 110.102 492.587 110.688C494.983 112.031 493.066 122.169 496.593 125.34C497.812 126.434 501.866 123.642 504.505 122.477C505.186 123.737 505.884 125.038 506.588 126.346C505.783 129.309 504.351 132.782 505.038 133.509C506.109 134.651 508.263 134.053 510.304 133.172C510.358 133.267 510.405 133.355 510.458 133.45L512.979 132.231C512.92 132.149 512.861 132.06 512.802 131.977C514.015 131.374 514.932 130.93 515.145 131.149C516.477 132.539 515.814 137.413 518.838 134.018C519.181 133.633 518.962 132.379 518.601 130.835C518.85 131.161 519.116 131.48 519.394 131.794L521.773 124.459C521.3 123.589 520.879 122.731 520.536 121.903C524.543 121.454 530.176 123.347 531.969 120.809C534.538 117.165 532.247 106.293 536.011 105.133C538.787 104.276 541.852 113.634 546.835 115.899C547.728 116.301 549.042 115.964 550.557 115.379C550.557 115.432 550.557 115.491 550.563 115.55L554.776 114.941C554.664 114.503 554.528 114.119 554.38 113.793C556.818 112.841 559.286 112.214 561.067 113.45C563.611 115.213 562.523 123.542 564.736 127.375C564.771 127.594 564.807 127.807 564.842 128.02L569.044 130.031C568.985 129.771 568.926 129.51 568.872 129.256C572.589 128.883 577.524 126.085 579.459 127.511C579.785 127.748 580.069 128.055 580.317 128.404C580.761 130.865 582.418 137.875 582.951 139.839L588.809 141.856C588.957 141.56 589.182 141.294 589.472 141.093C592.094 139.277 594.342 136.136 595.733 136.023C595.763 136.23 595.786 136.437 595.81 136.644L598.952 137.047C598.934 136.922 598.917 136.798 598.905 136.674C601.881 137.881 605.142 140.105 607.545 138.046C609.758 136.147 609.261 129.581 613.889 128.866C615.593 128.605 616.569 130.889 617.38 133.391C617.232 133.888 617.013 134.426 616.717 134.994L618.913 138.945C618.984 138.727 619.061 138.514 619.126 138.307C619.398 138.792 619.694 139.129 620.025 139.253C621.167 139.655 623.037 138.803 625.02 137.715C625.032 137.78 625.049 137.845 625.061 137.904L629.985 135.532C629.973 135.373 629.967 135.219 629.955 135.077C631.216 134.55 632.245 134.379 632.778 135C634.713 137.242 630.985 144.18 633.311 146.02C634.713 147.132 637.66 143.831 640.477 141.773C640.513 142.134 640.566 142.453 640.643 142.737L646.43 142.879C646.412 142.684 646.389 142.489 646.371 142.299C648.436 144.944 650.91 149.149 653.23 148.487C654.721 148.061 655.727 146.038 656.668 144.151L656.715 144.559L659.254 141.536L659.189 140.679C659.189 140.679 659.218 140.667 659.23 140.661C662.142 139.732 665.941 144.506 667.935 143.867C671.066 142.861 671.959 132.876 674.001 132.817C675.214 132.782 675.853 135.443 676.599 138.206C676.492 138.395 676.386 138.632 676.273 138.904L677.942 143.37C678.007 143.086 678.061 142.802 678.102 142.524C678.469 143.21 678.889 143.743 679.392 144.021C681.191 145.009 687.505 137.975 690.186 139.75C691.973 140.933 688.991 150.173 690.387 151.119C692.269 152.397 696.157 147.883 697.494 148.688C697.66 148.789 697.82 148.919 697.98 149.072C697.891 149.256 697.814 149.439 697.731 149.617L701.702 156.118C701.726 155.911 701.749 155.698 701.779 155.485C702.264 156.277 702.708 156.792 703.11 156.751C704.637 156.591 705.282 150.776 706.939 148.682C707.921 147.446 711.762 152.568 713.082 150.569C714.088 149.049 712.093 141.779 713.082 141.128C714.484 140.199 715.396 144.21 716.686 144.541C717.999 144.884 723.124 137.484 724.219 138.549C725.296 139.59 719.822 147.239 720.597 148.41C721.982 150.498 726.775 145.381 729.142 147.741C731.143 149.741 723.479 155.497 725.462 157.809C726.456 158.975 732.806 153.296 734.812 153.882C736.22 154.29 736.563 162.707 738.611 162.5C740.108 162.352 740.179 152.633 742.073 152.03C743.564 151.557 748.103 159.927 749.866 159.111C751.162 158.507 749.127 149.096 750.21 148.652C751.577 148.091 754.524 154.225 755.595 153.882C757.116 153.391 757.642 146.269 758.636 146.138C760.731 145.878 759.867 151.752 760.317 152.462C761.228 153.893 765.554 154.432 764.566 156.242C763.797 157.644 757.281 155.934 756.891 157.679C756.755 158.289 759.808 159.217 762.252 160.105C761.998 160.187 761.743 160.27 761.483 160.353L765.039 164.825C765.406 164.659 765.773 164.494 766.122 164.322C766.406 167.209 766.548 171.9 767.365 171.9C769.277 171.9 770.667 162.11 772.815 161.731C774.827 161.376 778.372 170.356 780.384 169.954C782.515 169.528 783.479 159.673 785.396 159.513C787.746 159.324 788.462 168.635 790.107 169.404C791.912 170.243 798.427 164.659 798.853 167.428C800.546 170.025 795.883 175.91 798.99 177.271C800.635 177.993 805.333 169.687 807.292 170.291C809.192 170.882 809.6 180.714 811.446 180.885C813.6 181.08 814.026 171.823 815.577 170.983C817.21 170.102 824.607 173.479 824.945 170.888C825.288 168.268 819.299 161.891 821.187 159.927C822.844 158.206 830.111 164.31 832.312 162.914C834.437 161.566 832.448 151.953 834.526 150.752C836.958 149.345 844.012 155.893 845.568 154.461C847.787 152.421 842.272 149.262 840.591 146.558C839.177 144.287 846.763 138.928 846.775 136.035C846.787 133.42 838.414 130.22 838.621 127.428L838.609 127.47Z" fill="#006600"/>
<path d="M832.697 127.316C832.525 131.9 836.455 134.716 839.342 136.775C839.366 136.792 839.39 136.804 839.407 136.822C839.283 136.97 839.165 137.106 839.058 137.224C837.354 139.176 835.093 141.779 834.549 144.713C833.466 144.82 832.46 145.139 831.543 145.671C828.051 147.688 827.608 151.545 827.519 155.248C825.708 154.402 823.933 153.746 822.033 153.746C820.039 153.746 818.216 154.497 816.902 155.869C814.174 158.709 814.618 162.069 815.778 164.973C814.665 165.05 813.648 165.328 812.748 165.813C812.429 165.985 812.127 166.18 811.855 166.387C811.115 165.63 810.198 165.038 809.032 164.677C808.393 164.482 807.73 164.382 807.061 164.382C806.031 164.382 805.102 164.595 804.25 164.961C803.226 162.43 800.812 160.773 797.93 160.773C796.368 160.773 794.912 161.258 793.51 161.885C792.391 158.135 790.497 153.633 785.455 153.633C785.272 153.633 785.089 153.639 784.905 153.657C781.615 153.929 779.869 156.141 778.727 158.75C777.224 157.058 775.419 155.846 772.922 155.846C772.537 155.846 772.146 155.881 771.768 155.946C771.584 155.982 771.407 156.017 771.229 156.065L771.158 155.373L770.608 155.639C770.596 154.982 770.484 154.331 770.276 153.693C769.466 151.202 767.554 149.901 766.004 149.09C765.968 148.28 765.891 147.416 765.72 146.559C764.791 141.915 761.382 140.271 758.749 140.271C758.459 140.271 758.169 140.288 757.879 140.324C755.571 140.614 754.174 141.874 753.269 143.418C752.423 143.004 751.464 142.755 750.375 142.755C749.535 142.755 748.718 142.915 747.943 143.234C746.144 143.974 745.12 145.163 744.564 146.594C743.836 146.31 743.049 146.15 742.179 146.15C741.522 146.15 740.871 146.251 740.25 146.452C738.918 146.878 737.918 147.588 737.143 148.499C736.918 148.404 736.687 148.327 736.439 148.256C736.096 148.156 735.746 148.085 735.386 148.037C735.303 146.547 734.717 145.032 733.302 143.613C732.326 142.637 731.131 141.939 729.817 141.566C730.598 139.04 730.563 136.532 728.314 134.355C727.136 133.214 725.574 132.587 723.923 132.587C721.183 132.587 719.212 134.184 717.171 136.266C716.2 135.609 714.981 135.136 713.472 135.136C712.17 135.136 710.898 135.527 709.785 136.254C707.389 137.839 706.844 140.194 706.868 142.649C705.063 142.773 703.412 143.636 702.282 145.056L697.908 137.881L697.329 142.731C697.246 142.731 697.169 142.731 697.086 142.731C696.932 142.731 696.784 142.731 696.636 142.743C696.766 139.661 696.228 136.727 693.423 134.87C692.168 134.042 690.683 133.598 689.127 133.598C686.546 133.598 684.227 134.769 682.12 136.094C681.309 133.083 680.143 128.913 676.717 127.47L674.93 124.122L674.492 126.967C674.332 126.955 674.166 126.955 674.001 126.955H673.817C668.716 127.097 667.113 131.989 665.941 135.562C665.864 135.805 665.769 136.077 665.675 136.366C664.473 135.692 663.088 135.065 661.532 134.805L660.26 123.654L653.957 136.319L652.91 136.698L653.028 138.188L652.07 140.111C651.709 139.62 651.36 139.147 651.016 138.709L645.465 131.599L645.4 130.913L645.099 131.131L638.252 122.359L639.619 135.112L639.133 135.461C638.92 133.977 638.37 132.498 637.228 131.179C635.867 129.599 633.926 128.736 631.76 128.736C630.931 128.736 630.097 128.86 629.198 129.114L629.121 128.753L626.848 129.996L623.777 131.279L623.801 131.664L623.12 132.036L622.978 131.599C622.392 129.795 621.061 125.713 617.77 123.885L617.682 123.731L617.652 123.826C616.658 123.299 615.492 122.974 614.119 122.974C613.729 122.974 613.338 123.004 612.953 123.063C606.687 124.033 604.698 129.522 603.745 132.415C603.497 132.303 603.254 132.19 603.041 132.096C602.426 131.812 601.787 131.516 601.106 131.244L591.644 127.411L592.153 131.149C590.78 131.924 589.626 133.042 588.495 134.142C588.253 134.373 588.016 134.61 587.773 134.84C587.134 132.167 586.383 128.854 586.116 127.405L585.88 126.109L585.116 125.033C584.489 124.151 583.761 123.406 582.945 122.803C581.548 121.773 579.867 121.247 577.95 121.247C575.814 121.247 573.707 121.903 571.665 122.536C570.937 122.761 570.15 123.01 569.458 123.187C569.239 122.087 569.067 120.614 568.955 119.596C568.476 115.42 567.984 111.108 564.422 108.641C562.759 107.488 560.818 106.902 558.658 106.902C557.729 106.902 556.824 107.015 555.96 107.186L555.948 107.009L554.664 107.5C553.764 107.754 552.942 108.05 552.214 108.334L548.355 109.836C547.373 108.825 546.16 107.074 545.426 106.003C543.231 102.821 540.739 99.2063 536.354 99.2063C535.638 99.2063 534.928 99.3128 534.247 99.5257C528.241 101.377 527.839 108.014 527.549 112.859C527.489 113.823 527.407 115.201 527.27 116.272C526.744 116.248 526.158 116.201 525.554 116.148C524.454 116.059 523.205 115.959 521.956 115.959C521.199 115.959 520.512 115.994 519.855 116.071L512.044 116.952L515.044 124.21C515.151 124.465 515.257 124.719 515.376 124.974L515.293 125.228C515.175 125.222 515.056 125.216 514.944 125.216C514.198 125.216 513.5 125.346 512.837 125.553L511.766 123.572C511.062 122.27 510.363 120.975 509.689 119.715L507.091 114.882L502.079 117.1C501.439 117.384 500.789 117.709 500.149 118.047C500.072 117.319 500.013 116.603 499.972 116.059C499.652 112.143 499.297 107.713 495.457 105.559C494.048 104.773 492.557 104.37 491.03 104.37C490.687 104.37 490.344 104.388 490.006 104.43L488.722 100.029L484.278 106.725L483.071 107.334L483.254 108.275L481.68 110.647C481.355 111.138 481.035 111.64 480.722 112.143C480.508 112.48 480.242 112.9 479.988 113.285C479.615 113.226 479.224 113.155 478.863 113.096C477.277 112.817 475.484 112.504 473.602 112.504C469.129 112.504 466.554 114.415 465.182 116.018C462.631 118.999 462.945 122.986 463.246 126.837C463.306 127.57 463.383 128.558 463.412 129.451L458.678 129.238L459.092 131.386C458.4 130.901 457.66 130.398 456.867 129.877L451.754 126.517L448.565 131.735C448.298 132.173 448.067 132.634 447.878 133.107C447.606 132.936 447.298 132.74 446.99 132.539C447.245 132.167 447.517 131.764 447.777 131.344L450.949 126.168L445.689 123.134C444.866 122.661 444.091 122.211 443.386 121.797C442.883 121.501 442.238 121.075 441.469 120.537L439.593 119.212L438.717 119.324C438.7 119.289 438.096 117.993 438.096 117.993L437.043 117.142C435.593 115.964 433.977 114.61 432.237 113.107L428.793 110.132L425.036 112.699C423.923 113.456 423.012 114.391 422.201 115.32C422.171 115.29 422.148 115.261 422.124 115.231C421.183 114.137 420.213 113.001 419.171 112.066L409.288 103.175V116.467C409.3 117.709 409.324 118.958 409.365 120.188L407.85 122.542C407.342 122.477 406.773 122.389 406.235 122.312C404.773 122.087 403.264 121.856 401.773 121.856C400.536 121.856 399.453 122.016 398.471 122.353L393.453 124.051L393.707 125.216C392.583 125.222 391.612 125.482 390.754 125.914C390.275 124.991 389.577 124.169 388.582 123.501C386.434 122.057 383.748 121.821 381.114 121.791C380.789 120.797 380.469 119.815 380.167 118.851L377.842 111.38L371.285 115.651C370.9 115.899 370.539 116.177 370.196 116.467C368.574 113.167 366.403 109.765 362.177 109.765C361.781 109.765 361.378 109.801 360.982 109.872C355.899 110.794 355.035 115.757 354.585 119.762C352.916 119.135 351.206 118.626 349.472 118.626C346.904 118.626 344.661 119.78 343.329 121.791C341.814 124.068 341.755 126.707 342.122 129.398L338.282 128.174L336.246 126.594V126.553L334.163 124.69C332.654 123.341 331.186 121.939 329.801 120.525L327.636 118.313L324.76 118.798C324.86 116.479 324.404 113.823 322.126 111.759C320.73 110.493 318.948 109.824 316.984 109.824C315.451 109.824 314.048 110.238 312.829 110.694C312.8 110.611 312.77 110.534 312.746 110.457C311.35 106.529 309.439 101.152 303.953 101.152C303.763 101.152 303.574 101.158 303.379 101.176C298.082 101.62 296.798 106.737 295.94 110.682C295.567 110.493 295.195 110.303 294.81 110.12L292.484 109.032L290.679 104.027L288.01 106.938L283.537 104.844L284.909 110.321L284.069 111.232C282.223 113.243 281.01 115.805 279.72 118.514C279.495 118.981 279.27 119.455 279.039 119.934L277.447 123.211L276.252 124.559C275.625 125.269 275.163 125.524 274.843 125.636C273.861 125.494 271.387 124.08 269.89 123.223C266.245 121.134 262.114 118.774 257.404 118.774C257.049 118.774 256.7 118.786 256.35 118.816C256.007 118.845 255.664 118.887 255.315 118.946L254.836 117.349L250.243 120.774L247.432 122.022L247.64 122.72C246.645 123.483 245.687 124.293 244.758 125.08C242.947 126.606 240.917 128.328 239.491 128.866L237.899 128.57L237.39 128.245C236.289 127.541 235.058 126.535 233.757 125.476C230.549 122.862 226.91 119.892 222.448 119.218L219.353 118.751L219.057 117.863L217.897 118.532L214.193 117.97L214.654 120.395L212.796 121.466C211.186 122.389 209.683 123.471 208.222 124.518C206.712 125.601 204.31 127.322 203.038 127.706C202.274 127.044 201.079 125.53 200.321 124.571C197.842 121.442 195.037 117.893 190.545 117.893H190.462C184.74 117.952 181.325 122.814 178.834 126.37C178.479 126.878 178.023 127.529 177.615 128.067L168.608 125.802L164.649 117.053L158.909 127.192C157.968 128.848 157.406 130.765 156.927 132.687C154.997 129.747 152.979 126.849 150.683 125.027L145.369 120.797L145.026 118.91L144.144 119.821L136.262 113.545L139.428 124.684L137.002 127.186C135.688 128.54 134.356 130.144 133.072 131.693C132.386 132.522 131.48 133.61 130.61 134.592C130.397 134.071 130.196 133.563 130.03 133.143C128.143 128.357 126.006 122.927 120.645 122.116C120.242 122.057 119.828 122.022 119.42 122.022C114.585 122.022 111.478 125.926 108.738 129.363C108.537 129.611 108.306 129.901 108.064 130.209C107.981 130.037 107.898 129.866 107.827 129.712C106.419 126.76 104.667 123.092 100.678 121.513C99.7671 121.152 98.8025 120.969 97.8143 120.969C92.7724 120.969 89.2927 125.382 85.6119 130.055C84.5645 131.38 83.5821 132.634 82.7359 133.539L78.8006 137.751C77.0312 137.325 75.3091 136.875 73.6462 136.408L68.8055 135.036L66.6751 139.596C66.4917 139.987 66.3378 140.318 66.1899 140.608C65.8644 140.466 65.5389 140.324 65.2549 140.2C62.7635 139.105 59.9467 137.869 56.9049 137.869C55.4551 137.869 54.094 138.153 52.8631 138.721C49.3184 140.342 48.0343 144.039 46.7915 147.617C46.6909 147.907 46.5726 148.245 46.4483 148.599C43.8682 146.038 40.6726 143.027 36.4592 143.027C36.1396 143.027 35.82 143.045 35.5064 143.08C30.5947 143.636 27.5589 147.795 25.1267 151.161C24.8426 150.575 24.5823 149.995 24.387 149.552C23.0851 146.665 21.8601 143.932 19.1734 142.424C16.7413 141.051 14.0132 140.738 11.5632 140.507C11.5632 140.501 11.5751 140.495 11.581 140.489C14.0664 137.307 17.1614 133.35 16.6584 128.588C16.1613 123.838 12.1373 121.288 8.90617 119.242C8.27889 118.845 7.40307 118.289 6.70477 117.786C7.27879 117.343 7.95933 116.875 8.42092 116.556C10.3679 115.213 12.3858 113.829 13.4037 111.469C14.3327 109.316 14.3268 106.961 14.2262 104.648C16.469 105.938 18.9427 107.115 21.6234 107.115C23.2093 107.115 24.7361 106.689 26.0321 105.879C29.3875 103.785 29.9556 100.058 30.0088 96.5621C30.0088 96.5621 43.951 102.223 43.3592 111.522C42.7675 120.815 66.4384 126.139 77.6821 114.9C88.9258 103.661 106.087 96.5621 117.331 101.294C128.575 106.027 167.632 86.506 172.958 100.111C178.284 113.717 200.179 92.4214 222.075 100.703C243.971 108.984 261.724 109.576 275.926 95.9706C290.129 82.3653 319.126 85.323 332.145 94.196C345.164 103.069 367.651 84.1399 380.67 95.3791C393.689 106.618 398.424 79.4076 416.769 89.4637C435.114 99.5198 455.826 110.759 462.927 100.111C470.028 89.4637 487.977 80.8273 506.523 90.4693C525.063 100.111 552.876 73.4923 578.915 98.9283C604.953 124.364 626.256 103.069 636.908 106.027C647.56 108.984 666.497 101.886 681.883 116.083C697.269 130.28 710.288 122.59 719.165 117.857C728.042 113.125 743.428 121.407 748.754 129.688C754.08 137.97 767.69 117.266 780.118 134.42C792.545 151.575 809.706 152.166 816.216 145.068C822.725 137.97 824.897 130.28 832.685 127.322L832.697 127.316Z" fill="#004D00"/>
<path d="M435.463 455.996C439.185 472.494 449.387 515.611 462.175 552.233C462.59 553.422 461.891 554.706 460.666 555.002C454.411 556.498 435.936 559.935 413.851 554.972C412.756 554.723 412.265 553.44 412.928 552.535C418.118 545.43 435.161 517.362 434.131 456.168C434.119 455.357 435.279 455.21 435.457 456.002L435.463 455.996Z" fill="#4D2308"/>
<path d="M433.131 401.581C432.427 388.703 434.279 361.652 458.844 343.83C459.447 343.392 458.956 342.445 458.252 342.706C447.76 346.539 421.449 360.481 431.859 401.77C432.048 402.522 433.167 402.356 433.125 401.581H433.131Z" fill="#4D2308"/>
<path d="M401.424 372.271C401.394 371.72 402.181 371.59 402.329 372.117C403.584 376.494 406.205 382.859 410.863 382.859C415.52 382.859 418.804 376.447 420.366 372.241C420.556 371.726 421.319 371.91 421.26 372.454C420.633 377.979 418.449 387.591 410.863 387.591C403.276 387.591 401.743 378.008 401.424 372.271V372.271Z" fill="#4D2308"/>
<path d="M335.151 289.923C344.205 293.969 365.438 305.338 372.942 325.735C373.167 326.35 374.084 326.143 374.019 325.486C373.102 316.276 367.509 294.425 335.482 288.864C334.831 288.752 334.547 289.657 335.151 289.923V289.923Z" fill="#4D2308"/>
<path d="M460.471 295.921C460.572 295.637 460.992 295.732 460.974 296.034C460.725 299.571 460.714 307.137 464.72 310.698C468.839 314.359 476.325 312.774 479.639 311.822C479.923 311.739 480.1 312.123 479.852 312.289C476.372 314.554 467.395 319.529 461.767 314.838C456.181 310.183 459.015 300.044 460.483 295.927L460.471 295.921Z" fill="#4D2308"/>
<path d="M535.881 250.012C535.94 249.663 536.443 249.669 536.49 250.012C536.952 253.39 538.686 260.015 545.201 262.18C551.622 264.321 558.978 258.098 562.552 254.496C562.812 254.23 563.233 254.567 563.031 254.881C559.723 259.855 552.042 269.586 544.024 266.912C534.691 263.801 535.182 254.218 535.893 250.006L535.881 250.012Z" fill="#4D2308"/>
<path d="M618.765 241.05C609.734 245.451 587.46 256.241 575.535 261.37C575.056 261.577 575.21 262.298 575.731 262.286C580.98 262.192 595.833 260.039 619.268 241.867C619.723 241.512 619.285 240.802 618.77 241.056L618.765 241.05Z" fill="#4D2308"/>
<path d="M340.613 237.974C340.258 237.602 339.649 238.004 339.85 238.477C341.081 241.364 342.43 246.392 339.258 250.355C336.039 254.378 327.079 253.751 321.67 252.94C321.12 252.857 320.913 253.638 321.44 253.833C327.523 256.111 338.767 259.211 343.4 253.313C348.117 247.309 343.507 240.997 340.613 237.974Z" fill="#4D2308"/>
</g>
<defs>
<clipPath id="clip0_57_790">
<rect width="847" height="560" fill="white"/>
</clipPath>
</defs>
</svg>
