<svg width="24" height="24" viewBox="0 0 24 24" fill="none" xmlns="http://www.w3.org/2000/svg">
<path d="M16 14.5C15.8684 14.5008 15.7379 14.4756 15.6161 14.4258C15.4943 14.376 15.3834 14.3027 15.29 14.21L12 10.9L8.7 14.08C8.51264 14.2663 8.25919 14.3708 7.995 14.3708C7.73081 14.3708 7.47736 14.2663 7.29 14.08C7.19627 13.9871 7.12188 13.8765 7.07111 13.7546C7.02034 13.6327 6.9942 13.502 6.9942 13.37C6.9942 13.238 7.02034 13.1073 7.07111 12.9854C7.12188 12.8636 7.19627 12.753 7.29 12.66L11.29 8.80002C11.4769 8.61679 11.7282 8.51416 11.99 8.51416C12.2518 8.51416 12.5031 8.61679 12.69 8.80002L16.69 12.8C16.7837 12.893 16.8581 13.0036 16.9089 13.1254C16.9597 13.2473 16.9858 13.378 16.9858 13.51C16.9858 13.642 16.9597 13.7727 16.9089 13.8946C16.8581 14.0165 16.7837 14.1271 16.69 14.22C16.5046 14.3987 16.2575 14.499 16 14.5Z" fill="#A2A199"/>
</svg>
