<svg width="19" height="27" viewBox="0 0 19 27" fill="none" xmlns="http://www.w3.org/2000/svg">
<path fill-rule="evenodd" clip-rule="evenodd" d="M9.44011 26.1176C14.6537 26.1176 18.8802 21.8851 18.8802 16.664C18.8802 11.4429 9.44011 0 9.44011 0C9.44011 0 0 11.4429 0 16.664C0 21.8851 4.22648 26.1176 9.44011 26.1176ZM12.7104 14.0521C12.7104 14.7803 12.4748 15.4536 12.0757 15.9997L12.627 16.5511C12.9955 16.1509 13.5237 15.9003 14.1105 15.9003C15.2241 15.9003 16.1268 16.803 16.1268 17.9165C16.1268 19.03 15.2241 19.9327 14.1105 19.9327C12.997 19.9327 12.0943 19.03 12.0943 17.9165C12.0943 17.6205 12.1581 17.3395 12.2726 17.0863L12.2689 17.0828L12.2638 17.0779L11.657 16.4711C11.067 17.0204 10.2757 17.3564 9.40601 17.3564C8.33649 17.3564 7.38564 16.8483 6.78171 16.0603L6.14172 16.7003C6.39779 17.0384 6.5497 17.4597 6.5497 17.9165C6.5497 19.03 5.64701 19.9327 4.53348 19.9327C3.41995 19.9327 2.51726 19.03 2.51726 17.9165C2.51726 16.803 3.41995 15.9003 4.53348 15.9003C4.96307 15.9003 5.36128 16.0346 5.68839 16.2636L6.44055 15.5114C6.22355 15.0713 6.10164 14.5759 6.10164 14.0521C6.10164 12.2271 7.58106 10.7477 9.40601 10.7477C11.231 10.7477 12.7104 12.2271 12.7104 14.0521ZM10.6597 22.5591C10.6449 23.3295 11.0795 23.8662 11.8006 23.8514C12.469 23.8382 12.9464 23.4349 12.9628 22.569C12.9776 21.7969 12.543 21.2734 11.85 21.2932C11.1717 21.3129 10.6762 21.6916 10.6597 22.5591ZM11.8121 23.4612C11.4022 23.4612 11.2014 23.0711 11.2014 22.5772C11.2014 21.9335 11.4894 21.6916 11.8384 21.6916C12.2302 21.6916 12.4212 22.0603 12.4212 22.5525C12.4212 23.1797 12.1842 23.4612 11.8121 23.4612ZM6.452 23.8251H5.9285V21.3195H6.452V22.3599H7.42821V21.3195H7.94512V23.8251H7.42821V22.7534H6.452V23.8251ZM10.2465 23.8251H8.56246L8.49167 23.5699C8.90981 23.3361 9.59135 22.8818 9.59135 22.4472C9.59135 22.2529 9.48435 22.1064 9.2407 22.1064C9.02669 22.1064 8.81104 22.2134 8.69745 22.327L8.50484 22.0257C8.63819 21.8858 8.92957 21.6981 9.32466 21.6981C9.9206 21.6981 10.1297 22.0175 10.1297 22.3517C10.1297 22.7616 9.82182 23.1205 9.3296 23.425L10.2465 23.3905V23.8251Z" fill="#3C70BF"/>
</svg>
