<svg width="19" height="79" viewBox="0 0 19 79" fill="none" xmlns="http://www.w3.org/2000/svg">
<path fill-rule="evenodd" clip-rule="evenodd" d="M18.5244 8.0213L9.26221 0L1.33514e-05 8.0213H4.9731C4.56607 9.63392 4.36431 11.2969 4.43207 12.9647C4.51001 15.0149 4.97548 17.0198 5.70747 18.8386C6.43444 20.6624 7.4105 22.3101 8.5048 23.8043C12.4543 28.9588 12.6178 34.4101 9.25945 39.8664C5.06603 46.593 5.23452 53.6543 10.0141 60.0137C14.3661 65.7744 14.5624 71.9753 10.7689 78.1184C13.9234 73.9727 15.3321 68.7755 13.6844 63.699C13.1762 62.0413 12.4215 60.4665 11.5235 58.9924C10.6959 57.6214 10.0167 56.1825 9.57141 54.6983C8.66077 51.7626 8.80916 48.6508 10.0016 45.8434C10.5752 44.4548 11.36 43.1417 12.2782 41.909C14.4718 38.9532 16.0541 35.3685 16.1925 31.58C16.3559 27.7438 15.0151 23.9326 13.0354 20.7404C10.3895 16.4167 10.0752 12.168 12.2817 8.0213H18.5244Z" fill="url(#paint0_linear_262_4252)"/>
<defs>
<linearGradient id="paint0_linear_262_4252" x1="9.26221" y1="0" x2="9.26221" y2="78.1184" gradientUnits="userSpaceOnUse">
<stop stop-color="#6796DC"/>
<stop offset="1" stop-color="#4C75F2" stop-opacity="0"/>
</linearGradient>
</defs>
</svg>
