<svg width="24" height="24" viewBox="0 0 24 24" fill="none" xmlns="http://www.w3.org/2000/svg">
<rect width="24" height="24" rx="4" fill="#F3F5F7"/>
<path fill-rule="evenodd" clip-rule="evenodd" d="M7.76638 3.43358C7.84088 3.50789 7.89999 3.59617 7.94032 3.69336C7.98065 3.79056 8.00141 3.89475 8.00141 3.99998C8.00141 4.10521 7.98065 4.2094 7.94032 4.30659C7.89999 4.40378 7.84088 4.49206 7.76638 4.56638L5.93118 6.39998H14.4C16.3095 6.39998 18.1409 7.15855 19.4911 8.50881C20.8414 9.85907 21.6 11.6904 21.6 13.6C21.6 15.5095 20.8414 17.3409 19.4911 18.6911C18.1409 20.0414 16.3095 20.8 14.4 20.8H7.99998C7.7878 20.8 7.58432 20.7157 7.43429 20.5657C7.28426 20.4156 7.19998 20.2122 7.19998 20C7.19998 19.7878 7.28426 19.5843 7.43429 19.4343C7.58432 19.2843 7.7878 19.2 7.99998 19.2H14.4C15.8852 19.2 17.3096 18.61 18.3598 17.5598C19.41 16.5096 20 15.0852 20 13.6C20 12.1148 19.41 10.6904 18.3598 9.64018C17.3096 8.58998 15.8852 7.99998 14.4 7.99998H5.93118L7.76638 9.83358C7.84076 9.90796 7.89976 9.99626 7.94002 10.0934C7.98027 10.1906 8.00099 10.2948 8.00099 10.4C8.00099 10.5052 7.98027 10.6093 7.94002 10.7065C7.89976 10.8037 7.84076 10.892 7.76638 10.9664C7.692 11.0408 7.60369 11.0998 7.50651 11.14C7.40933 11.1803 7.30517 11.201 7.19998 11.201C7.09479 11.201 6.99063 11.1803 6.89344 11.14C6.79626 11.0998 6.70796 11.0408 6.63358 10.9664L3.43358 7.76638C3.35908 7.69206 3.29997 7.60378 3.25964 7.50659C3.21931 7.4094 3.19855 7.30521 3.19855 7.19998C3.19855 7.09475 3.21931 6.99056 3.25964 6.89336C3.29997 6.79617 3.35908 6.70789 3.43358 6.63358L6.63358 3.43358C6.70789 3.35908 6.79617 3.29997 6.89336 3.25964C6.99056 3.21931 7.09475 3.19855 7.19998 3.19855C7.30521 3.19855 7.4094 3.21931 7.50659 3.25964C7.60378 3.29997 7.69206 3.35908 7.76638 3.43358Z" fill="#A2A199"/>
</svg>
