<svg width="24" height="24" viewBox="0 0 24 24" fill="none" xmlns="http://www.w3.org/2000/svg">
<path d="M1.5 19.1673V6.74477L11.8107 10.9628L12 11.0402L12.1893 10.9628L22.5 6.74477V19.1614L11.7486 23.4598L1.5 19.1673Z" stroke="#484A43"/>
<path d="M1.5 13.1673V6.74477L11.8107 10.9628L12 11.0402L12.1893 10.9628L22.5 6.74477V13.1614L11.7486 17.4598L1.5 13.1673Z" stroke="#484A43"/>
<path d="M2.32054 5.5L12 1.54022L21.6795 5.5L12 9.45978L2.32054 5.5Z" fill="#484A43" stroke="#484A43"/>
<circle cx="4.5" cy="17.5" r="0.5" fill="#484A43"/>
<circle cx="7.5" cy="19.5" r="0.5" fill="#484A43"/>
<circle cx="10.5" cy="18.5" r="0.5" fill="#484A43"/>
<circle cx="12.5" cy="21.5" r="0.5" fill="#484A43"/>
<circle cx="17.5" cy="17.5" r="0.5" fill="#484A43"/>
<circle cx="20.5" cy="18.5" r="0.5" fill="#484A43"/>
</svg>
