<svg width="24" height="24" viewBox="0 0 24 24" fill="none" xmlns="http://www.w3.org/2000/svg">
<path d="M9.75 12.945V4.5C9.75 3.70435 9.43393 2.94129 8.87132 2.37868C8.30871 1.81607 7.54565 1.5 6.75 1.5C5.95435 1.5 5.19129 1.81607 4.62868 2.37868C4.06607 2.94129 3.75 3.70435 3.75 4.5V12.945C2.83276 13.5837 2.14329 14.4984 1.78194 15.5561C1.42059 16.6138 1.40622 17.7592 1.74092 18.8256C2.07562 19.892 2.74193 20.8237 3.64285 21.4852C4.54378 22.1467 5.63231 22.5034 6.75 22.5034C7.86769 22.5034 8.95622 22.1467 9.85715 21.4852C10.7581 20.8237 11.4244 19.892 11.7591 18.8256C12.0938 17.7592 12.0794 16.6138 11.7181 15.5561C11.3567 14.4984 10.6672 13.5837 9.75 12.945ZM6.75 3C7.14782 3 7.52936 3.15804 7.81066 3.43934C8.09196 3.72064 8.25 4.10218 8.25 4.5V9.75H5.25V4.5C5.25 4.10218 5.40804 3.72064 5.68934 3.43934C5.97064 3.15804 6.35218 3 6.75 3ZM6.75 21C5.92453 21 5.12213 20.7276 4.46725 20.225C3.81237 19.7225 3.3416 19.0179 3.12795 18.2206C2.9143 17.4232 2.9697 16.5777 3.28558 15.815C3.60145 15.0524 4.16014 14.4153 4.875 14.0025L5.25 13.7925V11.25H8.25V13.7925L8.625 14.0025C9.33986 14.4153 9.89855 15.0524 10.2144 15.815C10.5303 16.5777 10.5857 17.4232 10.3721 18.2206C10.1584 19.0179 9.68763 19.7225 9.03275 20.225C8.37787 20.7276 7.57547 21 6.75 21ZM15 3H22.5V4.5H15V3ZM15 7.5H20.25V9H15V7.5ZM15 12H22.5V13.5H15V12ZM15 16.5H20.25V18H15V16.5Z" fill="#484A43"/>
</svg>
